<svg width="498" height="1129" viewBox="0 0 498 1129" fill="none" xmlns="http://www.w3.org/2000/svg">
<mask id="path-1-inside-1_21_422" fill="white">
<path d="M410.806 178C414.473 205.881 358.391 263.252 354.211 270.49H355.623C354.027 271.53 353.648 271.465 354.211 270.49H280.806L410.806 178Z"/>
</mask>
<path d="M410.806 178L523.832 163.133L499.12 -24.7398L344.719 85.1104L410.806 178ZM355.623 270.49L417.896 365.978L739.116 156.49H355.623V270.49ZM280.806 270.49L214.719 177.6L-76.0777 384.49H280.806V270.49ZM410.806 178L297.779 192.867C295.564 176.022 298.504 163.646 299.823 158.936C300.612 156.117 301.376 154.116 301.82 153.032C302.275 151.922 302.572 151.345 302.573 151.343C302.582 151.326 302.413 151.656 302.002 152.351C301.597 153.037 301.032 153.95 300.281 155.095C298.749 157.431 296.768 160.238 294.333 163.476C289.366 170.083 283.841 176.737 278.353 183.214C276.056 185.926 272.71 189.842 270.35 192.68C269.094 194.189 267.314 196.352 265.489 198.705C264.559 199.904 263.262 201.61 261.823 203.634C260.577 205.388 258.131 208.906 255.488 213.484L354.211 270.49L452.935 327.495C447.5 336.907 441.41 343.564 445.637 338.482C447.13 336.688 448.822 334.717 452.313 330.597C458.402 323.41 467.452 312.621 476.569 300.496C485.285 288.903 496.502 272.906 505.622 255.049C512.313 241.949 529.532 206.466 523.832 163.133L410.806 178ZM354.211 270.49L255.488 213.484C255.049 214.244 244.655 230.894 241.187 254.431C239.454 266.198 236.153 300.991 260.025 335.742C287.502 375.741 328.344 384.386 349.976 385.171C369.708 385.886 384.687 381.236 390.132 379.435C397.115 377.125 402.475 374.602 405.444 373.124C411.399 370.16 415.918 367.268 417.896 365.978L355.623 270.49L293.349 175.002C294.529 174.232 298.403 171.721 303.856 169.007C306.574 167.654 311.719 165.223 318.521 162.973C323.785 161.231 338.619 156.609 358.24 157.32C379.76 158.101 420.523 166.711 447.955 206.644C471.781 241.328 468.467 276.024 466.752 287.664C463.322 310.947 453.092 327.223 452.935 327.495L354.211 270.49ZM355.623 270.49V156.49H354.211V270.49V384.49H355.623V270.49ZM354.211 270.49V156.49H280.806V270.49V384.49H354.211V270.49ZM280.806 270.49L346.893 363.379L476.893 270.89L410.806 178L344.719 85.1104L214.719 177.6L280.806 270.49Z" fill="#6A38F3" mask="url(#path-1-inside-1_21_422)"/>
<mask id="path-3-inside-2_21_422" fill="white">
<path d="M394.984 256.28C380.201 242.483 395.79 211.741 405.432 198.094L380.407 232.974C372.94 248.831 387.014 255.118 394.984 256.28Z"/>
</mask>
<path d="M405.432 198.094L476.485 248.3L334.744 147.377L405.432 198.094ZM394.984 256.28L382.44 342.37L657.728 382.481L454.342 192.675L394.984 256.28ZM380.407 232.974L309.719 182.257L305.084 188.718L301.696 195.911L380.407 232.974ZM405.432 198.094L334.38 147.889C325.924 159.857 314.299 179.645 307.554 202.684C302.681 219.326 289.313 276.664 335.626 319.885L394.984 256.28L454.342 192.675C469.594 206.908 474.619 224.106 475.652 235.256C476.554 244.983 474.691 251.072 474.543 251.578C474.219 252.685 474.205 252.374 474.98 250.871C475.298 250.255 475.642 249.647 475.967 249.112C476.3 248.563 476.5 248.278 476.485 248.3L405.432 198.094ZM394.984 256.28L407.528 170.189C413.713 171.09 429.506 174.228 444.41 189.621C453.46 198.968 462.073 213.073 464.587 231.178C467.027 248.75 462.671 262.49 459.117 270.038L380.407 232.974L301.696 195.911C294.409 211.387 289.012 231.859 292.24 255.107C295.542 278.886 306.771 297.609 319.403 310.655C341.469 333.446 368.284 340.308 382.44 342.37L394.984 256.28ZM380.407 232.974L451.095 283.691L476.12 248.811L405.432 198.094L334.744 147.377L309.719 182.257L380.407 232.974Z" fill="#6A38F3" mask="url(#path-3-inside-2_21_422)"/>
<mask id="path-5-inside-3_21_422" fill="white">
<path d="M380.517 290.477C356.628 273.916 375.219 244.086 387.501 231.241L355.547 264.017C346.808 279.488 368.552 288.103 380.517 290.477Z"/>
</mask>
<path d="M387.501 231.241L450.383 291.364L325.205 170.51L387.501 231.241ZM380.517 290.477L363.584 375.814L430.084 218.978L380.517 290.477ZM355.547 264.017L293.252 203.286L285.36 211.381L279.799 221.225L355.547 264.017ZM387.501 231.241L324.619 171.117C312.881 183.394 295.28 206.007 286.824 235.454C282.32 251.139 279.082 273.561 285.757 298.52C292.915 325.284 309.39 347.03 330.95 361.976L380.517 290.477L430.084 218.978C439.699 225.644 449.54 237.451 453.849 253.563C457.675 267.869 455.373 278.925 454.066 283.477C453.343 285.995 452.59 287.728 452.15 288.654C451.697 289.605 451.362 290.147 451.247 290.326C451.145 290.487 451.048 290.668 450.383 291.364L387.501 231.241ZM380.517 290.477L397.449 205.141C397.559 205.163 403.553 205.864 412.507 212.588C417.465 216.311 430.077 227.014 436.699 247.087C444.478 270.665 439.331 292.586 431.296 306.809L355.547 264.017L279.799 221.225C267.394 243.183 261.688 271.983 271.46 301.602C280.075 327.715 297.231 343.622 308.029 351.729C328.662 367.222 351.509 373.418 363.584 375.814L380.517 290.477ZM355.547 264.017L417.843 324.748L449.796 291.972L387.501 231.241L325.205 170.51L293.252 203.286L355.547 264.017Z" fill="#6A38F3" mask="url(#path-5-inside-3_21_422)"/>
<mask id="path-7-inside-4_21_422" fill="white">
<path d="M356.76 269.006C356.78 268.999 356.795 268.998 356.806 269.004L356.76 269.006C355.885 269.317 346.39 282.593 356.806 295.004C346.603 289.039 309.793 282.954 298.806 270.5L356.76 269.006Z"/>
</mask>
<path d="M356.806 269.004L359.048 355.976L661.774 348.169L401.067 194.105L356.806 269.004ZM356.806 295.004L312.894 370.109L423.448 239.078L356.806 295.004ZM298.806 270.5L296.563 183.529L110.298 188.332L233.566 328.056L298.806 270.5ZM356.806 269.004L401.067 194.105C367.132 174.051 335.25 184.313 327.571 187.048L356.76 269.006L385.949 350.963C380.328 352.965 370.982 355.653 359.1 355.969C346.74 356.298 329.697 354.04 312.544 343.904L356.806 269.004ZM356.76 269.006L327.57 187.049C313.591 192.028 304.417 199.448 302.318 201.127C298.652 204.058 295.937 206.716 294.376 208.308C291.16 211.589 288.768 214.536 287.303 216.428C284.188 220.45 281.596 224.455 279.472 228.158C275.218 235.571 270.798 245.333 267.963 257.116C261.783 282.799 263.557 319.227 290.164 350.931L356.806 295.004L423.448 239.078C439.639 258.37 440.952 281.954 437.135 297.819C435.481 304.693 432.947 310.302 430.395 314.75C429.121 316.971 427.334 319.79 424.864 322.978C423.722 324.453 421.614 327.071 418.628 330.117C417.182 331.592 414.569 334.156 410.989 337.018C408.977 338.628 399.875 346.003 385.95 350.962L356.76 269.006ZM356.806 295.004L400.718 219.899C393.317 215.572 386.438 212.829 382.736 211.423C378.5 209.813 374.406 208.471 371.285 207.481C368.141 206.484 364.767 205.464 362.197 204.682C359.379 203.825 357.027 203.102 354.814 202.388C352.619 201.68 350.942 201.101 349.651 200.621C348.326 200.127 347.843 199.898 347.975 199.96C348.017 199.98 349.547 200.684 351.92 202.248C354.13 203.705 358.873 207.08 364.046 212.944L298.806 270.5L233.566 328.056C248.231 344.679 265.588 353.511 274.163 357.528C284.303 362.278 294.355 365.714 301.386 367.983C305.099 369.181 308.66 370.269 311.539 371.145C314.665 372.096 316.77 372.733 318.683 373.34C320.62 373.954 321.161 374.163 320.934 374.077C320.763 374.012 320.004 373.721 318.848 373.2C317.768 372.714 315.623 371.705 312.894 370.109L356.806 295.004ZM298.806 270.5L301.048 357.471L359.003 355.977L356.76 269.006L354.517 182.035L296.563 183.529L298.806 270.5ZM356.76 269.006L359.003 355.977L359.048 355.976L356.806 269.004L354.563 182.033L354.517 182.035L356.76 269.006Z" fill="#6A38F3" mask="url(#path-7-inside-4_21_422)"/>
<mask id="path-9-inside-5_21_422" fill="white">
<path d="M127.041 178C123.373 205.881 179.456 263.252 183.635 270.49H182.224C183.819 271.53 184.199 271.465 183.635 270.49H257.041L127.041 178Z"/>
</mask>
<path d="M127.041 178L14.0144 163.133L38.7267 -24.7398L193.128 85.1104L127.041 178ZM182.224 270.49L119.95 365.978L-201.27 156.49H182.224V270.49ZM257.041 270.49L323.128 177.6L613.924 384.49H257.041V270.49ZM127.041 178L240.067 192.867C242.283 176.022 239.343 163.646 238.024 158.936C237.234 156.117 236.471 154.116 236.027 153.032C235.571 151.922 235.274 151.345 235.273 151.343C235.265 151.326 235.434 151.656 235.844 152.351C236.25 153.037 236.815 153.95 237.565 155.095C239.098 157.431 241.078 160.238 243.513 163.476C248.481 170.083 254.006 176.737 259.494 183.214C261.791 185.926 265.137 189.842 267.497 192.68C268.753 194.189 270.533 196.352 272.358 198.705C273.287 199.904 274.585 201.61 276.023 203.634C277.27 205.388 279.715 208.906 282.359 213.484L183.635 270.49L84.9118 327.495C90.3465 336.907 96.4368 343.564 92.2095 338.482C90.7171 336.688 89.0241 334.717 85.5331 330.597C79.4447 323.41 70.395 312.621 61.2778 300.496C52.5615 288.903 41.3445 272.906 32.2241 255.049C25.5333 241.949 8.31436 206.466 14.0144 163.133L127.041 178ZM183.635 270.49L282.359 213.484C282.798 214.244 293.191 230.894 296.659 254.431C298.393 266.198 301.694 300.991 277.822 335.742C250.344 375.741 209.503 384.386 187.871 385.171C168.138 385.886 153.159 381.236 147.715 379.435C140.732 377.125 135.372 374.602 132.402 373.124C126.447 370.16 121.928 367.268 119.95 365.978L182.224 270.49L244.498 175.002C243.317 174.232 239.444 171.721 233.991 169.007C231.272 167.654 226.128 165.223 219.325 162.973C214.061 161.231 199.228 156.609 179.607 157.32C158.087 158.101 117.324 166.711 89.8918 206.644C66.0657 241.328 69.3792 276.024 71.0943 287.664C74.5246 310.947 84.7543 327.223 84.9118 327.495L183.635 270.49ZM182.224 270.49V156.49H183.635V270.49V384.49H182.224V270.49ZM183.635 270.49V156.49H257.041V270.49V384.49H183.635V270.49ZM257.041 270.49L190.954 363.379L60.9536 270.89L127.041 178L193.128 85.1104L323.128 177.6L257.041 270.49Z" fill="#6A38F3" mask="url(#path-9-inside-5_21_422)"/>
<mask id="path-11-inside-6_21_422" fill="white">
<path d="M142.863 256.28C157.646 242.483 142.057 211.741 132.414 198.094L157.44 232.974C164.907 248.831 150.833 255.118 142.863 256.28Z"/>
</mask>
<path d="M132.414 198.094L61.3619 248.3L203.102 147.377L132.414 198.094ZM142.863 256.28L155.406 342.37L-119.881 382.481L83.5042 192.675L142.863 256.28ZM157.44 232.974L228.128 182.257L232.763 188.718L236.15 195.911L157.44 232.974ZM132.414 198.094L203.467 147.889C211.923 159.857 223.547 179.645 230.293 202.684C235.165 219.326 248.534 276.664 202.221 319.885L142.863 256.28L83.5042 192.675C68.2529 206.908 63.2278 224.106 62.1941 235.256C61.2925 244.983 63.1554 251.072 63.3035 251.578C63.6276 252.685 63.6413 252.374 62.8662 250.871C62.5488 250.255 62.2048 249.647 61.8799 249.112C61.5467 248.563 61.3464 248.278 61.3619 248.3L132.414 198.094ZM142.863 256.28L130.319 170.189C124.133 171.09 108.34 174.228 93.4364 189.621C84.3864 198.968 75.7733 213.073 73.2596 231.178C70.8199 248.75 75.1755 262.49 78.7295 270.038L157.44 232.974L236.15 195.911C243.438 211.387 248.834 231.859 245.606 255.107C242.305 278.886 231.075 297.609 218.444 310.655C196.377 333.446 169.562 340.308 155.406 342.37L142.863 256.28ZM157.44 232.974L86.7519 283.691L61.7264 248.811L132.414 198.094L203.102 147.377L228.128 182.257L157.44 232.974Z" fill="#6A38F3" mask="url(#path-11-inside-6_21_422)"/>
<mask id="path-13-inside-7_21_422" fill="white">
<path d="M157.33 290.477C181.219 273.916 162.627 244.086 150.346 231.241L182.299 264.017C191.039 279.488 169.294 288.103 157.33 290.477Z"/>
</mask>
<path d="M150.346 231.241L87.4635 291.364L212.641 170.51L150.346 231.241ZM157.33 290.477L174.262 375.814L107.763 218.978L157.33 290.477ZM182.299 264.017L244.595 203.286L252.487 211.381L258.048 221.225L182.299 264.017ZM150.346 231.241L213.228 171.117C224.966 183.394 242.567 206.007 251.023 235.454C255.527 251.139 258.765 273.561 252.09 298.52C244.932 325.284 228.457 347.03 206.897 361.976L157.33 290.477L107.763 218.978C98.1475 225.644 88.3069 237.451 83.9978 253.563C80.1717 267.869 82.4737 278.925 83.7808 283.477C84.5037 285.995 85.2562 287.728 85.6967 288.654C86.1495 289.605 86.4848 290.147 86.5992 290.326C86.7013 290.487 86.7983 290.668 87.4635 291.364L150.346 231.241ZM157.33 290.477L140.397 205.141C140.287 205.163 134.294 205.864 125.34 212.588C120.381 216.311 107.77 227.014 101.147 247.087C93.3688 270.665 98.5158 292.586 106.551 306.809L182.299 264.017L258.048 221.225C270.452 243.183 276.158 271.983 266.387 301.602C257.772 327.715 240.615 343.622 229.818 351.729C209.185 367.222 186.337 373.418 174.262 375.814L157.33 290.477ZM182.299 264.017L120.004 324.748L88.0501 291.972L150.346 231.241L212.641 170.51L244.595 203.286L182.299 264.017Z" fill="#6A38F3" mask="url(#path-13-inside-7_21_422)"/>
<mask id="path-15-inside-8_21_422" fill="white">
<path d="M181.086 269.006C181.067 268.999 181.051 268.998 181.041 269.004L181.086 269.006C181.962 269.317 191.457 282.593 181.041 295.004C191.243 289.039 228.054 282.954 239.041 270.5L181.086 269.006Z"/>
</mask>
<path d="M181.041 269.004L178.798 355.976L-123.928 348.169L136.779 194.105L181.041 269.004ZM181.041 295.004L224.952 370.109L114.399 239.078L181.041 295.004ZM239.041 270.5L241.283 183.529L427.548 188.332L304.281 328.056L239.041 270.5ZM181.041 269.004L136.779 194.105C170.715 174.051 202.597 184.313 210.276 187.048L181.086 269.006L151.897 350.963C157.519 352.965 166.865 355.653 178.747 355.969C191.107 356.298 208.15 354.04 225.302 343.904L181.041 269.004ZM181.086 269.006L210.277 187.049C224.256 192.028 233.429 199.448 235.529 201.127C239.194 204.058 241.909 206.716 243.47 208.308C246.687 211.589 249.078 214.536 250.544 216.428C253.659 220.45 256.25 224.455 258.375 228.158C262.628 235.571 267.049 245.333 269.884 257.116C276.064 282.799 274.29 319.227 247.683 350.931L181.041 295.004L114.399 239.078C98.2078 258.37 96.8945 281.954 100.712 297.819C102.366 304.693 104.9 310.302 107.452 314.75C108.726 316.971 110.513 319.79 112.982 322.978C114.125 324.453 116.232 327.071 119.219 330.117C120.665 331.592 123.278 334.156 126.857 337.018C128.87 338.628 137.972 346.003 151.896 350.962L181.086 269.006ZM181.041 295.004L137.129 219.899C144.53 215.572 151.409 212.829 155.11 211.423C159.346 209.813 163.441 208.471 166.561 207.481C169.706 206.484 173.08 205.464 175.65 204.682C178.468 203.825 180.82 203.102 183.033 202.388C185.228 201.68 186.905 201.101 188.196 200.621C189.521 200.127 190.004 199.898 189.872 199.96C189.829 199.98 188.299 200.684 185.927 202.248C183.717 203.705 178.974 207.08 173.8 212.944L239.041 270.5L304.281 328.056C289.616 344.679 272.259 353.511 263.684 357.528C253.544 362.278 243.492 365.714 236.46 367.983C232.748 369.181 229.186 370.269 226.308 371.145C223.182 372.096 221.076 372.733 219.163 373.34C217.227 373.954 216.686 374.163 216.913 374.077C217.084 374.012 217.843 373.721 218.999 373.2C220.078 372.714 222.223 371.705 224.952 370.109L181.041 295.004ZM239.041 270.5L236.798 357.471L178.844 355.977L181.086 269.006L183.329 182.035L241.283 183.529L239.041 270.5ZM181.086 269.006L178.844 355.977L178.798 355.976L181.041 269.004L183.283 182.033L183.329 182.035L181.086 269.006Z" fill="#6A38F3" mask="url(#path-15-inside-8_21_422)"/>
<ellipse cx="268.326" cy="150.61" rx="146.684" ry="121.394" fill="#C6E700"/>
<path d="M309.352 164.099V139.37" stroke="black" stroke-width="10.1162" stroke-linecap="round"/>
<mask id="path-19-inside-9_21_422" fill="white">
<path d="M100.092 137.25C108.495 119.03 128.289 126.024 135.96 135.428L128.468 165.234C116.291 161.078 91.6883 155.47 100.092 137.25Z"/>
</mask>
<path d="M135.96 135.428L230.646 58.1801L269.43 105.719L254.473 165.219L135.96 135.428ZM100.092 137.25L-10.8735 86.0701L-10.8735 86.0701L100.092 137.25ZM128.468 165.234L246.98 195.025L214.62 323.756L88.9983 280.884L128.468 165.234ZM135.96 135.428L41.2742 212.676C56.437 231.261 78.7219 245.029 106.995 247.656C123.579 249.196 145.621 246.976 167.65 234.699C190.254 222.101 203.931 203.879 211.057 188.43L100.092 137.25L-10.8735 86.0701C0.453764 61.5111 19.7564 37.3309 48.6747 21.2145C77.0184 5.41844 106.064 2.11773 129.605 4.30499C171.794 8.22481 207.812 30.1908 230.646 58.1801L135.96 135.428ZM100.092 137.25L211.057 188.43C220.322 168.342 226.384 136.052 212.051 101.685C199.791 72.2922 179.199 57.8796 172 53.3143C167.569 50.5047 164.022 48.8022 162.168 47.9659C160.245 47.0988 159.027 46.6662 158.985 46.6509C158.962 46.6428 159.325 46.773 160.867 47.2693C161.673 47.5292 165.089 48.6124 167.937 49.5844L128.468 165.234L88.9983 280.884C95.4709 283.093 78.5776 277.455 76.4455 276.69C69.5543 274.217 55.7282 268.978 41.1245 259.718C27.3023 250.954 1.3744 231.463 -13.5148 195.764C-30.4786 155.092 -24.3402 115.268 -10.8735 86.0701L100.092 137.25ZM128.468 165.234L9.95543 135.443L17.448 105.637L135.96 135.428L254.473 165.219L246.98 195.025L128.468 165.234Z" fill="#C6E700" mask="url(#path-19-inside-9_21_422)"/>
<path d="M112.515 139.798L126.988 150.736L116.641 153.282" stroke="black" stroke-width="1.17288" stroke-linecap="round"/>
<mask id="path-22-inside-10_21_422" fill="white">
<path d="M430.921 139.25C422.518 121.03 402.725 128.024 395.053 137.428L402.545 167.234C414.723 163.078 439.325 157.47 430.921 139.25Z"/>
</mask>
<path d="M395.053 137.428L300.367 60.1801L261.583 107.719L276.541 167.219L395.053 137.428ZM430.921 139.25L541.887 88.0701L541.887 88.0701L430.921 139.25ZM402.545 167.234L284.033 197.025L316.393 325.756L442.015 282.884L402.545 167.234ZM395.053 137.428L489.739 214.676C474.576 233.261 452.291 247.029 424.018 249.656C407.434 251.196 385.392 248.976 363.363 236.699C340.759 224.101 327.082 205.879 319.956 190.43L430.921 139.25L541.887 88.0701C530.559 63.5111 511.257 39.3309 482.339 23.2145C453.995 7.41844 424.949 4.11773 401.408 6.30499C359.219 10.2248 323.201 32.1908 300.367 60.1801L395.053 137.428ZM430.921 139.25L319.956 190.43C310.691 170.342 304.629 138.052 318.963 103.685C331.222 74.2922 351.814 59.8796 359.014 55.3143C363.445 52.5047 366.992 50.8022 368.846 49.9659C370.768 49.0988 371.986 48.6662 372.029 48.6509C372.051 48.6428 371.688 48.773 370.147 49.2693C369.34 49.5292 365.924 50.6124 363.076 51.5844L402.545 167.234L442.015 282.884C435.542 285.093 452.436 279.455 454.568 278.69C461.459 276.217 475.285 270.978 489.889 261.718C503.711 252.954 529.639 233.463 544.528 197.764C561.492 157.092 555.353 117.268 541.887 88.0701L430.921 139.25ZM402.545 167.234L521.058 137.443L513.565 107.637L395.053 137.428L276.541 167.219L284.033 197.025L402.545 167.234Z" fill="#C6E700" mask="url(#path-22-inside-10_21_422)"/>
<path d="M418.499 141.798L404.025 152.736L414.372 155.282" stroke="black" stroke-width="1.17288" stroke-linecap="round"/>
<path d="M219.805 159.26C223.228 136.561 233.554 113.745 238.805 159.26" stroke="black" stroke-width="3" stroke-linecap="round"/>
<path d="M276.821 173.164C253.821 157.664 238.821 181.664 271.821 185.164C241.821 179.664 246.321 204.164 270.321 199.164" stroke="black" stroke-width="3" stroke-linecap="round"/>
<path d="M313.848 120.397C317.812 119.835 326.281 120.734 328.45 128.827" stroke="black" stroke-width="2.24803" stroke-linecap="round"/>
<path d="M227.289 121.521C223.325 120.959 214.856 121.858 212.687 129.951" stroke="black" stroke-width="2.24803" stroke-linecap="round"/>
<path d="M308.305 135.5L308.805 128M311.305 135.5L313.305 128M313.305 137.5L317.305 130.5" stroke="black" stroke-width="3" stroke-linecap="round"/>
<path d="M272.282 397.959C272.516 398.873 272.751 399.803 272.984 400.751C278.531 423.325 282.149 448.258 284.751 473.819H256.892C259.606 453.502 263.374 432.266 268.412 412.205C269.68 407.157 270.975 402.409 272.282 397.959Z" stroke="#6A38F3" stroke-width="186.587" stroke-linecap="round"/>
<path d="M320.971 348.003C319.355 348.053 318.105 349.403 318.155 351.003C318.171 351.403 318.255 351.786 318.421 352.169L318.905 353.236C318.971 353.453 318.855 353.686 318.621 353.753C318.471 353.836 318.305 353.753 318.188 353.619L317.488 352.703C316.938 352.003 316.105 351.569 315.221 351.553C313.605 351.519 312.271 352.803 312.238 354.403C312.221 355.103 312.455 355.769 312.888 356.336L313.588 357.169H313.605C313.738 357.386 313.688 357.653 313.505 357.786C313.355 357.903 313.155 357.903 313.021 357.786L312.138 357.086C311.571 356.653 310.888 356.419 310.205 356.436C308.605 356.469 307.321 357.803 307.355 359.419C307.371 360.303 307.805 361.136 308.505 361.686L309.455 362.419C309.638 362.586 309.638 362.853 309.438 363.003C309.383 363.059 309.312 363.098 309.234 363.113C309.157 363.128 309.077 363.118 309.005 363.086H308.988L307.971 362.619C307.588 362.469 307.205 362.369 306.805 362.353C305.205 362.303 303.855 363.569 303.805 365.186C303.805 366.386 304.471 367.486 305.571 367.953L324.555 376.403L332.205 368.753L323.755 349.769C323.288 348.653 322.138 347.953 320.971 348.003ZM322.355 354.836C323.055 354.819 323.688 355.219 323.955 355.853L329.038 367.253L322.455 360.686L320.905 357.169C320.405 356.119 321.171 354.869 322.355 354.836ZM316.888 359.419C317.338 359.419 317.755 359.586 318.071 359.919L326.088 367.936C326.755 368.569 326.771 369.619 326.138 370.286C325.471 370.953 324.438 370.969 323.738 370.286L315.721 362.269C315.563 362.118 315.436 361.937 315.348 361.737C315.261 361.536 315.214 361.32 315.211 361.101C315.208 360.882 315.248 360.665 315.33 360.462C315.412 360.259 315.534 360.075 315.688 359.919C316.005 359.586 316.438 359.419 316.888 359.419ZM312.355 364.953C312.571 364.953 312.805 365.019 312.971 365.103L316.521 366.669L323.088 373.236L311.655 368.153C309.955 367.419 310.521 364.903 312.355 364.953ZM334.271 371.403L327.205 378.469L328.621 379.886C329.888 381.136 331.721 381.619 333.438 381.169C334.284 380.939 335.054 380.492 335.674 379.872C336.294 379.252 336.741 378.481 336.971 377.636C337.421 375.919 336.938 374.086 335.688 372.819L334.271 371.403Z" fill="white"/>
<path d="M194.007 575H254.172C263.222 719.487 253.785 838.765 247.049 1065H203.549C196.502 873.643 182.916 766.357 194.007 575Z" fill="#C6E700"/>
<path d="M289.25 575H349.415C358.465 719.487 349.028 838.765 342.292 1065H298.792C291.745 873.643 278.16 766.357 289.25 575Z" fill="#C6E700"/>
<mask id="path-34-inside-11_21_422" fill="white">
<path d="M244.305 267C252.972 289.833 276.305 321.8 300.305 267H244.305Z"/>
</mask>
<path d="M244.305 267V-275H-541.146L-262.421 459.334L244.305 267ZM300.305 267L796.779 484.434L1129.38 -275H300.305V267ZM244.305 267L-262.421 459.334C-248.161 496.904 -225.375 546.071 -189.317 597.104C-160.415 638.009 -81.6026 740.171 63.9876 798.835C256.637 876.462 462.862 837.711 611.666 724.04C724.839 637.588 776.517 530.699 796.779 484.434L300.305 267L-196.169 49.5661C-187.907 30.7013 -148.145 -59.6343 -46.3681 -137.381C11.011 -181.213 92.036 -223.707 194.381 -238.969C297.991 -254.421 392.826 -237.354 469.123 -206.61C604.797 -151.942 674.65 -58.6276 695.99 -28.4262C724.486 11.9044 741.105 48.5131 751.032 74.6659L244.305 267ZM300.305 267V-275H244.305V267V809H300.305V267Z" fill="#C6E700" mask="url(#path-34-inside-11_21_422)"/>
<path d="M40.8052 229L56.3052 277.5L23.3058 292.5C22.8058 285 1.89017 259.424 3.80555 249C5.72094 238.577 44.6897 229.098 40.8052 229Z" fill="#C6E700"/>
<mask id="path-37-inside-12_21_422" fill="white">
<path d="M22.6785 199.104L33.8977 237.28L42.3133 234.024L31.7291 198.009C24.1206 183.969 22.384 192.409 22.6785 199.104Z"/>
</mask>
<path d="M33.8977 237.28L64.7198 316.951L-21.8803 350.454L-48.0615 261.366L33.8977 237.28ZM22.6785 199.104L-59.2808 223.19L-62.2081 213.23L-62.6643 202.857L22.6785 199.104ZM31.7291 198.009L106.835 157.308L111.141 165.253L113.688 173.923L31.7291 198.009ZM42.3133 234.024L124.273 209.938L146.432 285.339L73.1354 313.695L42.3133 234.024ZM33.8977 237.28L-48.0615 261.366L-59.2808 223.19L22.6785 199.104L104.638 175.017L115.857 213.193L33.8977 237.28ZM22.6785 199.104L-62.6643 202.857C-62.9016 197.464 -62.8794 189.615 -61.4701 180.739C-60.7687 176.321 -59.3756 169.376 -56.3199 161.435C-53.6492 154.494 -47.1116 139.836 -32.334 126.774C-14.483 110.996 11.0794 101.701 38.6688 106.025C61.6142 109.62 76.7392 121.25 83.4327 127.128C96.5538 138.651 103.948 151.981 106.835 157.308L31.7291 198.009L-43.3769 238.71C-43.2448 238.954 -42.3632 240.577 -40.6845 242.959C-39.2571 244.985 -35.5521 250.017 -29.3053 255.503C-23.84 260.302 -9.7897 271.367 12.2196 274.816C38.8728 278.992 63.6375 269.97 80.8143 254.787C94.9177 242.322 100.905 228.583 103.133 222.792C105.747 216 106.806 210.434 107.267 207.529C108.196 201.679 108.111 197.396 108.021 195.35L22.6785 199.104ZM31.7291 198.009L113.688 173.923L124.273 209.938L42.3133 234.024L-39.6459 258.111L-50.2302 222.096L31.7291 198.009ZM42.3133 234.024L73.1354 313.695L64.7198 316.951L33.8977 237.28L3.07565 157.609L11.4913 154.353L42.3133 234.024Z" fill="#C6E700" mask="url(#path-37-inside-12_21_422)"/>
<mask id="path-39-inside-13_21_422" fill="white">
<path d="M7.99158 200.725L23.2142 240.08L31.3136 236.094L16.9526 198.966C7.86237 184.727 6.99951 193.711 7.99158 200.725Z"/>
</mask>
<path d="M23.2142 240.08L60.9384 316.725L-22.7919 357.937L-56.4586 270.898L23.2142 240.08ZM7.99158 200.725L-71.6812 231.543L-75.2188 222.397L-76.5919 212.688L7.99158 200.725ZM16.9526 198.966L88.9571 153.001L93.5477 160.192L96.6255 168.149L16.9526 198.966ZM31.3136 236.094L110.986 205.276L139.196 278.207L69.0378 312.738L31.3136 236.094ZM23.2142 240.08L-56.4586 270.898L-71.6812 231.543L7.99158 200.725L87.6644 169.908L102.887 209.263L23.2142 240.08ZM7.99158 200.725L-76.5919 212.688C-77.332 207.456 -78.0698 199.806 -77.6154 191.058C-77.3904 186.725 -76.7652 179.793 -74.6475 171.702C-72.8552 164.854 -67.9989 149.153 -54.3497 134.227C-37.4347 115.73 -11.3303 103.576 17.9886 106.378C41.6429 108.639 57.6128 119.804 64.1955 124.95C77.5492 135.391 85.6969 147.894 88.9571 153.001L16.9526 198.966L-55.0518 244.932C-55.0316 244.964 -54.186 246.303 -52.5274 248.356C-51.1522 250.058 -47.3352 254.622 -41.0395 259.544C-35.8005 263.641 -20.967 274.284 1.7333 276.453C30.0983 279.164 55.4311 267.35 71.7322 249.524C84.7673 235.269 89.1672 220.572 90.6357 214.961C92.4296 208.107 92.8636 202.647 93.0052 199.919C93.2927 194.383 92.8191 190.488 92.5751 188.762L7.99158 200.725ZM16.9526 198.966L96.6255 168.149L110.986 205.276L31.3136 236.094L-48.3592 266.911L-62.7202 229.784L16.9526 198.966ZM31.3136 236.094L69.0378 312.738L60.9384 316.725L23.2142 240.08L-14.51 163.436L-6.41058 159.449L31.3136 236.094Z" fill="#C6E700" mask="url(#path-39-inside-13_21_422)"/>
<mask id="path-41-inside-14_21_422" fill="white">
<path d="M34.4133 247V243C33.5313 243.167 31.5965 243.796 30.9133 244.979C30.23 246.163 32.9619 246.82 34.4133 247Z"/>
</mask>
<path d="M34.4133 243H101.413V162.153L21.9725 177.165L34.4133 243ZM34.4133 247L26.1451 313.488L101.413 322.848V247H34.4133ZM30.9133 244.979L88.937 278.479L30.9133 244.979ZM34.4133 243H-32.5867V247H34.4133H101.413V243H34.4133ZM34.4133 247L42.6814 180.512C44.7701 180.772 50.7897 181.575 58.3116 184.807C60.8732 185.908 73.1383 191.093 83.5009 204.184C89.5351 211.807 96.0848 223.647 97.5243 239.239C98.9947 255.167 94.5532 268.752 88.937 278.479L30.9133 244.979L-27.1104 211.479C-32.8975 221.503 -37.4031 235.366 -35.9084 251.557C-34.4446 267.413 -27.7822 279.5 -21.5653 287.353C-10.8373 300.906 2.07344 306.489 5.41399 307.924C14.4939 311.826 22.6051 313.048 26.1451 313.488L34.4133 247ZM30.9133 244.979L88.937 278.479C83.6602 287.619 77.2896 293.534 72.9256 296.95C68.4547 300.45 64.3703 302.672 61.5797 304.011C56.365 306.514 51.4039 307.975 46.854 308.835L34.4133 243L21.9725 177.165C16.5406 178.192 10.1712 180.05 3.59782 183.205C-1.30598 185.559 -16.6614 193.381 -27.1104 211.479L30.9133 244.979Z" fill="#6A38F3" mask="url(#path-41-inside-14_21_422)"/>
<path d="M343.688 611L351.05 691.5H192.56L199.923 611H343.688Z" stroke="black" stroke-width="89" stroke-linecap="round"/>
<mask id="path-44-inside-15_21_422" fill="white">
<path d="M254.805 22.0003C184.805 27.5 131.137 47.1135 119.305 133C194.315 118.214 324.805 16.5006 254.805 22.0003Z"/>
</mask>
<path d="M254.805 22.0003L259.74 84.8067L254.805 22.0003ZM119.305 133L56.8945 124.402L44.8417 211.891L131.489 194.811L119.305 133ZM254.805 22.0003L249.87 -40.8062C212.276 -37.8524 167.33 -30.645 129.446 -4.48766C88.0944 24.0644 64.6434 68.1545 56.8945 124.402L119.305 133L181.716 141.598C185.799 111.959 195.098 103.299 201.038 99.198C210.446 92.7019 227.334 87.3527 259.74 84.8067L254.805 22.0003ZM119.305 133L131.489 194.811C183.004 184.656 243.67 148.772 280.781 119.095C290.693 111.168 300.325 102.593 308.559 93.7591C315.77 86.0218 326.127 73.6943 332.286 58.1423C335.49 50.0521 339.361 36.6226 337.14 20.3933C334.622 1.9931 324.99 -14.3164 310.441 -25.4487C297.623 -35.257 284.157 -38.7001 275.323 -40.0737C266.062 -41.5139 257.251 -41.3861 249.87 -40.8062L254.805 22.0003L259.74 84.8067C261.109 84.6992 259.481 84.9771 255.963 84.4299C252.871 83.9492 243.706 82.1419 233.873 74.6174C222.309 65.7689 214.345 52.3912 212.304 37.476C210.56 24.7317 213.716 15.3404 215.139 11.7469C217.737 5.18816 220.266 3.68763 216.384 7.85275C213.525 10.9208 208.799 15.3239 202.087 20.6914C172.699 44.1927 130.616 66.5585 107.121 71.1897L119.305 133Z" fill="#6A38F3" mask="url(#path-44-inside-15_21_422)"/>
<mask id="path-46-inside-16_21_422" fill="white">
<path d="M279.794 22.2149C354.198 31.2539 394.917 37.2232 415.294 133.215C332.025 105.485 205.389 13.1759 279.794 22.2149Z"/>
</mask>
<path d="M279.794 22.2149L272.196 84.7551L279.794 22.2149ZM415.294 133.215L476.92 120.133L499.764 227.747L395.388 192.987L415.294 133.215ZM279.794 22.2149L287.391 -40.3253C320.284 -36.3293 365.71 -31.8983 402.645 -7.38155C444.591 20.4613 465.238 65.0985 476.92 120.133L415.294 133.215L353.667 146.297C344.973 105.34 335.072 98.9963 332.963 97.5968C325.844 92.8712 313.708 89.7981 272.196 84.7551L279.794 22.2149ZM415.294 133.215L395.388 192.987C345.835 176.485 287.139 142.664 249.806 113.708C240.174 106.238 230.689 98.1205 222.625 89.7428C216.126 82.9914 204.4 69.9529 198.343 52.4842C195.029 42.9267 191.393 26.1832 197.686 7.04607C204.557 -13.8487 219.587 -26.6903 233.112 -33.3189C254.497 -43.8001 277.085 -41.5773 287.391 -40.3253L279.794 22.2149L272.196 84.7551C263.901 83.7474 274.17 86.8776 288.564 79.8227C298.594 74.9072 311.461 64.4085 317.381 46.4054C322.723 30.1599 319.349 16.8567 317.39 11.2073C314.043 1.55472 309.4 -1.79686 313.402 2.36131C315.839 4.89326 320.274 8.90755 327.026 14.1443C355.227 36.0162 401.484 62.2142 435.199 73.4422L415.294 133.215Z" fill="#6A38F3" mask="url(#path-46-inside-16_21_422)"/>
<mask id="path-48-inside-17_21_422" fill="white">
<path d="M269.459 41.8242C249.6 77.2342 199.486 142.086 154.805 123.153C176.583 117.4 230.001 93.0795 269.459 41.8242Z"/>
</mask>
<path d="M297.348 56.4899C305.803 41.2856 300.331 22.1061 285.127 13.6514C269.922 5.19666 250.743 10.6683 242.288 25.8726L269.818 41.1813L297.348 56.4899ZM241.984 26.4163C233.475 41.59 238.877 60.7891 254.051 69.2987C269.225 77.8082 288.424 72.4058 296.933 57.2321L269.459 41.8242L241.984 26.4163ZM269.818 41.1813L242.288 25.8726C242.188 26.0523 242.087 26.2335 241.984 26.4163L269.459 41.8242L296.933 57.2321C297.072 56.9841 297.211 56.7367 297.348 56.4899L269.818 41.1813ZM269.459 41.8242L324.408 72.6403L219.538 3.39387L269.459 41.8242ZM154.805 123.153L138.714 62.2427L-39.3757 109.291L130.225 181.16L154.805 123.153ZM269.459 41.8242L214.51 11.0081C206.77 24.8103 193.346 43.5721 179.63 55.7408C172.828 61.7759 168.745 63.6748 167.878 63.9798C167.738 64.0291 169.009 63.5604 171.408 63.5476C173.993 63.5337 176.828 64.0623 179.386 65.1461L154.805 123.153L130.225 181.16C188.7 205.939 239.277 171.263 263.25 149.994C290.727 125.617 312.29 94.248 324.408 72.6403L269.459 41.8242ZM154.805 123.153L170.897 184.063C203.87 175.352 270.117 144.247 319.38 80.2545L269.459 41.8242L219.538 3.39387C189.886 41.9121 149.296 59.4472 138.714 62.2427L154.805 123.153Z" fill="#6A38F3" mask="url(#path-48-inside-17_21_422)"/>
<mask id="path-50-inside-18_21_422" fill="white">
<path d="M264.185 38.9086C282.135 71.0782 328.426 129.439 372.805 110C352.085 108.554 300.943 88.2001 264.185 38.9086Z"/>
</mask>
<path d="M236.292 53.5634C227.876 38.3377 233.396 19.1721 248.622 10.7559C263.848 2.33963 283.013 7.85979 291.429 23.0855L263.861 38.3244L236.292 53.5634ZM291.693 23.5601C300.17 38.7522 294.726 57.9395 279.534 66.4163C264.342 74.893 245.154 69.4491 236.678 54.257L264.185 38.9086L291.693 23.5601ZM263.861 38.3244L291.429 23.0855C291.516 23.2419 291.604 23.4001 291.693 23.5601L264.185 38.9086L236.678 54.257C236.548 54.0257 236.42 53.7944 236.292 53.5634L263.861 38.3244ZM264.185 38.9086L209.17 69.6059L314.689 1.24685L264.185 38.9086ZM372.805 110L377.192 47.1529L398.082 167.706L372.805 110ZM264.185 38.9086L319.2 8.2112C325.749 19.9474 337.309 35.7099 348.982 45.4651C354.661 50.2104 357.677 51.2554 357.646 51.2464C356.443 50.8875 352.079 50.2995 347.527 52.2935L372.805 110L398.082 167.706C342.228 192.173 293.345 163.174 268.186 142.15C241.133 119.542 220.572 90.0394 209.17 69.6059L264.185 38.9086ZM372.805 110L368.418 172.847C345.447 171.244 318.167 161.356 293.213 147.073C266.805 131.958 237.914 109.065 213.682 76.5703L264.185 38.9086L314.689 1.24685C327.215 18.0437 342.273 29.9737 355.806 37.7195C370.792 46.2977 379.443 47.3101 377.192 47.1529L372.805 110Z" fill="#6A38F3" mask="url(#path-50-inside-18_21_422)"/>
<mask id="path-52-inside-19_21_422" fill="white">
<path d="M262.902 27.9527C265.959 52.1559 279.77 99.4929 311.177 98.6603C299.049 92.5989 273.158 67.349 262.902 27.9527Z"/>
</mask>
<path d="M231.581 31.338C229.468 14.0697 241.755 -1.64123 259.023 -3.75341C276.291 -5.8656 292.002 6.42084 294.115 23.6891L262.848 27.5136L231.581 31.338ZM294.154 24.0055C296.334 41.2653 284.109 57.0244 266.849 59.2044C249.59 61.3844 233.831 49.1597 231.651 31.8999L262.902 27.9527L294.154 24.0055ZM262.848 27.5136L294.115 23.6891C294.127 23.7932 294.14 23.8986 294.154 24.0055L262.902 27.9527L231.651 31.8999C231.627 31.7123 231.604 31.525 231.581 31.338L262.848 27.5136ZM262.902 27.9527L200.399 35.8462L323.87 12.081L262.902 27.9527ZM311.177 98.6603L339.342 42.3068L312.846 161.638L311.177 98.6603ZM262.902 27.9527L325.406 20.0591C325.782 23.0408 326.598 27.4394 327.938 32.174C329.302 36.9962 330.837 40.8412 332.166 43.3689C333.675 46.2374 333.641 45.001 330.641 42.5534C328.924 41.1521 326.122 39.2762 322.193 37.8134C318.139 36.304 313.768 35.5695 309.507 35.6824L311.177 98.6603L312.846 161.638C259.841 163.043 231.624 122.886 220.65 102.021C208.31 78.5593 202.536 52.7732 200.399 35.8462L262.902 27.9527ZM311.177 98.6603L283.011 155.014C265.597 146.31 249.203 130.782 236.491 114.334C222.732 96.5315 209.477 72.7987 201.934 43.8244L262.902 27.9527L323.87 12.081C326.583 22.503 331.402 31.0933 336.184 37.2806C338.56 40.3541 340.637 42.4563 341.932 43.6126C343.666 45.1621 342.925 44.0978 339.342 42.3068L311.177 98.6603Z" fill="#6A38F3" mask="url(#path-52-inside-19_21_422)"/>
<path d="M12.3523 236.416C21.5858 240.405 26.055 242.676 34.2247 249.229L34.2489 249.248L34.2755 249.265L34.2776 249.265C34.2793 249.266 34.2817 249.269 34.2855 249.271C34.2933 249.276 34.3061 249.283 34.3221 249.293C34.3542 249.314 34.4019 249.345 34.463 249.386C34.5855 249.467 34.7607 249.587 34.9694 249.739C35.3884 250.044 35.9363 250.474 36.4575 250.98C36.9817 251.489 37.4603 252.056 37.763 252.631C38.0653 253.205 38.1688 253.741 38.0294 254.228C38.0093 254.298 37.927 254.433 37.5347 254.53C37.1523 254.625 36.6003 254.647 35.9041 254.598C34.5205 254.5 32.7198 254.128 30.9145 253.667C29.1155 253.208 27.3368 252.667 26.0064 252.241C25.3416 252.027 24.7894 251.843 24.4041 251.712C24.2115 251.646 24.0607 251.594 23.9582 251.558C23.9068 251.541 23.8673 251.526 23.841 251.517C23.8316 251.514 23.8238 251.511 23.8178 251.509L23.8167 251.509C23.8154 251.508 23.813 251.508 23.8104 251.507C23.8052 251.505 23.7974 251.501 23.7869 251.497C23.7657 251.488 23.734 251.476 23.6921 251.459C23.6081 251.425 23.4832 251.375 23.3221 251.309C23 251.177 22.5317 250.981 21.9489 250.73C20.7829 250.226 19.1595 249.499 17.3314 248.602C13.7908 246.865 9.51377 244.506 6.29745 241.926C6.31372 241.9 6.33058 241.872 6.34843 241.843C6.52338 241.561 6.77333 241.169 7.06997 240.73C7.66823 239.845 8.44097 238.799 9.17601 238.08C9.88422 237.387 10.7135 236.961 11.3753 236.709C11.7044 236.583 11.9875 236.502 12.1863 236.453C12.2511 236.437 12.3072 236.426 12.3523 236.416Z" fill="#C6E700" stroke="#B2D000"/>
<path d="M6.8228 244.119C12.9378 246.745 15.9019 248.246 21.3175 252.568L21.3417 252.588L21.3683 252.604L21.3674 252.604L21.3685 252.605C21.3695 252.605 21.3716 252.606 21.374 252.608C21.3788 252.611 21.3863 252.615 21.3962 252.622C21.4168 252.635 21.448 252.655 21.4878 252.681C21.5677 252.734 21.6831 252.812 21.8201 252.911C22.0954 253.11 22.4531 253.391 22.793 253.719C23.1362 254.051 23.4421 254.412 23.6319 254.772C23.8193 255.127 23.87 255.433 23.7965 255.697C23.8065 255.675 23.8056 255.735 23.5847 255.79C23.3544 255.847 23.0063 255.863 22.5481 255.831C21.6405 255.768 20.4511 255.526 19.2497 255.221C18.0546 254.919 16.8722 254.562 15.9869 254.28C15.5447 254.139 15.1775 254.018 14.9213 253.931C14.7934 253.888 14.6932 253.853 14.6252 253.83C14.5911 253.818 14.5645 253.809 14.5471 253.803C14.5387 253.8 14.5324 253.798 14.5281 253.796C14.526 253.795 14.5238 253.794 14.5228 253.794L14.5217 253.793L14.5207 253.794C14.5197 253.793 14.5186 253.793 14.5175 253.792C14.5035 253.787 14.4824 253.777 14.4546 253.766C14.399 253.744 14.3163 253.712 14.2095 253.668C13.9956 253.581 13.6842 253.452 13.2966 253.285C12.5212 252.953 11.4414 252.472 10.2256 251.879C7.91117 250.75 5.13274 249.23 3.01775 247.568C3.12983 247.389 3.27855 247.159 3.45094 246.906C3.84904 246.32 4.35771 245.637 4.83587 245.172C5.28717 244.732 5.81784 244.459 6.24602 244.296C6.45844 244.216 6.64133 244.164 6.76862 244.132C6.78803 244.128 6.80612 244.123 6.8228 244.119Z" fill="#C6E700" stroke="#B2D000"/>
<path d="M30.345 241.597C30.7848 241.483 31.4289 241.458 32.2709 241.535C33.9462 241.689 36.2462 242.232 38.8994 243.05C44.1281 244.662 50.6265 247.316 56.1869 250.026C57.3236 255.349 57.0095 265.471 53.9211 274.176L47.0622 271.776C46.7121 268.663 46.1997 265.5 46.2225 262.563C46.2461 259.54 46.8426 256.879 48.697 254.893L49.694 253.824L48.2508 254.058C43.306 254.86 38.1873 252.586 33.4018 250.281C31.4302 248.921 30.3298 247.552 29.8092 246.202C29.2878 244.849 29.3258 243.457 29.7377 242.013C29.7766 241.877 29.9062 241.71 30.345 241.597Z" fill="#C6E700" stroke="#B2D000"/>
<mask id="path-57-inside-20_21_422" fill="white">
<path d="M33.6338 244.073L34.2134 242.159C33.2534 241.956 31.1091 241.635 30.2126 241.982C29.3162 242.329 32.1199 243.521 33.6338 244.073Z"/>
</mask>
<path d="M34.2134 242.159L98.3382 261.576L119.48 191.754L48.115 176.617L34.2134 242.159ZM33.6338 244.073L10.657 307.01L77.2225 331.312L97.7586 263.49L33.6338 244.073ZM34.2134 242.159L-29.9114 222.743L-30.491 224.657L33.6338 244.073L97.7586 263.49L98.3382 261.576L34.2134 242.159ZM33.6338 244.073L56.6106 181.136C56.9464 181.259 59.1284 182.028 62.2796 183.69C63.2515 184.203 65.0536 185.187 67.2488 186.626C68.8781 187.695 73.6728 190.898 78.7695 196.271C80.8253 198.439 99.6078 217.438 96.7562 248.311C93.1821 287.006 62.0459 301.506 54.3844 304.47L30.2126 241.982L6.04093 179.494C-1.84474 182.544 -33.0894 197.157 -36.6759 235.986C-39.5398 266.993 -20.6735 286.146 -18.4573 288.483C-9.90525 297.5 -0.515009 302.066 -0.240917 302.211C4.46649 304.694 8.80728 306.335 10.657 307.01L33.6338 244.073ZM30.2126 241.982L54.3844 304.47C48.9708 306.564 44.3552 307.521 41.4596 307.996C38.411 308.497 35.8723 308.686 34.1199 308.766C30.7178 308.92 28.0962 308.752 26.7775 308.645C24.1744 308.434 22.0736 308.075 20.3118 307.701L34.2134 242.159L48.115 176.617C45.3932 176.04 41.7403 175.418 37.6009 175.083C35.5141 174.914 32.1283 174.718 28.042 174.904C25.0292 175.04 16.2646 175.539 6.04093 179.494L30.2126 241.982Z" fill="#6A38F3" mask="url(#path-57-inside-20_21_422)"/>
<mask id="path-59-inside-21_21_422" fill="white">
<path d="M35.6905 250L33.8055 252.348C34.6467 252.863 36.616 253.836 37.7645 253.615C38.9129 253.395 36.8603 251.113 35.6905 250Z"/>
</mask>
<path d="M33.8055 252.348L-18.4443 210.409L-66.1094 269.791L-1.14357 309.511L33.8055 252.348ZM35.6905 250L81.8779 201.464L29.071 151.212L-16.5594 208.06L35.6905 250ZM33.8055 252.348L86.0554 294.288L87.9404 291.94L35.6905 250L-16.5594 208.06L-18.4443 210.409L33.8055 252.348ZM35.6905 250L-10.4969 298.536C-11.2258 297.842 -14.0873 295.144 -17.2979 290.556C-17.6171 290.099 -24.9685 280.358 -27.762 265.467C-29.3303 257.106 -31.0652 238.379 -19.3706 218.924C-6.68734 197.825 12.9963 190.148 25.1265 187.818L37.7645 253.615L50.4024 319.413C62.8197 317.028 82.6904 309.232 95.4767 287.961C107.274 268.335 105.558 249.384 103.941 240.761C101.049 225.345 93.3265 214.923 92.4915 213.729C88.2493 207.667 83.7766 203.271 81.8779 201.464L35.6905 250ZM37.7645 253.615L25.1265 187.818C36.3653 185.659 45.3207 187.007 49.2875 187.761C53.8778 188.633 57.3742 189.835 59.3556 190.584C63.1644 192.023 66.2274 193.641 68.7546 195.186L33.8055 252.348L-1.14357 309.511C2.22481 311.57 6.69304 313.932 11.9839 315.931C13.8723 316.645 30.057 323.321 50.4024 319.413L37.7645 253.615Z" fill="#6A38F3" mask="url(#path-59-inside-21_21_422)"/>
<mask id="path-61-inside-22_21_422" fill="white">
<path d="M21.04 252L19.8055 254.18C20.6072 254.514 22.4474 255.103 23.3938 254.788C24.3403 254.472 22.219 252.798 21.04 252Z"/>
</mask>
<path d="M19.8055 254.18L-38.4928 221.16L-75.7502 286.94L-5.96996 316.023L19.8055 254.18ZM21.04 252L58.5844 196.508L-1.50395 155.854L-37.2583 218.98L21.04 252ZM23.3938 254.788L2.19902 191.228L2.19901 191.228L23.3938 254.788ZM19.8055 254.18L78.1038 287.199L79.3383 285.02L21.04 252L-37.2583 218.98L-38.4928 221.16L19.8055 254.18ZM21.04 252L-16.5044 307.493C-17.3227 306.939 -20.4839 304.817 -24.2907 301.022C-24.5577 300.756 -33.3301 292.641 -38.7489 278.881C-41.685 271.426 -47.4888 252.502 -38.7997 230.244C-29.2364 205.748 -9.40312 195.097 2.19902 191.228L23.3938 254.788L44.5887 318.347C56.4274 314.399 76.4015 303.627 86.0253 278.975C94.775 256.563 88.9515 237.45 85.9311 229.781C80.344 215.593 71.145 206.951 70.3186 206.127C65.393 201.216 60.5816 197.859 58.5844 196.508L21.04 252ZM23.3938 254.788L2.19901 191.228C13.0675 187.604 22.1146 187.765 25.9318 187.958C30.4629 188.187 33.9881 188.861 35.9767 189.3C39.8188 190.147 42.9738 191.249 45.581 192.336L19.8055 254.18L-5.96996 316.023C-2.56108 317.444 1.91485 319.008 7.11406 320.155C8.58474 320.479 25.2781 324.786 44.5887 318.347L23.3938 254.788Z" fill="#6A38F3" mask="url(#path-61-inside-22_21_422)"/>
<mask id="path-63-inside-23_21_422" fill="white">
<path d="M246.806 1128V1064.5H202.806L119.306 1083.5C87.5924 1102.57 91.3748 1118.24 100.306 1128H246.806Z"/>
</mask>
<path d="M246.806 1064.5H418.806V892.5H246.806V1064.5ZM246.806 1128V1300H418.806V1128H246.806ZM100.306 1128L-26.6127 1244.09L24.5295 1300H100.306V1128ZM119.306 1083.5L81.1435 915.787L54.2766 921.901L30.6638 936.101L119.306 1083.5ZM202.806 1064.5V892.5H183.484L164.643 896.787L202.806 1064.5ZM246.806 1064.5H74.8056V1128H246.806H418.806V1064.5H246.806ZM246.806 1128V956H100.306V1128V1300H246.806V1128ZM100.306 1128L227.224 1011.91C243.726 1029.96 279.108 1081.06 261.313 1151.42C253.675 1181.61 238.774 1202.2 228.183 1213.69C217.945 1224.8 209.449 1230 207.948 1230.9L119.306 1083.5L30.6638 936.101C1.3058 953.756 -53.5422 993.361 -72.1844 1067.06C-93.7842 1152.46 -52.0454 1216.28 -26.6127 1244.09L100.306 1128ZM119.306 1083.5L157.468 1251.21L240.968 1232.21L202.806 1064.5L164.643 896.787L81.1435 915.787L119.306 1083.5ZM202.806 1064.5V1236.5H246.806V1064.5V892.5H202.806V1064.5Z" fill="black" mask="url(#path-63-inside-23_21_422)"/>
<mask id="path-65-inside-24_21_422" fill="white">
<path d="M297.806 1128.5V1065H341.806L425.306 1084C457.019 1103.07 453.237 1118.74 444.306 1128.5H297.806Z"/>
</mask>
<path d="M297.806 1065H125.806V893H297.806V1065ZM297.806 1128.5V1300.5H125.806V1128.5H297.806ZM444.306 1128.5L571.224 1244.59L520.082 1300.5H444.306V1128.5ZM425.306 1084L463.468 916.287L490.335 922.401L513.948 936.601L425.306 1084ZM341.806 1065V893H361.128L379.968 897.287L341.806 1065ZM297.806 1065H469.806V1128.5H297.806H125.806V1065H297.806ZM297.806 1128.5V956.5H444.306V1128.5V1300.5H297.806V1128.5ZM444.306 1128.5L317.387 1012.41C300.886 1030.46 265.503 1081.56 283.299 1151.92C290.936 1182.11 305.838 1202.7 316.428 1214.19C326.666 1225.3 335.162 1230.5 336.663 1231.4L425.306 1084L513.948 936.601C543.306 954.256 598.154 993.861 616.796 1067.56C638.396 1152.96 596.657 1216.78 571.224 1244.59L444.306 1128.5ZM425.306 1084L387.143 1251.71L303.643 1232.71L341.806 1065L379.968 897.287L463.468 916.287L425.306 1084ZM341.806 1065V1237H297.806V1065V893H341.806V1065Z" fill="black" mask="url(#path-65-inside-24_21_422)"/>
<mask id="path-67-inside-25_21_422" fill="white">
<path d="M118.806 493.5C161.306 493.5 187.306 415.5 187.306 415.5L213.306 303L124.806 415.5L54.3058 273L23.3058 291.5C23.3058 291.5 76.3058 493.5 118.806 493.5Z"/>
</mask>
<path d="M187.306 415.5L386.529 481.908L389.674 472.475L391.913 462.787L187.306 415.5ZM23.3058 291.5L-84.3102 111.17L-219.888 192.08L-179.819 344.795L23.3058 291.5ZM213.306 303L417.913 350.287L48.2554 173.16L213.306 303ZM124.806 415.5L-63.4184 508.622L84.1295 806.857L289.856 545.34L124.806 415.5ZM54.3058 273L242.53 179.879L141.784 -23.7569L-53.3102 92.6704L54.3058 273ZM187.306 415.5C-11.9176 349.092 -11.9018 349.045 -11.8861 348.998C-11.8809 348.982 -11.8652 348.935 -11.8549 348.904C-11.8343 348.843 -11.814 348.782 -11.7939 348.722C-11.7538 348.603 -11.7149 348.487 -11.677 348.375C-11.6014 348.151 -11.5302 347.942 -11.4635 347.746C-11.3301 347.357 -11.2138 347.022 -11.1142 346.738C-10.916 346.174 -10.7794 345.801 -10.7007 345.59C-10.5548 345.198 -10.5841 345.298 -10.7496 345.688C-11.329 347.054 -11.4996 347.145 -10.6214 345.695C-10.5896 345.642 -4.66026 335.274 9.68486 322.807C24.3199 310.088 61.8016 283.5 118.806 283.5V493.5V703.5C197.06 703.5 253.729 667.162 285.192 639.818C316.366 612.726 336.764 582.858 348.608 563.305C361.299 542.355 370.284 522.946 375.908 509.687C378.844 502.765 381.178 496.771 382.912 492.113C383.785 489.769 384.521 487.72 385.121 486.014C385.422 485.159 385.689 484.386 385.923 483.701C386.041 483.358 386.15 483.037 386.251 482.738C386.301 482.589 386.35 482.445 386.396 482.306C386.419 482.237 386.442 482.169 386.464 482.103C386.475 482.07 386.492 482.021 386.497 482.004C386.513 481.956 386.529 481.908 187.306 415.5ZM118.806 493.5V283.5C158.729 283.5 190.346 295.493 210.993 306.712C231 317.584 244.196 329.523 251.085 336.42C258.339 343.684 262.808 349.613 264.776 352.353C265.891 353.906 266.661 355.077 267.103 355.77C267.551 356.472 267.77 356.852 267.771 356.853C267.775 356.86 267.624 356.598 267.324 356.035C267.027 355.475 266.623 354.692 266.117 353.668C265.088 351.583 263.803 348.836 262.291 345.381C259.219 338.362 255.815 329.816 252.224 320.049C244.993 300.374 238.433 279.656 233.536 263.192C231.142 255.143 229.264 248.512 228.024 244.045C227.407 241.819 226.955 240.154 226.683 239.144C226.547 238.64 226.457 238.301 226.414 238.14C226.392 238.06 226.383 238.024 226.386 238.034C226.387 238.039 226.391 238.056 226.399 238.084C226.403 238.099 226.407 238.116 226.412 238.136C226.415 238.146 226.42 238.163 226.421 238.168C226.426 238.186 226.431 238.205 23.3058 291.5C-179.819 344.795 -179.813 344.815 -179.808 344.837C-179.806 344.845 -179.8 344.867 -179.796 344.883C-179.787 344.915 -179.778 344.951 -179.768 344.989C-179.747 345.067 -179.724 345.156 -179.697 345.259C-179.643 345.463 -179.576 345.717 -179.495 346.019C-179.335 346.622 -179.123 347.418 -178.86 348.393C-178.335 350.342 -177.607 353.017 -176.692 356.315C-174.867 362.894 -172.272 372.045 -169.034 382.933C-162.665 404.344 -153.318 434.126 -141.988 464.951C-131.402 493.751 -115.892 532.367 -95.8622 567.022C-86.2404 583.67 -70.0552 609.22 -46.0842 633.221C-26.4015 652.928 30.0712 703.5 118.806 703.5V493.5ZM213.306 303L48.2554 173.16L-40.2446 285.66L124.806 415.5L289.856 545.34L378.356 432.84L213.306 303ZM124.806 415.5L313.03 322.379L242.53 179.879L54.3058 273L-133.918 366.122L-63.4184 508.622L124.806 415.5ZM187.306 415.5L391.913 462.787L417.913 350.287L213.306 303L8.69903 255.713L-17.301 368.213L187.306 415.5ZM54.3058 273L-53.3102 92.6704L-84.3102 111.17L23.3058 291.5L130.922 471.83L161.922 453.33L54.3058 273Z" fill="#C6E700" mask="url(#path-67-inside-25_21_422)"/>
<mask id="path-69-inside-26_21_422" fill="white">
<path d="M294.306 15.6301C279.916 12.1892 269.386 23.628 267.806 25.1301C268.472 22.4634 272.881 15.8617 279.806 12.6301C287.306 9.13016 290.806 11.7967 294.306 15.6301Z"/>
</mask>
<path d="M267.806 25.1301L238.702 17.854L213.667 117.993L288.476 46.8725L267.806 25.1301ZM294.306 15.6301L287.329 44.8075L382.306 67.5186L316.46 -4.598L294.306 15.6301ZM279.806 12.6301L267.119 -14.5555L279.806 12.6301ZM267.806 25.1301L288.476 46.8725C288.713 46.6473 288.916 46.4485 289.014 46.3514C289.116 46.2516 289.24 46.1291 289.292 46.077C289.434 45.9367 289.524 45.8486 289.614 45.7623C289.782 45.6003 289.944 45.4506 290.118 45.302C290.504 44.9709 290.824 44.7508 291.018 44.6408C291.214 44.5301 290.954 44.7172 290.246 44.8599C289.872 44.9352 289.399 44.9922 288.856 44.9878C288.305 44.9833 287.783 44.916 287.329 44.8075L294.306 15.6301L301.283 -13.5473C268.552 -21.3739 245.938 4.52636 247.135 3.38762L267.806 25.1301ZM267.806 25.1301L296.91 32.4062C296.446 34.2632 295.895 35.5813 295.611 36.2168C295.287 36.9393 295.007 37.4441 294.837 37.7331C294.504 38.2976 294.285 38.5598 294.216 38.64C294.183 38.6784 293.75 39.2288 292.492 39.8157L279.806 12.6301L267.119 -14.5555C258.937 -10.737 252.837 -5.26991 248.702 -0.456107C245.253 3.55899 240.651 10.0542 238.702 17.854L267.806 25.1301ZM279.806 12.6301L292.492 39.8157C291.97 40.0593 286.73 42.2567 279.547 39.9956C273.626 38.1317 270.79 34.3674 272.151 35.8582L294.306 15.6301L316.46 -4.598C314.321 -6.94061 307.985 -13.9548 297.564 -17.2354C285.882 -20.9131 275.141 -18.299 267.119 -14.5555L279.806 12.6301Z" fill="#6A38F3" mask="url(#path-69-inside-26_21_422)"/>
<mask id="path-71-inside-27_21_422" fill="white">
<path d="M256.045 3.49143C269.156 10.3477 269.584 25.8898 269.789 28.0601C271.037 25.6114 272.049 17.7379 268.95 10.7527C265.593 3.18757 261.202 2.89959 256.045 3.49143Z"/>
</mask>
<path d="M269.789 28.0601L296.514 41.6889L249.622 133.644L239.921 30.8793L269.789 28.0601ZM256.045 3.49143L242.143 30.0757L155.607 -15.1787L252.625 -26.3129L256.045 3.49143ZM268.95 10.7527L296.371 -1.41483L268.95 10.7527ZM269.789 28.0601L239.921 30.8793C239.891 30.5539 239.869 30.271 239.858 30.1328C239.847 29.9909 239.834 29.8172 239.828 29.7434C239.814 29.5443 239.804 29.4188 239.793 29.2949C239.772 29.0623 239.748 28.8427 239.715 28.6169C239.641 28.1137 239.545 27.7374 239.47 27.5267C239.395 27.3146 239.469 27.6269 239.909 28.1993C240.141 28.5014 240.46 28.855 240.873 29.2085C241.292 29.5674 241.729 29.8595 242.143 30.0757L256.045 3.49143L269.948 -23.0928C299.769 -7.49744 299.811 26.8863 299.656 25.2409L269.789 28.0601ZM269.789 28.0601L243.063 14.4313C242.194 16.1366 241.743 17.4922 241.54 18.1582C241.309 18.9155 241.189 19.4802 241.128 19.81C241.008 20.454 241.001 20.796 241 20.9017C241 20.9523 240.965 21.6518 241.528 22.9203L268.95 10.7527L296.371 -1.41483C300.034 6.83885 301.043 14.9676 300.999 21.3135C300.963 26.6064 300.167 34.5266 296.514 41.6889L269.789 28.0601ZM268.95 10.7527L241.528 22.9203C241.762 23.4468 244.27 28.5457 251.171 31.558C256.86 34.0413 261.471 33.0656 259.466 33.2958L256.045 3.49143L252.625 -26.3129C255.776 -26.6746 265.161 -27.8022 275.174 -23.4316C286.399 -18.532 292.781 -9.5065 296.371 -1.41483L268.95 10.7527Z" fill="#6A38F3" mask="url(#path-71-inside-27_21_422)"/>
<mask id="path-73-inside-28_21_422" fill="white">
<path d="M399.072 234C401.705 229.294 401.705 136.5 393.806 112L406.806 129C406.587 161.8 401.869 229 399.072 234Z"/>
</mask>
<path d="M393.806 112L311.003 138.695L462.915 59.1517L393.806 112ZM406.806 129L475.915 76.1517L494.003 99.8047L493.804 129.58L406.806 129ZM393.806 112L476.609 85.3044C481.922 101.784 483.944 121.087 485 133.149C486.278 147.755 487.005 163.728 487.362 178.29C487.72 192.907 487.732 207.179 487.442 218.601C487.301 224.177 487.067 229.979 486.662 235.171C486.471 237.631 486.146 241.22 485.556 245.126C485.268 247.031 484.739 250.221 483.814 253.999C483.303 256.086 481.021 265.71 474.996 276.479L399.072 234L323.147 191.521C319.766 197.563 317.851 202.718 316.913 205.448C315.87 208.486 315.202 211 314.807 212.612C314.036 215.761 313.656 218.16 313.51 219.121C313.205 221.138 313.143 222.228 313.188 221.652C313.257 220.773 313.393 218.362 313.498 214.194C313.703 206.128 313.714 194.788 313.414 182.555C313.113 170.268 312.523 158.154 311.663 148.324C311.232 143.402 310.791 139.733 310.415 137.283C309.936 134.165 309.905 135.292 311.003 138.695L393.806 112ZM399.072 234L323.147 191.521C319.364 198.283 317.427 203.958 316.748 206.008C315.867 208.669 315.335 210.754 315.077 211.815C314.792 212.988 314.615 213.856 314.53 214.291C314.439 214.756 314.392 215.035 314.385 215.078C314.375 215.135 314.436 214.772 314.554 213.874C314.668 213.015 314.807 211.878 314.967 210.443C315.631 204.493 316.396 195.837 317.132 185.65C318.622 165.045 319.716 142.143 319.808 128.419L406.806 129L493.804 129.58C493.677 148.656 492.302 175.755 490.679 198.2C489.859 209.538 488.906 220.67 487.892 229.75C487.4 234.161 486.783 239.093 486.012 243.717C485.639 245.951 485.045 249.245 484.157 252.899C483.912 253.908 481.518 264.822 474.996 276.479L399.072 234ZM406.806 129L337.697 181.848L324.697 164.848L393.806 112L462.915 59.1517L475.915 76.1517L406.806 129Z" fill="#6A38F3" mask="url(#path-73-inside-28_21_422)"/>
<circle cx="416.656" cy="165.5" r="7.5" fill="white"/>
<circle cx="121.656" cy="160.5" r="7.5" fill="white"/>
<mask id="path-77-inside-29_21_422" fill="white">
<path d="M142.806 237.5C134.806 232.794 134.806 140 158.806 115.5L119.306 132.5C119.971 165.3 134.306 232.5 142.806 237.5Z"/>
</mask>
<path d="M158.806 115.5L220.955 176.381L124.413 35.5867L158.806 115.5ZM119.306 132.5L84.9129 52.5867L31.1372 75.7307L32.3238 134.263L119.306 132.5ZM158.806 115.5L96.6567 54.6191C74.3904 77.3492 65.2068 105.98 60.9794 121.873C55.9366 140.831 53.3081 160.52 52.0463 177.46C50.7777 194.49 50.6715 211.75 51.8125 226.574C52.3562 233.638 53.3691 242.734 55.5529 251.957C56.5986 256.373 58.5798 263.739 62.3425 271.933C64.6501 276.957 74.4219 298.21 98.6952 312.488L142.806 237.5L186.917 162.512C199.733 170.051 207.657 179.197 211.878 184.871C216.284 190.793 218.973 196.067 220.465 199.314C223.36 205.619 224.544 210.485 224.871 211.866C225.618 215.018 225.506 215.901 225.299 213.221C224.94 208.556 224.834 200.205 225.566 190.385C226.304 180.476 227.675 172.079 229.132 166.6C229.844 163.926 230.203 163.377 229.746 164.357C229.47 164.948 227.077 170.132 220.955 176.381L158.806 115.5ZM142.806 237.5L186.917 162.512C194.447 166.941 199.864 171.708 203.328 175.151C206.877 178.679 209.449 181.892 211.14 184.183C214.398 188.597 216.27 192.157 216.979 193.555C218.408 196.374 218.671 197.537 218.03 195.647C216.897 192.308 215.082 185.818 213.091 176.755C211.175 168.037 209.445 158.529 208.188 149.736C206.874 140.537 206.355 134.029 206.288 130.737L119.306 132.5L32.3238 134.263C32.8207 158.774 37.8566 190.027 43.1446 214.095C45.8826 226.556 49.2869 239.854 53.2534 251.546C55.1619 257.172 57.9443 264.662 61.787 272.241C63.7028 276.019 66.7545 281.568 71.1574 287.532C74.826 292.5 83.6432 303.634 98.6952 312.488L142.806 237.5ZM119.306 132.5L153.699 212.413L193.199 195.413L158.806 115.5L124.413 35.5867L84.9129 52.5867L119.306 132.5Z" fill="#6A38F3" mask="url(#path-77-inside-29_21_422)"/>
<mask id="path-79-inside-30_21_422" fill="white">
<path d="M497.656 408.5C501.209 370.511 371.324 300.571 319.156 286L343.375 344.212C369.345 365.013 433.718 408.134 447.524 409.794C436.838 420.405 396.365 476.375 377.156 507.5L383.656 553C419.083 529.833 494.571 441.485 497.656 408.5Z"/>
</mask>
<path d="M447.524 409.794L442.452 451.99L355.27 441.509L417.578 379.636L447.524 409.794ZM450.156 408.5L492.608 410.508L492.608 410.508L450.156 408.5ZM447.524 409.794L452.597 367.597C450.775 367.378 441.692 366.269 431.225 371.234C425.177 374.103 418.831 378.96 414.127 386.333C409.517 393.558 407.97 400.865 407.703 406.492L450.156 408.5L492.608 410.508C492.316 416.684 490.634 424.451 485.783 432.053C480.839 439.802 474.148 444.952 467.655 448.032C456.298 453.419 445.926 452.407 442.452 451.99L447.524 409.794ZM450.156 408.5L407.703 406.492C407.629 408.059 406.121 433.065 430.306 445.718C441.282 451.459 451.572 450.879 457.161 449.896C462.739 448.915 466.817 447.024 468.794 446.017C472.755 444 475.32 441.849 475.882 441.381C476.814 440.604 477.378 440.043 477.471 439.951L447.524 409.794L417.578 379.636C418.186 379.032 423.108 373.896 430.216 370.276C432.416 369.155 436.691 367.192 442.436 366.181C448.193 365.169 458.622 364.602 469.707 370.401C494.112 383.168 492.705 408.465 492.608 410.508L450.156 408.5ZM319.156 286L240.677 318.651L173.442 157.046L342.023 204.134L319.156 286ZM497.656 408.5L582.287 416.416L497.656 408.5ZM383.656 553L430.176 624.14L318.398 697.234L299.51 565.021L383.656 553ZM343.375 344.212L290.235 410.553L273.254 396.951L264.896 376.863L343.375 344.212ZM447.524 409.794L457.67 325.401L632.032 346.364L507.417 470.108L447.524 409.794ZM377.156 507.5L293.01 519.521L288.658 489.051L304.823 462.858L377.156 507.5ZM319.156 286L342.023 204.134C378.566 214.341 431.691 239.768 474.301 266.357C495.984 279.888 519.178 296.309 537.806 314.392C547.059 323.375 557.695 335.161 566.22 349.509C574.309 363.122 585.061 386.748 582.287 416.416L497.656 408.5L413.025 400.584C411.139 420.754 418.61 433.885 420.072 436.345C421.97 439.54 422.634 439.515 419.395 436.372C413.039 430.201 401.167 421.104 384.302 410.58C349.815 389.059 311.914 372.231 296.289 367.866L319.156 286ZM497.656 408.5L582.287 416.416C579.543 445.749 564.558 472.05 556.182 485.847C545.491 503.457 532.149 521.572 518.713 538.083C493.684 568.839 459.239 605.135 430.176 624.14L383.656 553L337.136 481.86C337.136 481.86 337.69 481.493 338.833 480.612C339.947 479.753 341.394 478.58 343.168 477.054C346.753 473.97 351.092 469.947 356.004 465.056C365.87 455.232 376.748 443.202 386.856 430.781C397.105 418.186 405.428 406.581 410.866 397.624C413.588 393.141 414.886 390.465 415.303 389.5C416.105 387.647 413.827 392.016 413.025 400.584L497.656 408.5ZM343.375 344.212L396.515 277.87C406.49 285.861 426.503 300.12 446.085 312.751C455.748 318.984 464.042 324 469.978 327.258C471.387 328.031 472.496 328.613 473.321 329.03C474.175 329.461 474.507 329.605 474.391 329.554C474.375 329.547 473.235 329.038 471.245 328.374C469.75 327.876 464.764 326.254 457.67 325.401L447.524 409.794L437.379 494.186C422.272 492.37 409.926 486.918 405.91 485.151C399.653 482.397 393.524 479.218 388.179 476.285C377.351 470.341 365.34 462.965 353.937 455.61C331.388 441.066 306.229 423.364 290.235 410.553L343.375 344.212ZM447.524 409.794L507.417 470.108C509.237 468.301 507.88 469.519 501.92 477.213C497.08 483.46 491.018 491.607 484.476 500.677C471.169 519.126 457.57 539.048 449.49 552.142L377.156 507.5L304.823 462.858C315.951 444.827 332.194 421.201 346.598 401.231C359.07 383.938 376.254 360.777 387.631 349.479L447.524 409.794ZM383.656 553L299.51 565.021L293.01 519.521L377.156 507.5L461.302 495.479L467.802 540.979L383.656 553ZM319.156 286L397.635 253.349L421.854 311.561L343.375 344.212L264.896 376.863L240.677 318.651L319.156 286Z" fill="#C6E700" mask="url(#path-79-inside-30_21_422)"/>
<mask id="path-81-inside-31_21_422" fill="white">
<path d="M445.805 375V503L417.305 526H323.805V398L352.805 375H445.805Z"/>
</mask>
<path d="M445.805 503L573.293 660.974L648.805 600.035V503H445.805ZM445.805 375H648.805V172H445.805V375ZM352.805 375V172H282.077L226.661 215.95L352.805 375ZM323.805 398L197.661 238.95L120.805 299.905V398H323.805ZM323.805 526H120.805V729H323.805V526ZM417.305 526V729H489L544.793 683.974L417.305 526ZM445.805 503H648.805V375H445.805H242.805V503H445.805ZM445.805 375V172H352.805V375V578H445.805V375ZM352.805 375L226.661 215.95L197.661 238.95L323.805 398L449.948 557.05L478.948 534.05L352.805 375ZM323.805 398H120.805V526H323.805H526.805V398H323.805ZM323.805 526V729H417.305V526V323H323.805V526ZM417.305 526L544.793 683.974L573.293 660.974L445.805 503L318.317 345.026L289.817 368.026L417.305 526Z" fill="black" mask="url(#path-81-inside-31_21_422)"/>
<path d="M323.805 398L352.805 375H445.805M323.805 398V526H417.305M323.805 398H417.305M445.805 375V503L417.305 526M445.805 375L417.305 398M417.305 526V398" stroke="#6A38F3" stroke-width="2" stroke-linecap="round"/>
<mask id="path-84-inside-32_21_422" fill="white">
<path d="M358.805 508V398L380.305 375H401.305L378.305 398V508H369.305H358.805Z"/>
</mask>
<path d="M358.805 364.5C340.303 364.5 325.305 379.498 325.305 398C325.305 416.502 340.303 431.5 358.805 431.5V398V364.5ZM378.305 431.5C396.806 431.5 411.805 416.502 411.805 398C411.805 379.498 396.806 364.5 378.305 364.5V398V431.5ZM378.305 398V364.5H358.805V398V431.5H378.305V398ZM358.805 398L309.859 352.247L291.805 371.561V398H358.805ZM358.805 508H291.805V575H358.805V508ZM378.305 508V575H445.305V508H378.305ZM378.305 398L330.928 350.624L311.305 370.248V398H378.305ZM401.305 375L448.681 422.376L563.057 308H401.305V375ZM380.305 375V308H351.22L331.359 329.247L380.305 375ZM358.805 398H291.805V508H358.805H425.805V398H358.805ZM358.805 508V575H369.305V508V441H358.805V508ZM369.305 508V575H378.305V508V441H369.305V508ZM378.305 508H445.305V398H378.305H311.305V508H378.305ZM378.305 398L425.681 445.376L448.681 422.376L401.305 375L353.928 327.624L330.928 350.624L378.305 398ZM401.305 375V308H380.305V375V442H401.305V375ZM380.305 375L331.359 329.247L309.859 352.247L358.805 398L407.75 443.753L429.25 420.753L380.305 375Z" fill="#6A38F3" mask="url(#path-84-inside-32_21_422)"/>
<mask id="path-86-inside-33_21_422" fill="white">
<path d="M428.805 388.5H337.305L343.805 382.5H436.305V467L428.805 473.5V388.5Z"/>
</mask>
<path d="M422.87 381.082C418.773 384.359 418.109 390.338 421.386 394.435C424.664 398.532 430.642 399.196 434.739 395.918L428.805 388.5L422.87 381.082ZM442.239 389.918C446.336 386.641 447 380.662 443.723 376.565C440.445 372.468 434.467 371.804 430.37 375.082L436.305 382.5L442.239 389.918ZM428.805 388.5L434.739 395.918L442.239 389.918L436.305 382.5L430.37 375.082L422.87 381.082L428.805 388.5ZM337.305 388.5L324.417 374.539L288.709 407.5H337.305V388.5ZM428.805 388.5H447.805V369.5H428.805V388.5ZM436.305 382.5H455.305V363.5H436.305V382.5ZM343.805 382.5V363.5H336.376L330.917 368.539L343.805 382.5ZM428.805 473.5H409.805V515.109L441.248 487.858L428.805 473.5ZM436.305 467L448.748 481.358L455.305 475.676V467H436.305ZM337.305 388.5V407.5H428.805V388.5V369.5H337.305V388.5ZM436.305 382.5V363.5H343.805V382.5V401.5H436.305V382.5ZM343.805 382.5L330.917 368.539L324.417 374.539L337.305 388.5L350.192 402.461L356.692 396.461L343.805 382.5ZM428.805 388.5H409.805V473.5H428.805H447.805V388.5H428.805ZM428.805 473.5L441.248 487.858L448.748 481.358L436.305 467L423.861 452.642L416.361 459.142L428.805 473.5ZM436.305 467H455.305V382.5H436.305H417.305V467H436.305Z" fill="#6A38F3" mask="url(#path-86-inside-33_21_422)"/>
<mask id="path-88-inside-34_21_422" fill="white">
<path d="M383.656 553C419.083 529.833 494.571 441.485 497.656 408.5H450.156C450.479 401.66 399.471 471.343 377.156 507.5L383.656 553Z"/>
</mask>
<path d="M319.156 286L358.395 269.674L382.614 327.886L343.375 344.212L304.136 360.537L279.917 302.325L319.156 286ZM497.656 408.5V323.5H590.977L582.287 416.416L497.656 408.5ZM383.656 553L430.176 624.14L318.398 697.234L299.51 565.021L383.656 553ZM450.156 408.5V493.5H361.041L365.251 404.485L450.156 408.5ZM377.156 507.5L293.01 519.521L288.658 489.051L304.823 462.858L377.156 507.5ZM497.656 408.5L582.287 416.416C579.543 445.749 564.558 472.05 556.182 485.847C545.491 503.457 532.149 521.572 518.713 538.083C493.684 568.839 459.239 605.135 430.176 624.14L383.656 553L337.136 481.86C337.136 481.86 337.69 481.493 338.833 480.612C339.947 479.753 341.394 478.58 343.168 477.054C346.753 473.97 351.092 469.947 356.004 465.056C365.87 455.232 376.748 443.202 386.856 430.781C397.105 418.186 405.428 406.581 410.866 397.624C413.588 393.141 414.886 390.465 415.303 389.5C416.105 387.647 413.827 392.016 413.025 400.584L497.656 408.5ZM450.156 408.5L365.251 404.485C365.048 408.768 362.679 448.047 398.128 475.387C435.993 504.59 475.473 489.284 481.008 487.086C491.516 482.912 498.524 477.598 500.424 476.152C503.288 473.973 505.303 472.125 506.209 471.274C508.986 468.667 509.826 467.395 507.47 470.238C503.953 474.481 498.048 482.133 490.63 492.223C475.822 512.367 458.968 536.784 449.49 552.142L377.156 507.5L304.823 462.858C317.659 442.059 337.467 413.556 353.66 391.529C361.743 380.534 369.925 369.788 376.579 361.759C379.308 358.466 384.254 352.59 389.846 347.34C391.455 345.829 394.093 343.442 397.495 340.854C399.932 339 407.392 333.406 418.261 329.089C424.157 326.748 463.908 311.434 501.949 340.772C537.573 368.247 535.284 407.805 535.061 412.515L450.156 408.5ZM383.656 553L299.51 565.021L293.01 519.521L377.156 507.5L461.302 495.479L467.802 540.979L383.656 553ZM450.156 408.5V323.5H497.656V408.5V493.5H450.156V408.5Z" fill="#C6E700" mask="url(#path-88-inside-34_21_422)"/>
<path d="M341.195 513.295L377.656 507L384.117 552.795L350.084 559.362L341.195 513.295Z" fill="#C6E700"/>
<mask id="path-91-inside-35_21_422" fill="white">
<path d="M312.614 527.951L345.611 521.584L343.287 512.891L312.158 518.897C299.841 524.671 306.915 527.419 312.614 527.951Z"/>
</mask>
<path d="M345.611 521.584L428.14 499.529L451.807 588.094L361.796 605.462L345.611 521.584ZM312.614 527.951L328.799 611.829L316.819 614.141L304.67 613.006L312.614 527.951ZM312.158 518.897L275.903 441.547L285.532 437.034L295.973 435.019L312.158 518.897ZM343.287 512.891L327.102 429.013L405.264 413.931L425.816 490.836L343.287 512.891ZM345.611 521.584L361.796 605.462L328.799 611.829L312.614 527.951L296.429 444.073L329.426 437.706L345.611 521.584ZM312.614 527.951L304.67 613.006C298.882 612.466 290.623 611.233 281.47 608.191C277.212 606.777 250.977 598.553 233.612 571.335C222.561 554.012 216.979 531.584 221.492 508.063C225.521 487.063 236.127 472.793 243.024 465.208C255.707 451.257 270.218 444.212 275.903 441.547L312.158 518.897L348.414 596.247C349.285 595.839 351.619 594.705 354.728 592.699C357.524 590.895 363.301 586.89 369.439 580.138C375.356 573.63 385.427 560.35 389.282 540.255C393.621 517.639 388.229 496.03 377.647 479.445C361.224 453.702 337.056 446.626 335.343 446.057C328.734 443.861 323.496 443.171 320.558 442.896L312.614 527.951ZM312.158 518.897L295.973 435.019L327.102 429.013L343.287 512.891L359.472 596.769L328.343 602.775L312.158 518.897ZM343.287 512.891L425.816 490.836L428.14 499.529L345.611 521.584L263.081 543.639L260.758 534.946L343.287 512.891Z" fill="#C6E700" mask="url(#path-91-inside-35_21_422)"/>
<mask id="path-93-inside-36_21_422" fill="white">
<path d="M312.337 541.718L348.162 534.805L345.785 526.122L311.988 532.643C298.56 538.631 306.175 541.275 312.337 541.718Z"/>
</mask>
<path d="M348.162 534.805L430.556 512.254L454.904 601.209L364.347 618.683L348.162 534.805ZM312.337 541.718L328.522 625.596L317.454 627.731L306.21 626.923L312.337 541.718ZM311.988 532.643L277.197 454.623L286.163 450.625L295.803 448.765L311.988 532.643ZM345.785 526.122L329.6 442.244L407.292 427.252L428.18 503.57L345.785 526.122ZM348.162 534.805L364.347 618.683L328.522 625.596L312.337 541.718L296.152 457.84L331.977 450.927L348.162 534.805ZM312.337 541.718L306.21 626.923C300.633 626.522 292.597 625.533 283.657 622.899C279.176 621.579 272.33 619.228 264.726 615.035C257.822 611.228 244.794 602.92 234.162 587.274C221.734 568.986 215.576 544.714 221.183 519.492C226.031 497.684 237.833 483.515 244.589 476.642C257.337 463.673 271.603 457.118 277.197 454.623L311.988 532.643L346.779 610.663C347.351 610.408 349.38 609.483 352.214 607.763C354.7 606.255 360.3 602.647 366.433 596.408C372.112 590.631 383.317 577.463 387.963 556.566C393.367 532.254 387.401 508.801 375.471 491.245C365.337 476.332 353.112 468.669 347.23 465.426C340.649 461.796 335.043 459.927 331.933 459.011C325.733 457.185 320.959 456.692 318.463 456.512L312.337 541.718ZM311.988 532.643L295.803 448.765L329.6 442.244L345.785 526.122L361.97 610L328.173 616.521L311.988 532.643ZM345.785 526.122L428.18 503.57L430.556 512.254L348.162 534.805L265.767 557.357L263.39 548.673L345.785 526.122Z" fill="#C6E700" mask="url(#path-93-inside-36_21_422)"/>
<mask id="path-95-inside-37_21_422" fill="white">
<path d="M317.686 553.256L351.625 546.707L349.284 538.017L317.266 544.195C304.578 550.04 311.832 552.753 317.686 553.256Z"/>
</mask>
<path d="M351.625 546.707L434.11 524.486L458.003 613.181L367.81 630.585L351.625 546.707ZM317.686 553.256L333.871 637.134L322.211 639.384L310.379 638.368L317.686 553.256ZM317.266 544.195L281.523 466.607L290.921 462.277L301.081 460.317L317.266 544.195ZM349.284 538.017L333.099 454.139L411.104 439.087L431.769 515.796L349.284 538.017ZM351.625 546.707L367.81 630.585L333.871 637.134L317.686 553.256L301.501 469.378L335.44 462.829L351.625 546.707ZM317.686 553.256L310.379 638.368C304.666 637.878 296.483 636.731 287.4 633.833C283.516 632.594 256.767 624.699 238.957 597.374C227.45 579.719 221.678 556.675 226.546 532.58C230.848 511.29 241.865 497.042 248.727 489.695C261.444 476.08 275.877 469.208 281.523 466.607L317.266 544.195L353.009 621.783C353.778 621.429 356.009 620.369 359.026 618.463C361.717 616.762 367.44 612.895 373.585 606.316C379.434 600.053 389.895 586.799 394.013 566.416C398.698 543.227 393.116 521.002 382.089 504.084C372.541 489.435 360.9 481.571 354.87 478.033C348.282 474.167 342.6 472.109 339.334 471.067C332.86 469.002 327.779 468.383 324.993 468.144L317.686 553.256ZM317.266 544.195L301.081 460.317L333.099 454.139L349.284 538.017L365.469 621.895L333.451 628.073L317.266 544.195ZM349.284 538.017L431.769 515.796L434.11 524.486L351.625 546.707L269.14 568.927L266.799 560.237L349.284 538.017Z" fill="#C6E700" mask="url(#path-95-inside-37_21_422)"/>
<mask id="path-97-inside-38_21_422" fill="white">
<path d="M324.738 564.465L353.964 558.826L351.711 550.118L324.14 555.439C313.302 560.927 319.655 563.814 324.738 564.465Z"/>
</mask>
<path d="M353.964 558.826L436.667 537.435L459.438 625.475L370.149 642.704L353.964 558.826ZM324.738 564.465L340.923 648.343L327.47 650.939L313.881 649.198L324.738 564.465ZM324.14 555.439L285.549 479.227L296.215 473.826L307.955 471.561L324.14 555.439ZM351.711 550.118L335.526 466.24L414.321 451.036L434.415 528.728L351.711 550.118ZM353.964 558.826L370.149 642.704L340.923 648.343L324.738 564.465L308.553 480.587L337.779 474.948L353.964 558.826ZM324.738 564.465L313.881 649.198C307.735 648.41 299.158 646.76 289.754 643.067C284.002 640.808 260.127 631.285 244.683 604.814C235.405 588.911 230.568 568.958 233.755 547.806C236.712 528.185 245.579 513.966 252.456 505.44C264.853 490.071 279.608 482.236 285.549 479.227L324.14 555.439L362.732 631.65C363.254 631.386 374.738 625.969 385.438 612.705C391.466 605.232 399.877 591.987 402.698 573.264C405.75 553.009 401.098 533.876 392.255 518.718C377.68 493.736 355.669 485.399 352.199 484.037C345.076 481.24 339.2 480.195 335.595 479.733L324.738 564.465ZM324.14 555.439L307.955 471.561L335.526 466.24L351.711 550.118L367.896 633.997L340.325 639.317L324.14 555.439ZM351.711 550.118L434.415 528.728L436.667 537.435L353.964 558.826L271.26 580.217L269.008 571.509L351.711 550.118Z" fill="#C6E700" mask="url(#path-97-inside-38_21_422)"/>
<mask id="path-99-inside-39_21_422" fill="white">
<path d="M311.908 525.046L311.151 521.125C310.3 521.459 308.482 522.449 308.022 523.741C307.562 525.033 310.421 525.149 311.908 525.046Z"/>
</mask>
<path d="M311.151 521.125L376.938 508.431L361.679 429.354L286.699 458.746L311.151 521.125ZM311.908 525.046L316.557 591.884L392.028 586.635L377.694 512.352L311.908 525.046ZM308.022 523.741L244.905 501.263L244.905 501.263L308.022 523.741ZM311.151 521.125L245.365 533.819L246.121 537.74L311.908 525.046L377.694 512.352L376.938 508.431L311.151 521.125ZM311.908 525.046L307.259 458.207C309.275 458.067 315.195 457.702 323.046 459.356C325.627 459.899 338.662 462.532 351.407 473.275C358.851 479.55 367.81 490.009 372.301 505.36C376.897 521.07 374.947 535.527 371.139 546.219L308.022 523.741L244.905 501.263C240.983 512.278 239.021 527.021 243.692 542.985C248.257 558.589 257.375 569.268 265.046 575.734C278.244 586.858 292 589.756 295.424 590.478C304.961 592.487 313.054 592.128 316.557 591.884L311.908 525.046ZM308.022 523.741L371.139 546.219C367.57 556.242 362.321 563.226 358.685 567.321C354.944 571.534 351.364 574.425 348.911 576.213C344.321 579.559 339.81 581.855 335.604 583.504L311.151 521.125L286.699 458.746C281.641 460.729 275.796 463.687 269.969 467.934C265.73 471.025 251.943 481.501 244.905 501.263L308.022 523.741Z" fill="#6A38F3" mask="url(#path-99-inside-39_21_422)"/>
<mask id="path-101-inside-40_21_422" fill="white">
<path d="M310.552 539.54L309.795 535.62C308.944 535.954 307.126 536.944 306.666 538.236C306.206 539.528 309.065 539.644 310.552 539.54Z"/>
</mask>
<path d="M309.795 535.62L375.582 522.926L360.323 443.849L285.343 473.241L309.795 535.62ZM310.552 539.54L315.201 606.379L390.672 601.13L376.338 526.846L310.552 539.54ZM306.666 538.236L243.549 515.758L243.549 515.758L306.666 538.236ZM309.795 535.62L244.009 548.314L244.765 552.235L310.552 539.54L376.338 526.846L375.582 522.926L309.795 535.62ZM310.552 539.54L305.903 472.702C307.919 472.562 313.839 472.196 321.69 473.85C324.271 474.394 337.305 477.027 350.051 487.77C357.495 494.044 366.454 504.504 370.945 519.854C375.541 535.565 373.591 550.021 369.783 560.713L306.666 538.236L243.549 515.758C239.627 526.773 237.665 541.516 242.336 557.48C246.9 573.083 256.019 583.763 263.69 590.229C276.888 601.353 290.644 604.251 294.068 604.972C303.605 606.982 311.698 606.623 315.201 606.379L310.552 539.54ZM306.666 538.236L369.783 560.713C366.214 570.737 360.965 577.721 357.328 581.816C353.588 586.028 350.008 588.919 347.555 590.708C342.965 594.054 338.454 596.349 334.248 597.998L309.795 535.62L285.343 473.241C280.285 475.224 274.44 478.181 268.613 482.429C264.374 485.52 250.587 495.996 243.549 515.758L306.666 538.236Z" fill="#6A38F3" mask="url(#path-101-inside-40_21_422)"/>
<mask id="path-103-inside-41_21_422" fill="white">
<path d="M315.824 550.723L315.068 546.802C314.216 547.136 312.399 548.126 311.939 549.418C311.479 550.71 314.337 550.826 315.824 550.723Z"/>
</mask>
<path d="M315.068 546.802L380.854 534.108L365.596 455.032L290.616 484.424L315.068 546.802ZM315.824 550.723L320.473 617.562L395.944 612.312L381.611 538.029L315.824 550.723ZM311.939 549.418L248.822 526.941L248.822 526.941L311.939 549.418ZM315.068 546.802L249.281 559.496L250.038 563.417L315.824 550.723L381.611 538.029L380.854 534.108L315.068 546.802ZM315.824 550.723L311.176 483.885C313.191 483.744 319.112 483.379 326.963 485.033C329.543 485.577 342.578 488.21 355.323 498.952C362.767 505.227 371.726 515.686 376.217 531.037C380.813 546.747 378.863 561.204 375.056 571.896L311.939 549.418L248.822 526.941C244.899 537.956 242.938 552.699 247.608 568.662C252.173 584.266 261.292 594.946 268.962 601.411C282.161 612.536 295.917 615.434 299.34 616.155C308.877 618.164 316.97 617.805 320.473 617.562L315.824 550.723ZM311.939 549.418L375.056 571.896C371.486 581.919 366.237 588.904 362.601 592.999C358.86 597.211 355.28 600.102 352.827 601.89C348.238 605.237 343.727 607.532 339.52 609.181L315.068 546.802L290.616 484.424C285.558 486.406 279.712 489.364 273.886 493.612C269.646 496.703 255.86 507.178 248.822 526.941L311.939 549.418Z" fill="#6A38F3" mask="url(#path-103-inside-41_21_422)"/>
<mask id="path-105-inside-42_21_422" fill="white">
<path d="M324.289 562.306L323.532 558.386C322.681 558.719 320.863 559.71 320.403 561.002C319.943 562.294 322.802 562.41 324.289 562.306Z"/>
</mask>
<path d="M323.532 558.386L389.319 545.692L374.06 466.615L299.08 496.007L323.532 558.386ZM324.289 562.306L328.938 629.145L404.409 623.896L390.075 549.612L324.289 562.306ZM320.403 561.002L257.286 538.524L257.286 538.524L320.403 561.002ZM323.532 558.386L257.746 571.08L258.502 575L324.289 562.306L390.075 549.612L389.319 545.692L323.532 558.386ZM324.289 562.306L319.64 495.468C321.656 495.328 327.576 494.962 335.427 496.616C338.008 497.16 351.042 499.793 363.788 510.536C371.232 516.81 380.191 527.27 384.682 542.62C389.278 558.33 387.328 572.787 383.52 583.479L320.403 561.002L257.286 538.524C253.364 549.539 251.402 564.282 256.073 580.246C260.637 595.849 269.756 606.529 277.427 612.995C290.625 624.119 304.381 627.017 307.805 627.738C317.342 629.747 325.435 629.388 328.938 629.145L324.289 562.306ZM320.403 561.002L383.52 583.479C379.951 593.503 374.702 600.487 371.065 604.582C367.325 608.794 363.745 611.685 361.292 613.474C356.702 616.82 352.191 619.115 347.985 620.764L323.532 558.386L299.08 496.007C294.022 497.99 288.177 500.947 282.35 505.195C278.111 508.286 264.324 518.762 257.286 538.524L320.403 561.002Z" fill="#6A38F3" mask="url(#path-105-inside-42_21_422)"/>
</svg>
