<svg width="497" height="799" viewBox="0 0 497 799" fill="none" xmlns="http://www.w3.org/2000/svg">
<mask id="path-1-inside-1_33_35" fill="white">
<path d="M409.65 178C413.317 205.881 357.235 263.252 353.055 270.49H354.467C352.872 271.53 352.492 271.465 353.055 270.49H279.65L409.65 178Z"/>
</mask>
<path d="M409.65 178L522.676 163.133L497.964 -24.7398L343.563 85.1104L409.65 178ZM354.467 270.49L416.741 365.978L737.961 156.49H354.467V270.49ZM279.65 270.49L213.563 177.6L-77.2336 384.49H279.65V270.49ZM409.65 178L296.624 192.867C294.408 176.022 297.348 163.646 298.667 158.936C299.456 156.117 300.22 154.116 300.664 153.032C301.119 151.922 301.416 151.345 301.417 151.343C301.426 151.326 301.257 151.656 300.846 152.351C300.441 153.037 299.876 153.95 299.125 155.095C297.593 157.431 295.612 160.238 293.178 163.476C288.21 170.083 282.685 176.737 277.197 183.214C274.9 185.926 271.554 189.842 269.194 192.68C267.938 194.189 266.158 196.352 264.333 198.705C263.404 199.904 262.106 201.61 260.668 203.634C259.421 205.388 256.975 208.906 254.332 213.484L353.055 270.49L451.779 327.495C446.344 336.907 440.254 343.564 444.481 338.482C445.974 336.688 447.667 334.717 451.158 330.597C457.246 323.41 466.296 312.621 475.413 300.496C484.129 288.903 495.346 272.906 504.467 255.049C511.157 241.949 528.376 206.466 522.676 163.133L409.65 178ZM353.055 270.49L254.332 213.484C253.893 214.244 243.499 230.894 240.032 254.431C238.298 266.198 234.997 300.991 258.869 335.742C286.346 375.741 327.188 384.386 348.82 385.171C368.552 385.886 383.531 381.236 388.976 379.435C395.959 377.125 401.319 374.602 404.288 373.124C410.243 370.16 414.762 367.268 416.741 365.978L354.467 270.49L292.193 175.002C293.373 174.232 297.247 171.721 302.7 169.007C305.418 167.654 310.563 165.223 317.365 162.973C322.629 161.231 337.463 156.609 357.084 157.32C378.604 158.101 419.367 166.711 446.799 206.644C470.625 241.328 467.311 276.024 465.596 287.664C462.166 310.947 451.936 327.223 451.779 327.495L353.055 270.49ZM354.467 270.49V156.49H353.055V270.49V384.49H354.467V270.49ZM353.055 270.49V156.49H279.65V270.49V384.49H353.055V270.49ZM279.65 270.49L345.737 363.379L475.737 270.89L409.65 178L343.563 85.1104L213.563 177.6L279.65 270.49Z" fill="#6A38F3" mask="url(#path-1-inside-1_33_35)"/>
<mask id="path-3-inside-2_33_35" fill="white">
<path d="M393.828 256.28C379.045 242.483 394.634 211.741 404.276 198.094L379.251 232.974C371.784 248.831 385.858 255.118 393.828 256.28Z"/>
</mask>
<path d="M404.276 198.094L475.329 248.3L333.588 147.377L404.276 198.094ZM393.828 256.28L381.284 342.37L656.572 382.481L453.186 192.675L393.828 256.28ZM379.251 232.974L308.563 182.257L303.928 188.718L300.54 195.911L379.251 232.974ZM404.276 198.094L333.224 147.889C324.768 159.857 313.143 179.645 306.398 202.684C301.525 219.326 288.157 276.664 334.47 319.885L393.828 256.28L453.186 192.675C468.438 206.908 473.463 224.106 474.496 235.256C475.398 244.983 473.535 251.072 473.387 251.578C473.063 252.685 473.049 252.374 473.824 250.871C474.142 250.255 474.486 249.647 474.811 249.112C475.144 248.563 475.344 248.278 475.329 248.3L404.276 198.094ZM393.828 256.28L406.372 170.189C412.557 171.09 428.35 174.228 443.254 189.621C452.304 198.968 460.917 213.073 463.431 231.178C465.871 248.75 461.515 262.49 457.961 270.038L379.251 232.974L300.54 195.911C293.253 211.387 287.856 231.859 291.084 255.107C294.386 278.886 305.615 297.609 318.247 310.655C340.313 333.446 367.128 340.308 381.284 342.37L393.828 256.28ZM379.251 232.974L449.939 283.691L474.964 248.811L404.276 198.094L333.588 147.377L308.563 182.257L379.251 232.974Z" fill="#6A38F3" mask="url(#path-3-inside-2_33_35)"/>
<mask id="path-5-inside-3_33_35" fill="white">
<path d="M379.361 290.477C355.472 273.916 374.063 244.086 386.345 231.241L354.391 264.017C345.652 279.488 367.396 288.103 379.361 290.477Z"/>
</mask>
<path d="M386.345 231.241L449.227 291.364L324.049 170.51L386.345 231.241ZM379.361 290.477L362.428 375.814L428.928 218.978L379.361 290.477ZM354.391 264.017L292.096 203.286L284.204 211.381L278.643 221.225L354.391 264.017ZM386.345 231.241L323.463 171.117C311.725 183.394 294.124 206.007 285.668 235.454C281.164 251.139 277.926 273.561 284.601 298.52C291.759 325.284 308.234 347.03 329.794 361.976L379.361 290.477L428.928 218.978C438.543 225.644 448.384 237.451 452.693 253.563C456.519 267.869 454.217 278.925 452.91 283.477C452.187 285.995 451.434 287.728 450.994 288.654C450.541 289.605 450.206 290.147 450.091 290.326C449.989 290.487 449.892 290.668 449.227 291.364L386.345 231.241ZM379.361 290.477L396.293 205.141C396.403 205.163 402.397 205.864 411.351 212.588C416.309 216.311 428.921 227.014 435.543 247.087C443.322 270.665 438.175 292.586 430.14 306.809L354.391 264.017L278.643 221.225C266.238 243.183 260.532 271.983 270.304 301.602C278.919 327.715 296.075 343.622 306.873 351.729C327.506 367.222 350.353 373.418 362.428 375.814L379.361 290.477ZM354.391 264.017L416.687 324.748L448.64 291.972L386.345 231.241L324.049 170.51L292.096 203.286L354.391 264.017Z" fill="#6A38F3" mask="url(#path-5-inside-3_33_35)"/>
<mask id="path-7-inside-4_33_35" fill="white">
<path d="M355.604 269.006C355.624 268.999 355.639 268.998 355.65 269.004L355.604 269.006C354.729 269.317 345.234 282.593 355.65 295.004C345.447 289.039 308.637 282.954 297.65 270.5L355.604 269.006Z"/>
</mask>
<path d="M355.65 269.004L357.893 355.976L660.619 348.169L399.912 194.105L355.65 269.004ZM355.65 295.004L311.738 370.109L422.292 239.078L355.65 295.004ZM297.65 270.5L295.407 183.529L109.142 188.332L232.41 328.056L297.65 270.5ZM355.65 269.004L399.912 194.105C365.976 174.051 334.094 184.313 326.415 187.048L355.604 269.006L384.794 350.963C379.172 352.965 369.826 355.653 357.944 355.969C345.584 356.298 328.541 354.04 311.388 343.904L355.65 269.004ZM355.604 269.006L326.414 187.049C312.435 192.028 303.261 199.448 301.162 201.127C297.496 204.058 294.781 206.716 293.22 208.308C290.004 211.589 287.612 214.536 286.147 216.428C283.032 220.45 280.44 224.455 278.316 228.158C274.063 235.571 269.642 245.333 266.807 257.116C260.627 282.799 262.401 319.227 289.008 350.931L355.65 295.004L422.292 239.078C438.483 258.37 439.796 281.954 435.979 297.819C434.325 304.693 431.791 310.302 429.239 314.75C427.965 316.971 426.178 319.79 423.708 322.978C422.566 324.453 420.458 327.071 417.472 330.117C416.026 331.592 413.413 334.156 409.833 337.018C407.821 338.628 398.719 346.003 384.795 350.962L355.604 269.006ZM355.65 295.004L399.562 219.899C392.161 215.572 385.282 212.829 381.581 211.423C377.345 209.813 373.25 208.471 370.129 207.481C366.985 206.484 363.611 205.464 361.041 204.682C358.223 203.825 355.871 203.102 353.658 202.388C351.463 201.68 349.786 201.101 348.495 200.621C347.17 200.127 346.687 199.898 346.819 199.96C346.861 199.98 348.391 200.684 350.764 202.248C352.974 203.705 357.717 207.08 362.89 212.944L297.65 270.5L232.41 328.056C247.075 344.679 264.432 353.511 273.007 357.528C283.147 362.278 293.199 365.714 300.23 367.983C303.943 369.181 307.504 370.269 310.383 371.145C313.509 372.096 315.614 372.733 317.527 373.34C319.464 373.954 320.005 374.163 319.778 374.077C319.607 374.012 318.848 373.721 317.692 373.2C316.612 372.714 314.467 371.705 311.738 370.109L355.65 295.004ZM297.65 270.5L299.893 357.471L357.847 355.977L355.604 269.006L353.362 182.035L295.407 183.529L297.65 270.5ZM355.604 269.006L357.847 355.977L357.893 355.976L355.65 269.004L353.407 182.033L353.362 182.035L355.604 269.006Z" fill="#6A38F3" mask="url(#path-7-inside-4_33_35)"/>
<mask id="path-9-inside-5_33_35" fill="white">
<path d="M125.885 178C122.217 205.881 178.3 263.252 182.479 270.49H181.068C182.663 271.53 183.043 271.465 182.479 270.49H255.885L125.885 178Z"/>
</mask>
<path d="M125.885 178L12.8584 163.133L37.5707 -24.7398L191.972 85.1104L125.885 178ZM181.068 270.49L118.794 365.978L-202.426 156.49H181.068V270.49ZM255.885 270.49L321.972 177.6L612.768 384.49H255.885V270.49ZM125.885 178L238.911 192.867C241.127 176.022 238.187 163.646 236.868 158.936C236.078 156.117 235.315 154.116 234.871 153.032C234.415 151.922 234.118 151.345 234.117 151.343C234.109 151.326 234.278 151.656 234.688 152.351C235.094 153.037 235.659 153.95 236.409 155.095C237.942 157.431 239.922 160.238 242.357 163.476C247.325 170.083 252.85 176.737 258.338 183.214C260.635 185.926 263.981 189.842 266.341 192.68C267.597 194.189 269.377 196.352 271.201 198.705C272.131 199.904 273.429 201.61 274.867 203.634C276.114 205.388 278.559 208.906 281.203 213.484L182.479 270.49L83.7558 327.495C89.1905 336.907 95.2807 343.564 91.0535 338.482C89.5611 336.688 87.8681 334.717 84.3771 330.597C78.2887 323.41 69.239 312.621 60.1218 300.496C51.4055 288.903 40.1885 272.906 31.0681 255.049C24.3773 241.949 7.15836 206.466 12.8584 163.133L125.885 178ZM182.479 270.49L281.203 213.484C281.642 214.244 292.035 230.894 295.503 254.431C297.237 266.198 300.538 300.991 276.666 335.742C249.188 375.741 208.347 384.386 186.715 385.171C166.982 385.886 152.003 381.236 146.559 379.435C139.576 377.125 134.216 374.602 131.246 373.124C125.291 370.16 120.772 367.268 118.794 365.978L181.068 270.49L243.342 175.002C242.161 174.232 238.288 171.721 232.835 169.007C230.116 167.654 224.972 165.223 218.169 162.973C212.905 161.231 198.072 156.609 178.451 157.32C156.931 158.101 116.168 166.711 88.7358 206.644C64.9097 241.328 68.2232 276.024 69.9383 287.664C73.3686 310.947 83.5983 327.223 83.7558 327.495L182.479 270.49ZM181.068 270.49V156.49H182.479V270.49V384.49H181.068V270.49ZM182.479 270.49V156.49H255.885V270.49V384.49H182.479V270.49ZM255.885 270.49L189.798 363.379L59.7976 270.89L125.885 178L191.972 85.1104L321.972 177.6L255.885 270.49Z" fill="#6A38F3" mask="url(#path-9-inside-5_33_35)"/>
<mask id="path-11-inside-6_33_35" fill="white">
<path d="M141.707 256.28C156.49 242.483 140.901 211.741 131.258 198.094L156.284 232.974C163.751 248.831 149.677 255.118 141.707 256.28Z"/>
</mask>
<path d="M131.258 198.094L60.206 248.3L201.946 147.377L131.258 198.094ZM141.707 256.28L154.25 342.37L-121.037 382.481L82.3483 192.675L141.707 256.28ZM156.284 232.974L226.972 182.257L231.607 188.718L234.994 195.911L156.284 232.974ZM131.258 198.094L202.311 147.889C210.767 159.857 222.391 179.645 229.137 202.684C234.01 219.326 247.378 276.664 201.065 319.885L141.707 256.28L82.3483 192.675C67.097 206.908 62.0719 224.106 61.0382 235.256C60.1366 244.983 61.9995 251.072 62.1476 251.578C62.4717 252.685 62.4854 252.374 61.7103 250.871C61.3929 250.255 61.0489 249.647 60.724 249.112C60.3908 248.563 60.1905 248.278 60.206 248.3L131.258 198.094ZM141.707 256.28L129.163 170.189C122.977 171.09 107.184 174.228 92.2805 189.621C83.2305 198.968 74.6174 213.073 72.1037 231.178C69.664 248.75 74.0196 262.49 77.5737 270.038L156.284 232.974L234.994 195.911C242.282 211.387 247.678 231.859 244.451 255.107C241.149 278.886 229.919 297.609 217.288 310.655C195.221 333.446 168.406 340.308 154.25 342.37L141.707 256.28ZM156.284 232.974L85.5961 283.691L60.5705 248.811L131.258 198.094L201.946 147.377L226.972 182.257L156.284 232.974Z" fill="#6A38F3" mask="url(#path-11-inside-6_33_35)"/>
<mask id="path-13-inside-7_33_35" fill="white">
<path d="M156.174 290.477C180.063 273.916 161.471 244.086 149.19 231.241L181.143 264.017C189.883 279.488 168.139 288.103 156.174 290.477Z"/>
</mask>
<path d="M149.19 231.241L86.3076 291.364L211.485 170.51L149.19 231.241ZM156.174 290.477L173.107 375.814L106.607 218.978L156.174 290.477ZM181.143 264.017L243.439 203.286L251.331 211.381L256.892 221.225L181.143 264.017ZM149.19 231.241L212.072 171.117C223.81 183.394 241.411 206.007 249.867 235.454C254.371 251.139 257.609 273.561 250.934 298.52C243.776 325.284 227.301 347.03 205.741 361.976L156.174 290.477L106.607 218.978C96.9916 225.644 87.151 237.451 82.8419 253.563C79.0158 267.869 81.3179 278.925 82.6249 283.477C83.3478 285.995 84.1003 287.728 84.5408 288.654C84.9936 289.605 85.3289 290.147 85.4433 290.326C85.5454 290.487 85.6425 290.668 86.3076 291.364L149.19 231.241ZM156.174 290.477L139.242 205.141C139.131 205.163 133.138 205.864 124.184 212.588C119.225 216.311 106.614 227.014 99.9915 247.087C92.2129 270.665 97.3599 292.586 105.395 306.809L181.143 264.017L256.892 221.225C269.296 243.183 275.003 271.983 265.231 301.602C256.616 327.715 239.459 343.622 228.662 351.729C208.029 367.222 185.181 373.418 173.107 375.814L156.174 290.477ZM181.143 264.017L118.848 324.748L86.8942 291.972L149.19 231.241L211.485 170.51L243.439 203.286L181.143 264.017Z" fill="#6A38F3" mask="url(#path-13-inside-7_33_35)"/>
<mask id="path-15-inside-8_33_35" fill="white">
<path d="M179.93 269.006C179.911 268.999 179.895 268.998 179.885 269.004L179.93 269.006C180.806 269.317 190.301 282.593 179.885 295.004C190.087 289.039 226.898 282.954 237.885 270.5L179.93 269.006Z"/>
</mask>
<path d="M179.885 269.004L177.642 355.976L-125.084 348.169L135.623 194.105L179.885 269.004ZM179.885 295.004L223.796 370.109L113.243 239.078L179.885 295.004ZM237.885 270.5L240.127 183.529L426.392 188.332L303.125 328.056L237.885 270.5ZM179.885 269.004L135.623 194.105C169.559 174.051 201.441 184.313 209.12 187.048L179.93 269.006L150.741 350.963C156.363 352.965 165.709 355.653 177.591 355.969C189.951 356.298 206.994 354.04 224.146 343.904L179.885 269.004ZM179.93 269.006L209.121 187.049C223.1 192.028 232.273 199.448 234.373 201.127C238.038 204.058 240.753 206.716 242.314 208.308C245.531 211.589 247.922 214.536 249.388 216.428C252.503 220.45 255.094 224.455 257.219 228.158C261.472 235.571 265.893 245.333 268.728 257.116C274.908 282.799 273.134 319.227 246.527 350.931L179.885 295.004L113.243 239.078C97.0518 258.37 95.7385 281.954 99.5557 297.819C101.21 304.693 103.744 310.302 106.296 314.75C107.57 316.971 109.357 319.79 111.826 322.978C112.969 324.453 115.076 327.071 118.063 330.117C119.509 331.592 122.122 334.156 125.701 337.018C127.714 338.628 136.816 346.003 150.74 350.962L179.93 269.006ZM179.885 295.004L135.973 219.899C143.374 215.572 150.253 212.829 153.954 211.423C158.19 209.813 162.285 208.471 165.405 207.481C168.55 206.484 171.924 205.464 174.494 204.682C177.312 203.825 179.664 203.102 181.877 202.388C184.072 201.68 185.749 201.101 187.04 200.621C188.365 200.127 188.848 199.898 188.716 199.96C188.673 199.98 187.143 200.684 184.771 202.248C182.561 203.705 177.818 207.08 172.644 212.944L237.885 270.5L303.125 328.056C288.46 344.679 271.103 353.511 262.528 357.528C252.388 362.278 242.336 365.714 235.304 367.983C231.592 369.181 228.03 370.269 225.152 371.145C222.026 372.096 219.92 372.733 218.007 373.34C216.071 373.954 215.53 374.163 215.757 374.077C215.928 374.012 216.687 373.721 217.843 373.2C218.922 372.714 221.067 371.705 223.796 370.109L179.885 295.004ZM237.885 270.5L235.642 357.471L177.688 355.977L179.93 269.006L182.173 182.035L240.127 183.529L237.885 270.5ZM179.93 269.006L177.688 355.977L177.642 355.976L179.885 269.004L182.127 182.033L182.173 182.035L179.93 269.006Z" fill="#6A38F3" mask="url(#path-15-inside-8_33_35)"/>
<ellipse cx="267.17" cy="150.611" rx="146.684" ry="121.394" fill="#C6E700"/>
<path d="M308.196 164.099V139.37" stroke="black" stroke-width="10.1162" stroke-linecap="round"/>
<mask id="path-19-inside-9_33_35" fill="white">
<path d="M98.9356 137.25C107.339 119.03 127.132 126.024 134.804 135.428L127.312 165.234C115.135 161.078 90.5322 155.47 98.9356 137.25Z"/>
</mask>
<path d="M134.804 135.428L229.49 58.1802L268.274 105.719L253.316 165.219L134.804 135.428ZM98.9356 137.25L-12.0296 86.0702L-12.0296 86.0701L98.9356 137.25ZM127.312 165.234L245.824 195.025L213.464 323.756L87.8422 280.884L127.312 165.234ZM134.804 135.428L40.1181 212.676C55.2808 231.261 77.5658 245.029 105.839 247.656C122.423 249.196 144.465 246.976 166.494 234.699C189.098 222.102 202.775 203.879 209.901 188.43L98.9356 137.25L-12.0296 86.0701C-0.702364 61.5112 18.6002 37.3309 47.5185 21.2146C75.8623 5.41849 104.908 2.11778 128.449 4.30505C170.638 8.22486 206.656 30.1909 229.49 58.1802L134.804 135.428ZM98.9356 137.25L209.901 188.43C219.166 168.343 225.228 136.052 210.894 101.685C198.635 72.2922 178.043 57.8796 170.843 53.3143C166.412 50.5048 162.866 48.8023 161.011 47.9659C159.089 47.0989 157.871 46.6663 157.828 46.6509C157.806 46.6428 158.169 46.773 159.71 47.2694C160.517 47.5292 163.933 48.6125 166.781 49.5844L127.312 165.234L87.8422 280.884C94.3148 283.093 77.4215 277.455 75.2894 276.69C68.3982 274.218 54.572 268.978 39.9684 259.718C26.1462 250.954 0.218277 231.463 -14.671 195.765C-31.6347 155.092 -25.4964 115.268 -12.0296 86.0702L98.9356 137.25ZM127.312 165.234L8.79931 135.443L16.2919 105.637L134.804 135.428L253.316 165.219L245.824 195.025L127.312 165.234Z" fill="#C6E700" mask="url(#path-19-inside-9_33_35)"/>
<path d="M111.358 139.798L125.832 150.736L115.485 153.282" stroke="black" stroke-width="1.17288" stroke-linecap="round"/>
<mask id="path-22-inside-10_33_35" fill="white">
<path d="M429.765 139.25C421.362 121.03 401.568 128.024 393.897 137.428L401.389 167.234C413.566 163.078 438.169 157.47 429.765 139.25Z"/>
</mask>
<path d="M393.897 137.428L299.211 60.1802L260.427 107.719L275.384 167.219L393.897 137.428ZM429.765 139.25L540.731 88.0702L540.731 88.0701L429.765 139.25ZM401.389 167.234L282.877 197.025L315.237 325.756L440.859 282.884L401.389 167.234ZM393.897 137.428L488.583 214.676C473.42 233.261 451.135 247.029 422.862 249.656C406.278 251.196 384.236 248.976 362.207 236.699C339.603 224.102 325.926 205.879 318.8 190.43L429.765 139.25L540.731 88.0701C529.403 63.5112 510.101 39.3309 481.182 23.2146C452.839 7.41849 423.793 4.11778 400.252 6.30505C358.063 10.2249 322.045 32.1909 299.211 60.1802L393.897 137.428ZM429.765 139.25L318.8 190.43C309.535 170.343 303.473 138.052 317.806 103.685C330.066 74.2922 350.658 59.8796 357.858 55.3143C362.288 52.5048 365.835 50.8023 367.689 49.9659C369.612 49.0989 370.83 48.6663 370.873 48.6509C370.895 48.6428 370.532 48.773 368.991 49.2694C368.184 49.5292 364.768 50.6125 361.92 51.5844L401.389 167.234L440.859 282.884C434.386 285.093 451.279 279.455 453.412 278.69C460.303 276.218 474.129 270.978 488.733 261.718C502.555 252.954 528.483 233.463 543.372 197.765C560.336 157.092 554.197 117.268 540.731 88.0702L429.765 139.25ZM401.389 167.234L519.902 137.443L512.409 107.637L393.897 137.428L275.384 167.219L282.877 197.025L401.389 167.234Z" fill="#C6E700" mask="url(#path-22-inside-10_33_35)"/>
<path d="M417.342 141.798L402.869 152.736L413.216 155.282" stroke="black" stroke-width="1.17288" stroke-linecap="round"/>
<path d="M218.649 159.26C222.071 136.561 232.398 113.745 237.649 159.26" stroke="black" stroke-width="3" stroke-linecap="round"/>
<path d="M275.665 173.164C252.665 157.664 237.665 181.664 270.665 185.164C240.665 179.664 245.165 204.164 269.165 199.164" stroke="black" stroke-width="3" stroke-linecap="round"/>
<path d="M312.692 120.397C316.656 119.835 325.125 120.734 327.294 128.827" stroke="black" stroke-width="2.24803" stroke-linecap="round"/>
<path d="M226.133 121.521C222.169 120.959 213.7 121.858 211.531 129.951" stroke="black" stroke-width="2.24803" stroke-linecap="round"/>
<path d="M307.148 135.5L307.648 128M310.148 135.5L312.148 128M312.148 137.5L316.148 130.5" stroke="black" stroke-width="3" stroke-linecap="round"/>
<path d="M271.126 397.959C271.36 398.873 271.595 399.803 271.828 400.751C277.375 423.325 280.993 448.258 283.594 473.819H255.736C258.45 453.502 262.218 432.266 267.256 412.205C268.523 407.157 269.819 402.409 271.126 397.959Z" stroke="#6A38F3" stroke-width="186.587" stroke-linecap="round"/>
<path d="M319.815 348.003C318.198 348.053 316.948 349.403 316.998 351.003C317.015 351.403 317.098 351.786 317.265 352.169L317.748 353.236C317.815 353.453 317.698 353.686 317.465 353.753C317.315 353.836 317.148 353.753 317.032 353.619L316.332 352.703C315.782 352.003 314.948 351.569 314.065 351.553C312.448 351.519 311.115 352.803 311.082 354.403C311.065 355.103 311.298 355.769 311.732 356.336L312.432 357.169H312.448C312.582 357.386 312.532 357.653 312.348 357.786C312.198 357.903 311.998 357.903 311.865 357.786L310.982 357.086C310.415 356.653 309.732 356.419 309.048 356.436C307.448 356.469 306.165 357.803 306.198 359.419C306.215 360.303 306.648 361.136 307.348 361.686L308.298 362.419C308.482 362.586 308.482 362.853 308.282 363.003C308.227 363.059 308.156 363.098 308.078 363.113C308.001 363.128 307.92 363.118 307.848 363.086H307.832L306.815 362.619C306.432 362.469 306.048 362.369 305.648 362.353C304.048 362.303 302.698 363.569 302.648 365.186C302.648 366.386 303.315 367.486 304.415 367.953L323.398 376.403L331.048 368.753L322.598 349.769C322.132 348.653 320.982 347.953 319.815 348.003ZM321.198 354.836C321.898 354.819 322.532 355.219 322.798 355.853L327.882 367.253L321.298 360.686L319.748 357.169C319.248 356.119 320.015 354.869 321.198 354.836ZM315.732 359.419C316.182 359.419 316.598 359.586 316.915 359.919L324.932 367.936C325.598 368.569 325.615 369.619 324.982 370.286C324.315 370.953 323.282 370.969 322.582 370.286L314.565 362.269C314.407 362.118 314.28 361.937 314.192 361.737C314.104 361.536 314.058 361.32 314.055 361.101C314.052 360.882 314.092 360.665 314.174 360.462C314.256 360.259 314.378 360.075 314.532 359.919C314.848 359.586 315.282 359.419 315.732 359.419ZM311.198 364.953C311.415 364.953 311.648 365.019 311.815 365.103L315.365 366.669L321.932 373.236L310.498 368.153C308.798 367.419 309.365 364.903 311.198 364.953ZM333.115 371.403L326.048 378.469L327.465 379.886C328.732 381.136 330.565 381.619 332.282 381.169C333.127 380.939 333.898 380.492 334.518 379.872C335.138 379.252 335.585 378.481 335.815 377.636C336.265 375.919 335.782 374.086 334.532 372.819L333.115 371.403Z" fill="white"/>
<path d="M192.851 575H253.015C262.066 719.487 252.628 838.765 245.893 1065H202.393C195.346 873.643 181.76 766.357 192.851 575Z" fill="#C6E700"/>
<path d="M288.094 575H348.259C357.309 719.487 347.872 838.765 341.136 1065H297.636C290.589 873.643 277.004 766.357 288.094 575Z" fill="#C6E700"/>
<mask id="path-34-inside-11_33_35" fill="white">
<path d="M243.149 267C251.816 289.833 275.149 321.8 299.149 267H243.149Z"/>
</mask>
<path d="M243.149 267V-275H-542.303L-263.577 459.334L243.149 267ZM299.149 267L795.623 484.434L1128.22 -275H299.149V267ZM243.149 267L-263.577 459.334C-249.317 496.904 -226.532 546.071 -190.473 597.104C-161.571 638.009 -82.7588 740.171 62.8314 798.835C255.481 876.462 461.706 837.711 610.51 724.04C723.683 637.588 775.361 530.699 795.623 484.434L299.149 267L-197.325 49.5661C-189.063 30.7013 -149.301 -59.6343 -47.5243 -137.381C9.85486 -181.213 90.8798 -223.707 193.225 -238.969C296.835 -254.421 391.67 -237.354 467.967 -206.61C603.64 -151.942 673.494 -58.6277 694.834 -28.4262C723.33 11.9044 739.949 48.5131 749.876 74.6659L243.149 267ZM299.149 267V-275H243.149V267V809H299.149V267Z" fill="#C6E700" mask="url(#path-34-inside-11_33_35)"/>
<path d="M39.649 229L55.149 277.5L22.1497 292.5C21.6497 285 7.09237 259.584 2.64938 249C-1.79361 238.417 39.649 229 39.649 229Z" fill="#C6E700"/>
<mask id="path-37-inside-12_33_35" fill="white">
<path d="M21.5223 199.104L32.7416 237.28L41.1572 234.024L30.573 198.009C22.9644 183.969 21.2279 192.409 21.5223 199.104Z"/>
</mask>
<path d="M32.7416 237.28L63.5637 316.951L-23.0364 350.454L-49.2177 261.366L32.7416 237.28ZM21.5223 199.104L-60.4369 223.19L-63.3643 213.229L-63.8205 202.857L21.5223 199.104ZM30.573 198.009L105.679 157.308L109.984 165.253L112.532 173.923L30.573 198.009ZM41.1572 234.024L123.116 209.938L145.276 285.339L71.9793 313.695L41.1572 234.024ZM32.7416 237.28L-49.2177 261.366L-60.4369 223.19L21.5223 199.104L103.482 175.017L114.701 213.193L32.7416 237.28ZM21.5223 199.104L-63.8205 202.857C-64.0577 197.464 -64.0356 189.615 -62.6262 180.739C-61.9248 176.321 -60.5318 169.376 -57.476 161.435C-54.8054 154.494 -48.2677 139.836 -33.4901 126.774C-15.6391 110.996 9.92325 101.701 37.5126 106.025C60.4581 109.62 75.583 121.25 82.2766 127.128C95.3976 138.651 102.792 151.981 105.679 157.308L30.573 198.009L-44.5331 238.71C-44.4009 238.954 -43.5193 240.577 -41.8406 242.959C-40.4133 244.985 -36.7083 250.017 -30.4615 255.503C-24.9961 260.302 -10.9458 271.367 11.0635 274.816C37.7167 278.992 62.4814 269.969 79.6582 254.787C93.7616 242.322 99.7485 228.583 101.977 222.792C104.59 216 105.65 210.434 106.111 207.529C107.04 201.679 106.955 197.396 106.865 195.35L21.5223 199.104ZM30.573 198.009L112.532 173.923L123.116 209.938L41.1572 234.024L-40.8021 258.111L-51.3863 222.095L30.573 198.009ZM41.1572 234.024L71.9793 313.695L63.5637 316.951L32.7416 237.28L1.91952 157.609L10.3351 154.353L41.1572 234.024Z" fill="#C6E700" mask="url(#path-37-inside-12_33_35)"/>
<mask id="path-39-inside-13_33_35" fill="white">
<path d="M6.83557 200.725L22.0582 240.08L30.1576 236.094L15.7966 198.966C6.70636 184.727 5.8435 193.711 6.83557 200.725Z"/>
</mask>
<path d="M22.0582 240.08L59.7824 316.725L-23.9479 357.937L-57.6146 270.898L22.0582 240.08ZM6.83557 200.725L-72.8373 231.543L-76.3748 222.397L-77.7479 212.688L6.83557 200.725ZM15.7966 198.966L87.8011 153.001L92.3917 160.192L95.4695 168.149L15.7966 198.966ZM30.1576 236.094L109.83 205.276L138.04 278.207L67.8818 312.738L30.1576 236.094ZM22.0582 240.08L-57.6146 270.898L-72.8373 231.543L6.83557 200.725L86.5084 169.908L101.731 209.263L22.0582 240.08ZM6.83557 200.725L-77.7479 212.688C-78.488 207.456 -79.2258 199.806 -78.7714 191.058C-78.5464 186.725 -77.9212 179.793 -75.8035 171.702C-74.0112 164.854 -69.1549 149.153 -55.5057 134.227C-38.5907 115.73 -12.4863 103.576 16.8326 106.378C40.4869 108.639 56.4567 119.804 63.0395 124.95C76.3932 135.391 84.5409 147.894 87.8011 153.001L15.7966 198.966L-56.2078 244.932C-56.1876 244.964 -55.342 246.303 -53.6834 248.356C-52.3082 250.058 -48.4913 254.622 -42.1955 259.544C-36.9565 263.641 -22.123 274.284 0.577299 276.453C28.9423 279.164 54.2751 267.35 70.5762 249.524C83.6113 235.269 88.0112 220.572 89.4797 214.961C91.2736 208.107 91.7076 202.647 91.8492 199.919C92.1367 194.383 91.6631 190.487 91.4191 188.762L6.83557 200.725ZM15.7966 198.966L95.4695 168.149L109.83 205.276L30.1576 236.094L-49.5152 266.911L-63.8762 229.784L15.7966 198.966ZM30.1576 236.094L67.8818 312.738L59.7824 316.725L22.0582 240.08L-15.666 163.436L-7.56658 159.449L30.1576 236.094Z" fill="#C6E700" mask="url(#path-39-inside-13_33_35)"/>
<mask id="path-41-inside-14_33_35" fill="white">
<path d="M33.2572 247V243C32.3752 243.167 30.4404 243.796 29.7572 244.979C29.074 246.163 31.8058 246.82 33.2572 247Z"/>
</mask>
<path d="M33.2572 243H100.257V162.153L20.8165 177.165L33.2572 243ZM33.2572 247L24.9891 313.488L100.257 322.848V247H33.2572ZM29.7572 244.979L87.7809 278.479L29.7572 244.979ZM33.2572 243H-33.7428V247H33.2572H100.257V243H33.2572ZM33.2572 247L41.5253 180.512C43.614 180.772 49.6336 181.575 57.1555 184.807C59.7171 185.908 71.9822 191.093 82.3448 204.184C88.379 211.807 94.9287 223.647 96.3682 239.239C97.8386 255.167 93.3972 268.752 87.7809 278.479L29.7572 244.979L-28.2665 211.479C-34.0536 221.503 -38.5591 235.366 -37.0644 251.557C-35.6007 267.413 -28.9383 279.5 -22.7213 287.353C-11.9934 300.906 0.917372 306.489 4.25792 307.924C13.3378 311.826 21.449 313.048 24.9891 313.488L33.2572 247ZM29.7572 244.979L87.7809 278.479C82.5041 287.619 76.1335 293.534 71.7695 296.95C67.2986 300.45 63.2142 302.672 60.4236 304.011C55.2089 306.514 50.2478 307.975 45.6979 308.835L33.2572 243L20.8165 177.165C15.3846 178.192 9.01511 180.05 2.44176 183.205C-2.46204 185.559 -17.8175 193.381 -28.2665 211.479L29.7572 244.979Z" fill="#6A38F3" mask="url(#path-41-inside-14_33_35)"/>
<path d="M342.532 611L349.894 691.5H191.404L198.766 611H342.532Z" stroke="black" stroke-width="89" stroke-linecap="round"/>
<mask id="path-44-inside-15_33_35" fill="white">
<path d="M253.649 22.0003C183.649 27.5 129.981 47.1135 118.149 133C193.159 118.214 323.649 16.5005 253.649 22.0003Z"/>
</mask>
<path d="M253.649 22.0003L258.583 84.8067L253.649 22.0003ZM118.149 133L55.7384 124.402L43.6856 211.891L130.333 194.811L118.149 133ZM253.649 22.0003L248.714 -40.8062C211.12 -37.8524 166.174 -30.645 128.29 -4.48769C86.9384 24.0644 63.4874 68.1545 55.7384 124.402L118.149 133L180.559 141.598C184.643 111.959 193.942 103.299 199.882 99.1979C209.29 92.7019 226.178 87.3527 258.583 84.8067L253.649 22.0003ZM118.149 133L130.333 194.811C181.848 184.656 242.514 148.772 279.625 119.095C289.537 111.168 299.169 102.593 307.403 93.759C314.614 86.0218 324.971 73.6943 331.13 58.1422C334.334 50.0521 338.205 36.6226 335.984 20.3933C333.466 1.99308 323.834 -14.3165 309.285 -25.4487C296.467 -35.2571 283.001 -38.7001 274.167 -40.0738C264.906 -41.5139 256.095 -41.3861 248.714 -40.8062L253.649 22.0003L258.583 84.8067C259.953 84.6992 258.325 84.9771 254.807 84.4299C251.715 83.9492 242.55 82.1419 232.717 74.6174C221.153 65.7689 213.188 52.3911 211.147 37.476C209.404 24.7317 212.56 15.3404 213.983 11.7469C216.58 5.18813 219.11 3.6876 215.228 7.85273C212.369 10.9208 207.642 15.3239 200.931 20.6914C171.543 44.1926 129.459 66.5584 105.965 71.1896L118.149 133Z" fill="#6A38F3" mask="url(#path-44-inside-15_33_35)"/>
<mask id="path-46-inside-16_33_35" fill="white">
<path d="M278.637 22.2149C353.042 31.254 393.761 37.2232 414.137 133.215C330.869 105.485 204.233 13.1759 278.637 22.2149Z"/>
</mask>
<path d="M278.637 22.2149L271.04 84.7551L278.637 22.2149ZM414.137 133.215L475.764 120.133L498.608 227.747L394.232 192.987L414.137 133.215ZM278.637 22.2149L286.235 -40.3252C319.128 -36.3292 364.554 -31.8982 401.489 -7.38152C443.435 20.4613 464.082 65.0985 475.764 120.133L414.137 133.215L352.511 146.297C343.817 105.34 333.916 98.9963 331.807 97.5968C324.688 92.8713 312.551 89.7982 271.04 84.7551L278.637 22.2149ZM414.137 133.215L394.232 192.987C344.679 176.485 285.983 142.664 248.65 113.709C239.018 106.238 229.533 98.1205 221.469 89.7428C214.97 82.9914 203.243 69.9529 197.187 52.4842C193.873 42.9267 190.237 26.1832 196.53 7.0461C203.401 -13.8486 218.431 -26.6903 231.956 -33.3189C253.341 -43.8001 275.929 -41.5773 286.235 -40.3252L278.637 22.2149L271.04 84.7551C262.745 83.7474 273.014 86.8776 287.408 79.8227C297.438 74.9073 310.305 64.4085 316.225 46.4054C321.567 30.1599 318.193 16.8568 316.234 11.2073C312.887 1.55475 308.243 -1.79683 312.246 2.36134C314.683 4.8933 319.118 8.90758 325.87 14.1443C354.071 36.0162 400.328 62.2142 434.043 73.4423L414.137 133.215Z" fill="#6A38F3" mask="url(#path-46-inside-16_33_35)"/>
<mask id="path-48-inside-17_33_35" fill="white">
<path d="M268.303 41.8242C248.444 77.2342 198.329 142.086 153.649 123.153C175.427 117.4 228.845 93.0796 268.303 41.8242Z"/>
</mask>
<path d="M296.192 56.4899C304.647 41.2856 299.175 22.1061 283.971 13.6514C268.766 5.19668 249.587 10.6683 241.132 25.8727L268.662 41.1813L296.192 56.4899ZM240.828 26.4163C232.319 41.59 237.721 60.7891 252.895 69.2987C268.069 77.8082 287.268 72.4059 295.777 57.2321L268.303 41.8242L240.828 26.4163ZM268.662 41.1813L241.132 25.8727C241.032 26.0523 240.931 26.2335 240.828 26.4163L268.303 41.8242L295.777 57.2321C295.916 56.9841 296.055 56.7367 296.192 56.4899L268.662 41.1813ZM268.303 41.8242L323.252 72.6403L218.382 3.39389L268.303 41.8242ZM153.649 123.153L137.558 62.2427L-40.5318 109.291L129.069 181.16L153.649 123.153ZM268.303 41.8242L213.354 11.0081C205.614 24.8104 192.19 43.5721 178.474 55.7408C171.672 61.7759 167.589 63.6748 166.722 63.9799C166.582 64.0291 167.852 63.5605 170.252 63.5476C172.836 63.5337 175.672 64.0624 178.23 65.1461L153.649 123.153L129.069 181.16C187.544 205.939 238.121 171.263 262.094 149.994C289.571 125.617 311.134 94.248 323.252 72.6403L268.303 41.8242ZM153.649 123.153L169.741 184.063C202.714 175.352 268.961 144.247 318.224 80.2546L268.303 41.8242L218.382 3.39389C188.73 41.9121 148.139 59.4472 137.558 62.2427L153.649 123.153Z" fill="#6A38F3" mask="url(#path-48-inside-17_33_35)"/>
<mask id="path-50-inside-18_33_35" fill="white">
<path d="M263.029 38.9086C280.979 71.0783 327.27 129.44 371.649 110C350.929 108.554 299.787 88.2002 263.029 38.9086Z"/>
</mask>
<path d="M235.136 53.5634C226.72 38.3377 232.24 19.1722 247.466 10.7559C262.692 2.33969 281.857 7.85984 290.273 23.0855L262.705 38.3245L235.136 53.5634ZM290.537 23.5601C299.014 38.7522 293.57 57.9396 278.378 66.4163C263.186 74.8931 243.998 69.4492 235.521 54.2571L263.029 38.9086L290.537 23.5601ZM262.705 38.3245L290.273 23.0855C290.36 23.2419 290.448 23.4001 290.537 23.5601L263.029 38.9086L235.521 54.2571C235.392 54.0257 235.264 53.7945 235.136 53.5634L262.705 38.3245ZM263.029 38.9086L208.014 69.606L313.533 1.2469L263.029 38.9086ZM371.649 110L376.036 47.153L396.926 167.706L371.649 110ZM263.029 38.9086L318.044 8.21126C324.593 19.9474 336.153 35.7099 347.826 45.4652C353.505 50.2105 356.52 51.2554 356.49 51.2464C355.287 50.8875 350.923 50.2996 346.371 52.2936L371.649 110L396.926 167.706C341.072 192.173 292.189 163.174 267.03 142.15C239.976 119.542 219.415 90.0395 208.014 69.606L263.029 38.9086ZM371.649 110L367.262 172.847C344.291 171.244 317.011 161.356 292.057 147.073C265.649 131.958 236.758 109.065 212.526 76.5703L263.029 38.9086L313.533 1.2469C326.058 18.0437 341.117 29.9738 354.65 37.7195C369.636 46.2977 378.287 47.3101 376.036 47.153L371.649 110Z" fill="#6A38F3" mask="url(#path-50-inside-18_33_35)"/>
<mask id="path-52-inside-19_33_35" fill="white">
<path d="M261.746 27.9526C264.803 52.1558 278.614 99.4929 310.021 98.6603C297.893 92.5989 272.002 67.349 261.746 27.9526Z"/>
</mask>
<path d="M230.425 31.338C228.313 14.0697 240.599 -1.64125 257.867 -3.75344C275.135 -5.86562 290.846 6.42081 292.959 23.6891L261.692 27.5135L230.425 31.338ZM292.998 24.0054C295.178 41.2653 282.953 57.0244 265.693 59.2044C248.434 61.3843 232.675 49.1597 230.495 31.8998L261.746 27.9526L292.998 24.0054ZM261.692 27.5135L292.959 23.6891C292.971 23.7931 292.984 23.8986 292.998 24.0054L261.746 27.9526L230.495 31.8998C230.471 31.7122 230.448 31.5249 230.425 31.338L261.692 27.5135ZM261.746 27.9526L199.243 35.8462L322.714 12.0809L261.746 27.9526ZM310.021 98.6603L338.186 42.3068L311.69 161.638L310.021 98.6603ZM261.746 27.9526L324.25 20.0591C324.626 23.0408 325.442 27.4393 326.782 32.174C328.146 36.9962 329.681 40.8412 331.01 43.3689C332.519 46.2374 332.485 45.001 329.485 42.5534C327.768 41.1521 324.966 39.2762 321.037 37.8134C316.983 36.304 312.612 35.5695 308.351 35.6824L310.021 98.6603L311.69 161.638C258.685 163.043 230.468 122.885 219.494 102.021C207.154 78.5592 201.38 52.7732 199.243 35.8462L261.746 27.9526ZM310.021 98.6603L281.856 155.014C264.441 146.31 248.047 130.781 235.335 114.334C221.576 96.5315 208.321 72.7986 200.778 43.8244L261.746 27.9526L322.714 12.0809C325.427 22.503 330.246 31.0933 335.028 37.2806C337.404 40.3541 339.481 42.4563 340.776 43.6126C342.51 45.1621 341.77 44.0978 338.186 42.3068L310.021 98.6603Z" fill="#6A38F3" mask="url(#path-52-inside-19_33_35)"/>
<mask id="path-54-inside-20_33_35" fill="white">
<path d="M22.479 251.975C22.479 251.975 11.0794 247.489 4.4876 242.043C4.4876 242.043 6.12489 239.234 7.66992 237.723C9.21495 236.211 11.2526 235.895 11.2526 235.895C20.6086 239.934 25.1243 242.215 33.3817 248.839C33.3817 248.839 38.1043 251.749 37.3537 254.366C36.6031 256.983 22.479 251.975 22.479 251.975Z"/>
</mask>
<path d="M4.4876 242.043L-21.4306 226.935L-34.2596 248.944L-14.6207 265.17L4.4876 242.043ZM22.479 251.975L11.4937 279.891L11.9702 280.079L12.4529 280.25L22.479 251.975ZM37.3537 254.366L66.191 262.637L66.191 262.637L37.3537 254.366ZM33.3817 248.839L14.6102 272.24L16.0603 273.404L17.643 274.379L33.3817 248.839ZM11.2526 235.895L23.1426 208.352L15.2027 204.924L6.65673 206.249L11.2526 235.895ZM7.66992 237.723L-13.3101 216.279L-13.3101 216.279L7.66992 237.723ZM4.4876 242.043L-14.6207 265.17C-8.5486 270.187 -1.49413 273.907 2.74264 275.985C5.10744 277.145 7.19336 278.08 8.70804 278.734C9.47179 279.063 10.1071 279.329 10.5797 279.523C10.8164 279.62 11.0136 279.7 11.167 279.761C11.2438 279.792 11.3097 279.819 11.3643 279.84C11.3916 279.851 11.4161 279.861 11.4376 279.869C11.4484 279.874 11.4585 279.878 11.4678 279.881C11.4725 279.883 11.477 279.885 11.4813 279.887C11.4834 279.887 11.4865 279.889 11.4876 279.889C11.4907 279.89 11.4937 279.891 22.479 251.975C33.4643 224.059 33.4672 224.06 33.47 224.061C33.4709 224.061 33.4738 224.062 33.4756 224.063C33.4792 224.065 33.4826 224.066 33.4859 224.067C33.4925 224.07 33.4984 224.072 33.5037 224.074C33.5143 224.078 33.5223 224.082 33.5278 224.084C33.5388 224.088 33.5399 224.089 33.5316 224.085C33.5148 224.079 33.4606 224.057 33.3728 224.021C33.1962 223.948 32.8895 223.821 32.4815 223.644C31.6528 223.287 30.4768 222.76 29.1677 222.118C27.8378 221.465 26.5371 220.775 25.4101 220.105C24.8571 219.777 24.4132 219.492 24.0754 219.262C23.7289 219.025 23.5836 218.905 23.5959 218.916L4.4876 242.043ZM22.479 251.975C12.4529 280.25 12.4555 280.251 12.4581 280.252C12.4591 280.252 12.4617 280.253 12.4636 280.254C12.4674 280.255 12.4714 280.257 12.4757 280.258C12.4842 280.261 12.4936 280.265 12.5039 280.268C12.5245 280.275 12.5486 280.284 12.5762 280.294C12.6314 280.313 12.7006 280.337 12.7829 280.366C12.9472 280.423 13.1649 280.498 13.4286 280.588C13.9539 280.766 14.6747 281.007 15.5319 281.282C17.191 281.815 19.6056 282.554 22.2176 283.221C24.4525 283.791 28.3975 284.724 32.5884 285.021C34.4149 285.151 38.7163 285.373 43.7156 284.134C48.1185 283.043 61.672 278.393 66.191 262.637L37.3537 254.366L8.51643 246.095C10.5209 239.107 14.7692 233.948 19.2161 230.657C23.2586 227.665 27.1139 226.433 29.2824 225.896C31.5716 225.328 33.4147 225.187 34.4423 225.144C35.5411 225.098 36.3754 225.139 36.8373 225.172C38.1688 225.267 38.4421 225.438 37.0521 225.083C36.0392 224.825 34.8759 224.476 33.8633 224.151C33.3846 223.998 32.9961 223.868 32.746 223.783C32.6221 223.74 32.5355 223.71 32.4926 223.696C32.4713 223.688 32.461 223.684 32.4628 223.685C32.4636 223.685 32.4675 223.687 32.4745 223.689C32.478 223.69 32.4823 223.692 32.4874 223.694C32.4899 223.695 32.4926 223.696 32.4956 223.697C32.497 223.697 32.4994 223.698 32.5001 223.698C32.5025 223.699 32.505 223.7 22.479 251.975ZM37.3537 254.366L66.191 262.637C69.2627 251.928 66.0244 243.039 63.5991 238.43C61.196 233.862 58.2201 230.721 56.5418 229.092C54.669 227.275 52.9144 225.918 51.7627 225.079C51.1483 224.632 50.6047 224.26 50.1668 223.969C49.9458 223.823 49.7463 223.693 49.5719 223.582C49.4846 223.526 49.403 223.475 49.3278 223.428C49.2901 223.404 49.254 223.382 49.2195 223.36C49.2022 223.349 49.1853 223.339 49.1688 223.329C49.1605 223.324 49.1524 223.319 49.1443 223.314C49.1403 223.311 49.1343 223.307 49.1323 223.306C49.1264 223.303 49.1205 223.299 33.3817 248.839C17.643 274.379 17.6371 274.375 17.6312 274.372C17.6293 274.37 17.6234 274.367 17.6195 274.364C17.6118 274.36 17.604 274.355 17.5963 274.35C17.581 274.341 17.5658 274.331 17.5508 274.322C17.5208 274.303 17.4914 274.285 17.4627 274.267C17.4052 274.231 17.3501 274.196 17.2972 274.162C17.1917 274.095 17.0929 274.031 16.9996 273.969C16.817 273.848 16.6364 273.723 16.4531 273.59C16.1634 273.379 15.5425 272.913 14.7566 272.15C14.1651 271.576 12.2291 269.653 10.5004 266.367C8.74949 263.04 5.82001 255.496 8.51643 246.095L37.3537 254.366ZM33.3817 248.839L52.1532 225.437C41.1448 216.607 34.0582 213.064 23.1426 208.352L11.2526 235.895L-0.637394 263.438C7.15901 266.804 9.10389 267.824 14.6102 272.24L33.3817 248.839ZM11.2526 235.895C6.65673 206.249 6.64789 206.251 6.63904 206.252C6.63608 206.252 6.6272 206.254 6.62126 206.255C6.60938 206.257 6.59745 206.258 6.58546 206.26C6.56147 206.264 6.53726 206.268 6.51283 206.272C6.46396 206.28 6.41418 206.288 6.36352 206.296C6.2622 206.313 6.15721 206.331 6.04868 206.35C5.83179 206.388 5.59991 206.431 5.35421 206.479C4.86428 206.576 4.31108 206.696 3.70527 206.846C2.51039 207.142 1.02049 207.574 -0.649274 208.211C-3.79227 209.41 -8.68334 211.752 -13.3101 216.279L7.66992 237.723L28.6499 259.166C25.5682 262.181 22.4685 263.61 20.7306 264.273C19.7633 264.642 18.8794 264.901 18.1149 265.09C17.7242 265.187 17.3423 265.271 16.9698 265.344C16.7829 265.381 16.5963 265.416 16.41 265.448C16.3167 265.465 16.2234 265.48 16.1299 265.496C16.0831 265.504 16.0363 265.511 15.9894 265.519C15.9659 265.522 15.9425 265.526 15.919 265.53C15.9072 265.532 15.8955 265.534 15.8837 265.535C15.8778 265.536 15.869 265.538 15.8661 265.538C15.8573 265.54 15.8484 265.541 11.2526 235.895ZM7.66992 237.723L-13.3101 216.279C-16.3309 219.234 -18.5003 222.385 -19.3543 223.648C-19.9283 224.497 -20.4019 225.243 -20.7403 225.79C-20.9128 226.068 -21.0584 226.309 -21.1734 226.5C-21.231 226.597 -21.2816 226.682 -21.3245 226.754C-21.3459 226.791 -21.3656 226.824 -21.3833 226.854C-21.3921 226.869 -21.4005 226.884 -21.4084 226.897C-21.4123 226.904 -21.4162 226.91 -21.4199 226.917C-21.4217 226.92 -21.4236 226.923 -21.4254 226.926C-21.4262 226.928 -21.4276 226.93 -21.428 226.931C-21.4293 226.933 -21.4306 226.935 4.4876 242.043C30.4059 257.151 30.4046 257.153 30.4033 257.155C30.4028 257.156 30.4016 257.158 30.4007 257.16C30.399 257.162 30.3973 257.165 30.3957 257.168C30.3924 257.174 30.3891 257.179 30.386 257.185C30.3797 257.196 30.3737 257.206 30.3679 257.216C30.3565 257.235 30.3463 257.252 30.3372 257.268C30.319 257.299 30.3052 257.322 30.2953 257.338C30.2759 257.371 30.2703 257.38 30.2755 257.371C30.2923 257.344 30.3246 257.293 30.353 257.251C30.7039 256.732 30.1257 257.723 28.6499 259.166L7.66992 237.723Z" fill="#B2D000" mask="url(#path-54-inside-20_33_35)"/>
<path d="M10.2723 253C9.74756 252.759 9.17473 252.487 8.57252 252.19C8.58599 252.136 8.59942 252.082 8.61365 252.027C9.23341 252.391 9.78361 252.714 10.2723 253Z" stroke="#B2D000" stroke-width="30"/>
<path d="M53.0697 274.812L50.3028 273.844L50.2946 273.789L53.0697 274.812Z" stroke="#B2D000" stroke-width="210"/>
<mask id="path-58-inside-21_33_35" fill="white">
<path d="M32.4777 244.073L33.0574 242.159C32.0973 241.956 29.9531 241.635 29.0566 241.982C28.1601 242.329 30.9638 243.521 32.4777 244.073Z"/>
</mask>
<path d="M33.0574 242.159L97.1822 261.576L118.324 191.754L46.959 176.617L33.0574 242.159ZM32.4777 244.073L9.50095 307.01L76.0664 331.312L96.6026 263.49L32.4777 244.073ZM33.0574 242.159L-31.0675 222.742L-31.6471 224.657L32.4777 244.073L96.6026 263.49L97.1822 261.576L33.0574 242.159ZM32.4777 244.073L55.4545 181.136C55.7904 181.259 57.9723 182.028 61.1235 183.69C62.0954 184.203 63.8975 185.187 66.0928 186.626C67.7221 187.695 72.5167 190.898 77.6134 196.271C79.6692 198.439 98.4517 217.438 95.6001 248.311C92.026 287.006 60.8898 301.506 53.2283 304.47L29.0566 241.982L4.88486 179.494C-3.00081 182.544 -34.2454 197.157 -37.8319 235.986C-40.6959 266.993 -21.8296 286.146 -19.6134 288.483C-11.0613 297.5 -1.67108 302.066 -1.39698 302.211C3.31043 304.694 7.65121 306.335 9.50095 307.01L32.4777 244.073ZM29.0566 241.982L53.2283 304.47C47.8148 306.564 43.1991 307.52 40.3035 307.996C37.255 308.497 34.7162 308.686 32.9638 308.766C29.5617 308.92 26.9401 308.752 25.6214 308.645C23.0183 308.434 20.9175 308.075 19.1557 307.701L33.0574 242.159L46.959 176.617C44.2371 176.04 40.5842 175.418 36.4448 175.083C34.358 174.914 30.9723 174.718 26.886 174.904C23.8731 175.04 15.1086 175.539 4.88486 179.494L29.0566 241.982Z" fill="#6A38F3" mask="url(#path-58-inside-21_33_35)"/>
<mask id="path-60-inside-22_33_35" fill="white">
<path d="M34.5344 250L32.6494 252.348C33.4905 252.863 35.4599 253.836 36.6083 253.615C37.7568 253.395 35.7042 251.113 34.5344 250Z"/>
</mask>
<path d="M32.6494 252.348L-19.6005 210.409L-67.2655 269.791L-2.2997 309.511L32.6494 252.348ZM34.5344 250L80.7217 201.464L27.9149 151.213L-17.7155 208.06L34.5344 250ZM32.6494 252.348L84.8993 294.288L86.7842 291.94L34.5344 250L-17.7155 208.06L-19.6005 210.409L32.6494 252.348ZM34.5344 250L-11.653 298.536C-12.3819 297.842 -15.2434 295.144 -18.454 290.556C-18.7732 290.1 -26.1247 280.358 -28.9181 265.467C-30.4864 257.107 -32.2213 238.379 -20.5267 218.924C-7.84347 197.825 11.8402 190.148 23.9704 187.818L36.6083 253.615L49.2463 319.413C61.6636 317.028 81.5343 309.232 94.3206 287.961C106.118 268.335 104.402 249.384 102.785 240.761C99.8928 225.345 92.1704 214.923 91.3354 213.729C87.0932 207.667 82.6205 203.271 80.7217 201.464L34.5344 250ZM36.6083 253.615L23.9704 187.818C35.2092 185.66 44.1646 187.007 48.1314 187.761C52.7217 188.633 56.2181 189.835 58.1995 190.584C62.0083 192.023 65.0712 193.641 67.5985 195.186L32.6494 252.348L-2.2997 309.511C1.06868 311.57 5.53691 313.932 10.8278 315.931C12.7162 316.645 28.9008 323.321 49.2463 319.413L36.6083 253.615Z" fill="#6A38F3" mask="url(#path-60-inside-22_33_35)"/>
<mask id="path-62-inside-23_33_35" fill="white">
<path d="M19.8838 252L18.6493 254.18C19.4511 254.514 21.2912 255.103 22.2377 254.788C23.1841 254.472 21.0628 252.798 19.8838 252Z"/>
</mask>
<path d="M18.6493 254.18L-39.649 221.16L-76.9063 286.94L-7.12615 316.023L18.6493 254.18ZM19.8838 252L57.4282 196.508L-2.66014 155.854L-38.4145 218.98L19.8838 252ZM22.2377 254.788L1.04283 191.228L1.04282 191.228L22.2377 254.788ZM18.6493 254.18L76.9476 287.199L78.1821 285.02L19.8838 252L-38.4145 218.98L-39.649 221.16L18.6493 254.18ZM19.8838 252L-17.6606 307.493C-18.4788 306.939 -21.6401 304.817 -25.4469 301.022C-25.7139 300.756 -34.4863 292.641 -39.905 278.881C-42.8412 271.426 -48.645 252.502 -39.9559 230.244C-30.3926 205.748 -10.5593 195.097 1.04283 191.228L22.2377 254.788L43.4325 318.347C55.2713 314.399 75.2453 303.627 84.8691 278.975C93.6188 256.563 87.7953 237.45 84.775 229.781C79.1878 215.593 69.9888 206.951 69.1624 206.127C64.2368 201.216 59.4254 197.859 57.4282 196.508L19.8838 252ZM22.2377 254.788L1.04282 191.228C11.9113 187.604 20.9584 187.765 24.7757 187.958C29.3068 188.188 32.8319 188.861 34.8206 189.3C38.6626 190.147 41.8176 191.249 44.4248 192.336L18.6493 254.18L-7.12615 316.023C-3.71727 317.444 0.758664 319.008 5.95787 320.155C7.42855 320.479 24.1219 324.786 43.4325 318.347L22.2377 254.788Z" fill="#6A38F3" mask="url(#path-62-inside-23_33_35)"/>
<mask id="path-64-inside-24_33_35" fill="white">
<path d="M117.65 493.5C160.15 493.5 186.15 415.5 186.15 415.5L212.15 303L123.65 415.5L53.1497 273L22.1497 291.5C22.1497 291.5 75.1497 493.5 117.65 493.5Z"/>
</mask>
<path d="M186.15 415.5L385.373 481.908L388.517 472.475L390.756 462.787L186.15 415.5ZM22.1497 291.5L-85.4664 111.17L-221.044 192.08L-180.975 344.795L22.1497 291.5ZM212.15 303L416.756 350.287L47.0992 173.16L212.15 303ZM123.65 415.5L-64.5746 508.621L82.9733 806.857L288.7 545.34L123.65 415.5ZM53.1497 273L241.374 179.879L140.628 -23.757L-54.4664 92.6704L53.1497 273ZM186.15 415.5C-13.0738 349.092 -13.058 349.045 -13.0422 348.997C-13.0371 348.982 -13.0214 348.935 -13.0111 348.904C-12.9905 348.843 -12.9701 348.782 -12.9501 348.722C-12.91 348.603 -12.871 348.487 -12.8332 348.375C-12.7576 348.151 -12.6864 347.942 -12.6197 347.746C-12.4863 347.357 -12.37 347.022 -12.2704 346.738C-12.0721 346.174 -11.9356 345.801 -11.8568 345.59C-11.711 345.198 -11.7403 345.298 -11.9058 345.688C-12.4852 347.054 -12.6558 347.145 -11.7776 345.695C-11.7458 345.642 -5.81645 335.274 8.52867 322.807C23.1638 310.088 60.6455 283.5 117.65 283.5V493.5V703.5C195.904 703.5 252.573 667.162 284.036 639.818C315.21 612.726 335.608 582.858 347.452 563.305C360.143 542.355 369.128 522.946 374.752 509.687C377.688 502.765 380.022 496.771 381.756 492.113C382.628 489.769 383.365 487.72 383.965 486.013C384.265 485.159 384.533 484.386 384.767 483.701C384.884 483.358 384.994 483.037 385.095 482.738C385.145 482.589 385.193 482.445 385.24 482.306C385.263 482.237 385.286 482.169 385.308 482.103C385.319 482.07 385.335 482.021 385.341 482.004C385.357 481.956 385.373 481.908 186.15 415.5ZM117.65 493.5V283.5C157.573 283.5 189.19 295.493 209.837 306.712C229.843 317.584 243.04 329.523 249.928 336.42C257.183 343.684 261.652 349.613 263.619 352.353C264.735 353.906 265.505 355.077 265.947 355.77C266.395 356.472 266.614 356.852 266.615 356.853C266.619 356.86 266.467 356.598 266.168 356.035C265.871 355.475 265.467 354.692 264.961 353.668C263.931 351.583 262.647 348.836 261.135 345.381C258.062 338.362 254.659 329.816 251.068 320.049C243.837 300.374 237.277 279.656 232.38 263.192C229.985 255.143 228.107 248.512 226.868 244.045C226.251 241.819 225.798 240.154 225.526 239.144C225.391 238.64 225.3 238.301 225.258 238.14C225.236 238.06 225.227 238.024 225.229 238.034C225.231 238.039 225.235 238.056 225.243 238.084C225.246 238.099 225.251 238.116 225.256 238.136C225.259 238.146 225.263 238.163 225.265 238.168C225.269 238.186 225.274 238.205 22.1497 291.5C-180.975 344.795 -180.97 344.815 -180.964 344.837C-180.962 344.845 -180.956 344.867 -180.952 344.883C-180.944 344.915 -180.934 344.951 -180.924 344.989C-180.904 345.067 -180.88 345.156 -180.853 345.259C-180.799 345.463 -180.732 345.717 -180.652 346.019C-180.491 346.622 -180.279 347.418 -180.016 348.393C-179.491 350.342 -178.763 353.017 -177.848 356.315C-176.023 362.894 -173.428 372.045 -170.19 382.933C-163.821 404.344 -154.475 434.126 -143.144 464.951C-132.558 493.751 -117.048 532.367 -97.0184 567.022C-87.3966 583.67 -71.2114 609.22 -47.2403 633.221C-27.5577 652.928 28.915 703.5 117.65 703.5V493.5ZM212.15 303L47.0992 173.16L-41.4008 285.66L123.65 415.5L288.7 545.34L377.2 432.84L212.15 303ZM123.65 415.5L311.874 322.379L241.374 179.879L53.1497 273L-135.075 366.121L-64.5746 508.621L123.65 415.5ZM186.15 415.5L390.756 462.787L416.756 350.287L212.15 303L7.54284 255.713L-18.4572 368.213L186.15 415.5ZM53.1497 273L-54.4664 92.6704L-85.4664 111.17L22.1497 291.5L129.766 471.83L160.766 453.33L53.1497 273Z" fill="#C6E700" mask="url(#path-64-inside-24_33_35)"/>
<mask id="path-66-inside-25_33_35" fill="white">
<path d="M293.15 15.6301C278.76 12.1892 268.23 23.6281 266.65 25.1301C267.316 22.4634 271.725 15.8618 278.65 12.6301C286.15 9.13019 289.65 11.7968 293.15 15.6301Z"/>
</mask>
<path d="M266.65 25.1301L237.545 17.854L212.511 117.993L287.32 46.8726L266.65 25.1301ZM293.15 15.6301L286.173 44.8075L381.15 67.5186L315.304 -4.59798L293.15 15.6301ZM278.65 12.6301L265.963 -14.5554L278.65 12.6301ZM266.65 25.1301L287.32 46.8726C287.557 46.6473 287.759 46.4486 287.858 46.3514C287.96 46.2516 288.084 46.1291 288.136 46.0771C288.278 45.9368 288.368 45.8486 288.458 45.7623C288.626 45.6004 288.788 45.4506 288.962 45.302C289.348 44.9709 289.668 44.7508 289.862 44.6408C290.058 44.5301 289.797 44.7172 289.09 44.8599C288.716 44.9352 288.243 44.9922 287.7 44.9878C287.149 44.9833 286.626 44.916 286.173 44.8075L293.15 15.6301L300.127 -13.5473C267.396 -21.3739 244.781 4.52638 245.979 3.38764L266.65 25.1301ZM266.65 25.1301L295.754 32.4062C295.29 34.2632 294.739 35.5813 294.455 36.2168C294.131 36.9394 293.851 37.4441 293.681 37.7331C293.348 38.2976 293.128 38.5598 293.06 38.64C293.027 38.6784 292.594 39.2289 291.336 39.8157L278.65 12.6301L265.963 -14.5554C257.781 -10.737 251.681 -5.26988 247.546 -0.456084C244.097 3.55902 239.495 10.0543 237.545 17.854L266.65 25.1301ZM278.65 12.6301L291.336 39.8157C290.814 40.0593 285.574 42.2567 278.391 39.9957C272.47 38.1317 269.634 34.3675 270.995 35.8582L293.15 15.6301L315.304 -4.59798C313.165 -6.94059 306.829 -13.9548 296.408 -17.2354C284.726 -20.9131 273.985 -18.299 265.963 -14.5554L278.65 12.6301Z" fill="#6A38F3" mask="url(#path-66-inside-25_33_35)"/>
<mask id="path-68-inside-26_33_35" fill="white">
<path d="M254.889 3.49147C268 10.3478 268.428 25.8898 268.633 28.0601C269.881 25.6114 270.893 17.738 267.794 10.7528C264.437 3.18761 260.046 2.89963 254.889 3.49147Z"/>
</mask>
<path d="M268.633 28.0601L295.358 41.6889L248.465 133.644L238.765 30.8794L268.633 28.0601ZM254.889 3.49147L240.987 30.0757L154.451 -15.1787L251.469 -26.3129L254.889 3.49147ZM267.794 10.7528L295.215 -1.41479L267.794 10.7528ZM268.633 28.0601L238.765 30.8794C238.735 30.5539 238.712 30.271 238.702 30.1329C238.691 29.9909 238.678 29.8172 238.672 29.7435C238.657 29.5444 238.648 29.4189 238.637 29.295C238.616 29.0623 238.592 28.8428 238.559 28.6169C238.485 28.1137 238.388 27.7375 238.314 27.5267C238.239 27.3146 238.313 27.6269 238.753 28.1994C238.985 28.5014 239.304 28.855 239.717 29.2085C240.136 29.5674 240.573 29.8595 240.987 30.0757L254.889 3.49147L268.792 -23.0928C298.613 -7.4974 298.655 26.8863 298.5 25.2409L268.633 28.0601ZM268.633 28.0601L241.907 14.4314C241.037 16.1366 240.587 17.4922 240.384 18.1582C240.153 18.9155 240.033 19.4803 239.972 19.81C239.852 20.454 239.845 20.796 239.844 20.9018C239.844 20.9524 239.809 21.6518 240.372 22.9203L267.794 10.7528L295.215 -1.41479C298.878 6.83889 299.886 14.9677 299.843 21.3135C299.807 26.6064 299.011 34.5266 295.358 41.6889L268.633 28.0601ZM267.794 10.7528L240.372 22.9203C240.605 23.4468 243.114 28.5458 250.015 31.5581C255.704 34.0413 260.315 33.0657 258.31 33.2958L254.889 3.49147L251.469 -26.3129C254.62 -26.6746 264.005 -27.8021 274.018 -23.4316C285.243 -18.532 291.625 -9.50646 295.215 -1.4148L267.794 10.7528Z" fill="#6A38F3" mask="url(#path-68-inside-26_33_35)"/>
<mask id="path-70-inside-27_33_35" fill="white">
<path d="M397.916 234C400.549 229.294 400.549 136.5 392.65 112L405.65 129C405.431 161.8 400.713 229 397.916 234Z"/>
</mask>
<path d="M392.65 112L309.847 138.695L461.759 59.1518L392.65 112ZM405.65 129L474.759 76.1518L492.847 99.8048L492.648 129.58L405.65 129ZM392.65 112L475.453 85.3045C480.766 101.785 482.788 121.087 483.844 133.149C485.122 147.755 485.849 163.728 486.206 178.291C486.564 192.907 486.576 207.179 486.287 218.601C486.145 224.177 485.911 229.979 485.506 235.171C485.315 237.631 484.99 241.22 484.4 245.126C484.112 247.031 483.583 250.221 482.658 253.999C482.147 256.086 479.865 265.71 473.84 276.479L397.916 234L321.991 191.521C318.61 197.563 316.695 202.718 315.758 205.448C314.714 208.486 314.046 211 313.652 212.612C312.88 215.761 312.5 218.16 312.354 219.121C312.049 221.139 311.987 222.228 312.032 221.652C312.101 220.773 312.237 218.362 312.342 214.194C312.547 206.128 312.558 194.788 312.258 182.555C311.957 170.268 311.367 158.155 310.507 148.324C310.076 143.402 309.635 139.733 309.259 137.283C308.781 134.165 308.749 135.292 309.847 138.695L392.65 112ZM397.916 234L321.991 191.521C318.208 198.283 316.271 203.958 315.592 206.008C314.711 208.669 314.179 210.754 313.921 211.815C313.636 212.988 313.459 213.856 313.374 214.291C313.283 214.756 313.236 215.035 313.229 215.079C313.219 215.135 313.28 214.772 313.398 213.874C313.512 213.015 313.651 211.878 313.811 210.443C314.475 204.493 315.24 195.837 315.976 185.65C317.466 165.045 318.56 142.144 318.652 128.42L405.65 129L492.648 129.58C492.521 148.656 491.146 175.755 489.523 198.2C488.703 209.538 487.75 220.67 486.736 229.75C486.244 234.161 485.627 239.093 484.856 243.718C484.483 245.951 483.889 249.245 483.001 252.899C482.756 253.908 480.362 264.822 473.84 276.479L397.916 234ZM405.65 129L336.541 181.848L323.541 164.848L392.65 112L461.759 59.1518L474.759 76.1518L405.65 129Z" fill="#6A38F3" mask="url(#path-70-inside-27_33_35)"/>
<circle cx="415.5" cy="165.5" r="7.5" fill="white"/>
<circle cx="120.5" cy="160.5" r="7.5" fill="white"/>
<mask id="path-74-inside-28_33_35" fill="white">
<path d="M141.65 237.5C133.65 232.794 133.65 140 157.65 115.5L118.15 132.5C118.815 165.3 133.15 232.5 141.65 237.5Z"/>
</mask>
<path d="M157.65 115.5L219.799 176.381L123.257 35.5868L157.65 115.5ZM118.15 132.5L83.7569 52.5868L29.9812 75.7308L31.1678 134.263L118.15 132.5ZM157.65 115.5L95.5007 54.6192C73.2344 77.3493 64.0508 105.98 59.8234 121.873C54.7805 140.831 52.1521 160.52 50.8903 177.46C49.6217 194.49 49.5155 211.751 50.6565 226.574C51.2001 233.638 52.2131 242.734 54.3969 251.957C55.4426 256.373 57.4238 263.74 61.1865 271.933C63.4941 276.957 73.2659 298.21 97.5392 312.488L141.65 237.5L185.761 162.512C198.577 170.051 206.501 179.197 210.722 184.871C215.128 190.793 217.817 196.067 219.309 199.314C222.204 205.619 223.388 210.485 223.715 211.866C224.462 215.018 224.35 215.901 224.143 213.221C223.784 208.556 223.678 200.205 224.41 190.386C225.148 180.476 226.519 172.079 227.976 166.601C228.688 163.927 229.047 163.378 228.59 164.357C228.314 164.948 225.921 170.132 219.799 176.381L157.65 115.5ZM141.65 237.5L185.761 162.512C193.291 166.941 198.708 171.708 202.172 175.151C205.721 178.679 208.293 181.892 209.984 184.183C213.242 188.597 215.114 192.157 215.823 193.555C217.252 196.374 217.515 197.537 216.874 195.647C215.741 192.308 213.926 185.818 211.935 176.755C210.019 168.037 208.289 158.529 207.032 149.736C205.718 140.537 205.199 134.029 205.132 130.737L118.15 132.5L31.1678 134.263C31.6647 158.774 36.7006 190.028 41.9886 214.095C44.7266 226.557 48.1309 239.854 52.0974 251.546C54.0059 257.172 56.7883 264.662 60.631 272.241C62.5467 276.019 65.5985 281.568 70.0014 287.532C73.67 292.501 82.4872 303.634 97.5392 312.488L141.65 237.5ZM118.15 132.5L152.543 212.413L192.043 195.413L157.65 115.5L123.257 35.5868L83.7569 52.5868L118.15 132.5Z" fill="#6A38F3" mask="url(#path-74-inside-28_33_35)"/>
<mask id="path-76-inside-29_33_35" fill="white">
<path d="M496.5 408.5C500.053 370.511 370.167 300.571 318 286L342.219 344.212C368.188 365.013 432.562 408.134 446.368 409.794C435.682 420.405 395.209 476.375 376 507.5L382.5 553C417.927 529.833 493.415 441.485 496.5 408.5Z"/>
</mask>
<path d="M446.368 409.794L441.295 451.99L354.114 441.509L416.422 379.636L446.368 409.794ZM449 408.5L491.452 410.508L491.452 410.508L449 408.5ZM446.368 409.794L451.441 367.597C449.619 367.378 440.536 366.269 430.069 371.234C424.021 374.103 417.675 378.96 412.971 386.333C408.361 393.558 406.813 400.865 406.547 406.492L449 408.5L491.452 410.508C491.16 416.684 489.478 424.451 484.627 432.053C479.683 439.802 472.992 444.952 466.499 448.032C455.142 453.419 444.77 452.407 441.295 451.99L446.368 409.794ZM449 408.5L406.547 406.492C406.473 408.059 404.965 433.065 429.15 445.718C440.126 451.459 450.416 450.879 456.005 449.896C461.582 448.915 465.661 447.024 467.638 446.017C471.599 444 474.164 441.849 474.726 441.381C475.657 440.604 476.222 440.043 476.315 439.951L446.368 409.794L416.422 379.636C417.03 379.032 421.952 373.896 429.06 370.276C431.26 369.155 435.535 367.192 441.28 366.181C447.037 365.169 457.466 364.602 468.551 370.401C492.955 383.168 491.549 408.465 491.452 410.508L449 408.5ZM318 286L239.521 318.651L172.286 157.046L340.867 204.134L318 286ZM496.5 408.5L581.13 416.416L496.5 408.5ZM382.5 553L429.02 624.14L317.242 697.234L298.354 565.021L382.5 553ZM342.219 344.212L289.079 410.553L272.098 396.951L263.74 376.863L342.219 344.212ZM446.368 409.794L456.514 325.401L630.876 346.364L506.261 470.108L446.368 409.794ZM376 507.5L291.854 519.521L287.501 489.051L303.667 462.858L376 507.5ZM318 286L340.867 204.134C377.41 214.341 430.535 239.768 473.144 266.357C494.828 279.888 518.021 296.309 536.65 314.392C545.903 323.375 556.539 335.161 565.064 349.509C573.153 363.122 583.905 386.748 581.13 416.416L496.5 408.5L411.869 400.584C409.983 420.754 417.453 433.885 418.915 436.345C420.814 439.54 421.478 439.515 418.239 436.372C411.883 430.201 400.011 421.104 383.146 410.58C348.659 389.059 310.758 372.231 295.133 367.866L318 286ZM496.5 408.5L581.13 416.416C578.387 445.749 563.402 472.05 555.026 485.847C544.335 503.457 530.993 521.572 517.557 538.083C492.528 568.839 458.083 605.135 429.02 624.14L382.5 553L335.98 481.86C335.98 481.86 336.534 481.493 337.677 480.612C338.791 479.753 340.238 478.58 342.012 477.054C345.596 473.97 349.936 469.947 354.848 465.056C364.714 455.232 375.592 443.202 385.7 430.781C395.949 418.186 404.272 406.581 409.71 397.624C412.432 393.141 413.73 390.465 414.147 389.5C414.948 387.647 412.671 392.016 411.869 400.584L496.5 408.5ZM342.219 344.212L395.358 277.87C405.334 285.861 425.347 300.12 444.929 312.751C454.592 318.984 462.886 324 468.822 327.258C470.231 328.031 471.34 328.613 472.165 329.03C473.018 329.461 473.351 329.605 473.235 329.554C473.219 329.547 472.079 329.038 470.088 328.374C468.594 327.876 463.607 326.254 456.514 325.401L446.368 409.794L436.222 494.186C421.115 492.37 408.77 486.918 404.754 485.151C398.497 482.397 392.368 479.219 387.023 476.285C376.194 470.341 364.183 462.965 352.781 455.61C330.232 441.066 305.073 423.364 289.079 410.553L342.219 344.212ZM446.368 409.794L506.261 470.108C508.081 468.301 506.724 469.519 500.764 477.213C495.924 483.46 489.861 491.607 483.319 500.677C470.013 519.126 456.414 539.048 448.333 552.142L376 507.5L303.667 462.858C314.795 444.827 331.038 421.201 345.441 401.231C357.914 383.938 375.098 360.777 386.475 349.479L446.368 409.794ZM382.5 553L298.354 565.021L291.854 519.521L376 507.5L460.146 495.479L466.646 540.979L382.5 553ZM318 286L396.479 253.349L420.698 311.561L342.219 344.212L263.74 376.863L239.521 318.651L318 286Z" fill="#C6E700" mask="url(#path-76-inside-29_33_35)"/>
<mask id="path-78-inside-30_33_35" fill="white">
<path d="M444.648 375V503L416.148 526H322.648V398L351.648 375H444.648Z"/>
</mask>
<path d="M444.648 503L572.136 660.974L647.648 600.035V503H444.648ZM444.648 375H647.648V172H444.648V375ZM351.648 375V172H280.92L225.505 215.95L351.648 375ZM322.648 398L196.505 238.95L119.648 299.905V398H322.648ZM322.648 526H119.648V729H322.648V526ZM416.148 526V729H487.843L543.636 683.974L416.148 526ZM444.648 503H647.648V375H444.648H241.648V503H444.648ZM444.648 375V172H351.648V375V578H444.648V375ZM351.648 375L225.505 215.95L196.505 238.95L322.648 398L448.792 557.05L477.792 534.05L351.648 375ZM322.648 398H119.648V526H322.648H525.648V398H322.648ZM322.648 526V729H416.148V526V323H322.648V526ZM416.148 526L543.636 683.974L572.136 660.974L444.648 503L317.161 345.026L288.661 368.026L416.148 526Z" fill="black" mask="url(#path-78-inside-30_33_35)"/>
<path d="M322.648 398L351.648 375H444.648M322.648 398V526H416.148M322.648 398H416.148M444.648 375V503L416.148 526M444.648 375L416.148 398M416.148 526V398" stroke="#6A38F3" stroke-width="2" stroke-linecap="round"/>
<mask id="path-81-inside-31_33_35" fill="white">
<path d="M357.648 508V398L379.148 375H400.148L377.148 398V508H368.148H357.648Z"/>
</mask>
<path d="M357.648 364.5C339.147 364.5 324.148 379.498 324.148 398C324.148 416.502 339.147 431.5 357.648 431.5V398V364.5ZM377.148 431.5C395.65 431.5 410.648 416.502 410.648 398C410.648 379.498 395.65 364.5 377.148 364.5V398V431.5ZM377.148 398V364.5H357.648V398V431.5H377.148V398ZM357.648 398L308.703 352.247L290.648 371.561V398H357.648ZM357.648 508H290.648V575H357.648V508ZM377.148 508V575H444.148V508H377.148ZM377.148 398L329.772 350.624L310.148 370.248V398H377.148ZM400.148 375L447.525 422.376L561.901 308H400.148V375ZM379.148 375V308H350.064L330.203 329.247L379.148 375ZM357.648 398H290.648V508H357.648H424.648V398H357.648ZM357.648 508V575H368.148V508V441H357.648V508ZM368.148 508V575H377.148V508V441H368.148V508ZM377.148 508H444.148V398H377.148H310.148V508H377.148ZM377.148 398L424.525 445.376L447.525 422.376L400.148 375L352.772 327.624L329.772 350.624L377.148 398ZM400.148 375V308H379.148V375V442H400.148V375ZM379.148 375L330.203 329.247L308.703 352.247L357.648 398L406.594 443.753L428.094 420.753L379.148 375Z" fill="#6A38F3" mask="url(#path-81-inside-31_33_35)"/>
<mask id="path-83-inside-32_33_35" fill="white">
<path d="M427.648 388.5H336.148L342.648 382.5H435.148V467L427.648 473.5V388.5Z"/>
</mask>
<path d="M421.714 381.082C417.617 384.359 416.953 390.338 420.23 394.435C423.508 398.532 429.486 399.196 433.583 395.918L427.648 388.5L421.714 381.082ZM441.083 389.918C445.18 386.641 445.844 380.662 442.567 376.565C439.289 372.468 433.311 371.804 429.214 375.082L435.148 382.5L441.083 389.918ZM427.648 388.5L433.583 395.918L441.083 389.918L435.148 382.5L429.214 375.082L421.714 381.082L427.648 388.5ZM336.148 388.5L323.261 374.539L287.553 407.5H336.148V388.5ZM427.648 388.5H446.648V369.5H427.648V388.5ZM435.148 382.5H454.148V363.5H435.148V382.5ZM342.648 382.5V363.5H335.22L329.761 368.539L342.648 382.5ZM427.648 473.5H408.648V515.109L440.092 487.858L427.648 473.5ZM435.148 467L447.592 481.358L454.148 475.676V467H435.148ZM336.148 388.5V407.5H427.648V388.5V369.5H336.148V388.5ZM435.148 382.5V363.5H342.648V382.5V401.5H435.148V382.5ZM342.648 382.5L329.761 368.539L323.261 374.539L336.148 388.5L349.036 402.461L355.536 396.461L342.648 382.5ZM427.648 388.5H408.648V473.5H427.648H446.648V388.5H427.648ZM427.648 473.5L440.092 487.858L447.592 481.358L435.148 467L422.705 452.642L415.205 459.142L427.648 473.5ZM435.148 467H454.148V382.5H435.148H416.148V467H435.148Z" fill="#6A38F3" mask="url(#path-83-inside-32_33_35)"/>
<mask id="path-85-inside-33_33_35" fill="white">
<path d="M382.5 553C417.928 529.833 493.415 441.485 496.5 408.5H449C449.323 401.66 398.315 471.343 376 507.5L382.5 553Z"/>
</mask>
<path d="M318 286L357.239 269.674L381.458 327.886L342.219 344.212L302.98 360.537L278.761 302.326L318 286ZM496.5 408.5V323.5H589.821L581.131 416.416L496.5 408.5ZM382.5 553L429.02 624.14L317.242 697.234L298.354 565.021L382.5 553ZM449 408.5V493.5H359.885L364.095 404.485L449 408.5ZM376 507.5L291.854 519.521L287.502 489.051L303.667 462.858L376 507.5ZM496.5 408.5L581.131 416.416C578.387 445.749 563.402 472.05 555.026 485.847C544.335 503.457 530.993 521.572 517.557 538.083C492.528 568.839 458.083 605.135 429.02 624.14L382.5 553L335.98 481.86C335.98 481.86 336.534 481.493 337.677 480.612C338.791 479.753 340.238 478.58 342.012 477.054C345.597 473.97 349.936 469.947 354.848 465.056C364.714 455.232 375.592 443.202 385.7 430.781C395.95 418.186 404.273 406.581 409.71 397.624C412.432 393.141 413.73 390.465 414.147 389.5C414.949 387.647 412.671 392.016 411.869 400.584L496.5 408.5ZM449 408.5L364.095 404.485C363.892 408.768 361.523 448.047 396.972 475.387C434.837 504.59 474.318 489.284 479.852 487.086C490.36 482.912 497.368 477.598 499.268 476.152C502.132 473.973 504.147 472.125 505.053 471.274C507.83 468.667 508.67 467.395 506.314 470.238C502.797 474.481 496.892 482.133 489.474 492.223C474.666 512.367 457.812 536.784 448.334 552.142L376 507.5L303.667 462.858C316.503 442.059 336.311 413.556 352.505 391.529C360.587 380.534 368.769 369.788 375.423 361.759C378.152 358.466 383.098 352.59 388.69 347.34C390.299 345.829 392.937 343.442 396.339 340.854C398.776 339 406.236 333.406 417.105 329.089C423.001 326.748 462.753 311.434 500.793 340.772C536.417 368.247 534.128 407.805 533.905 412.515L449 408.5ZM382.5 553L298.354 565.021L291.854 519.521L376 507.5L460.146 495.479L466.646 540.979L382.5 553ZM449 408.5V323.5H496.5V408.5V493.5H449V408.5Z" fill="#C6E700" mask="url(#path-85-inside-33_33_35)"/>
<path d="M340.039 513.294L376.5 507L382.961 552.795L348.928 559.362L340.039 513.294Z" fill="#C6E700"/>
<mask id="path-88-inside-34_33_35" fill="white">
<path d="M311.458 527.951L344.455 521.584L342.131 512.891L311.002 518.897C298.685 524.671 305.759 527.419 311.458 527.951Z"/>
</mask>
<path d="M344.455 521.584L426.984 499.529L450.651 588.094L360.64 605.462L344.455 521.584ZM311.458 527.951L327.643 611.829L315.663 614.141L303.514 613.006L311.458 527.951ZM311.002 518.897L274.747 441.547L284.376 437.034L294.818 435.019L311.002 518.897ZM342.131 512.891L325.946 429.013L404.109 413.931L424.66 490.836L342.131 512.891ZM344.455 521.584L360.64 605.462L327.643 611.829L311.458 527.951L295.273 444.073L328.27 437.706L344.455 521.584ZM311.458 527.951L303.514 613.006C297.726 612.466 289.467 611.232 280.314 608.191C276.056 606.777 249.821 598.553 232.456 571.335C221.405 554.012 215.823 531.584 220.336 508.063C224.365 487.063 234.971 472.793 241.868 465.208C254.551 451.256 269.062 444.212 274.747 441.547L311.002 518.897L347.258 596.247C348.129 595.839 350.463 594.705 353.572 592.699C356.368 590.895 362.145 586.889 368.284 580.138C374.2 573.63 384.271 560.35 388.126 540.255C392.465 517.639 387.073 496.03 376.491 479.445C360.068 453.702 335.9 446.626 334.187 446.057C327.578 443.861 322.34 443.171 319.402 442.896L311.458 527.951ZM311.002 518.897L294.818 435.019L325.946 429.013L342.131 512.891L358.316 596.769L327.187 602.775L311.002 518.897ZM342.131 512.891L424.66 490.836L426.984 499.529L344.455 521.584L261.925 543.639L259.602 534.946L342.131 512.891Z" fill="#C6E700" mask="url(#path-88-inside-34_33_35)"/>
<mask id="path-90-inside-35_33_35" fill="white">
<path d="M311.181 541.718L347.006 534.805L344.629 526.122L310.832 532.643C297.404 538.631 305.019 541.275 311.181 541.718Z"/>
</mask>
<path d="M347.006 534.805L429.4 512.254L453.748 601.209L363.191 618.683L347.006 534.805ZM311.181 541.718L327.366 625.596L316.298 627.731L305.054 626.923L311.181 541.718ZM310.832 532.643L276.041 454.623L285.007 450.625L294.647 448.765L310.832 532.643ZM344.629 526.122L328.444 442.244L406.136 427.252L427.024 503.57L344.629 526.122ZM347.006 534.805L363.191 618.683L327.366 625.596L311.181 541.718L294.996 457.84L330.821 450.927L347.006 534.805ZM311.181 541.718L305.054 626.923C299.477 626.522 291.441 625.533 282.501 622.899C278.02 621.579 271.174 619.228 263.57 615.035C256.666 611.228 243.638 602.92 233.006 587.274C220.578 568.986 214.42 544.714 220.027 519.492C224.875 497.684 236.677 483.515 243.433 476.642C256.181 463.673 270.447 457.118 276.041 454.623L310.832 532.643L345.623 610.663C346.195 610.408 348.224 609.483 351.058 607.763C353.544 606.255 359.144 602.647 365.277 596.408C370.956 590.631 382.161 577.463 386.807 556.566C392.211 532.254 386.245 508.801 374.315 491.245C364.181 476.332 351.956 468.669 346.074 465.426C339.493 461.796 333.887 459.927 330.777 459.011C324.577 457.185 319.803 456.692 317.307 456.512L311.181 541.718ZM310.832 532.643L294.647 448.765L328.444 442.244L344.629 526.122L360.814 610L327.017 616.521L310.832 532.643ZM344.629 526.122L427.024 503.57L429.4 512.254L347.006 534.805L264.611 557.356L262.234 548.673L344.629 526.122Z" fill="#C6E700" mask="url(#path-90-inside-35_33_35)"/>
<mask id="path-92-inside-36_33_35" fill="white">
<path d="M316.53 553.256L350.469 546.707L348.128 538.017L316.11 544.195C303.422 550.04 310.676 552.753 316.53 553.256Z"/>
</mask>
<path d="M350.469 546.707L432.954 524.486L456.847 613.181L366.654 630.585L350.469 546.707ZM316.53 553.256L332.715 637.134L321.054 639.384L309.223 638.368L316.53 553.256ZM316.11 544.195L280.367 466.607L289.765 462.277L299.925 460.317L316.11 544.195ZM348.128 538.017L331.943 454.139L409.948 439.087L430.613 515.796L348.128 538.017ZM350.469 546.707L366.654 630.585L332.715 637.134L316.53 553.256L300.345 469.378L334.284 462.829L350.469 546.707ZM316.53 553.256L309.223 638.368C303.51 637.877 295.327 636.731 286.243 633.833C282.36 632.594 255.611 624.699 237.8 597.374C226.294 579.719 220.522 556.675 225.39 532.58C229.692 511.29 240.708 497.042 247.571 489.695C260.288 476.08 274.72 469.208 280.367 466.607L316.11 544.195L351.853 621.783C352.622 621.429 354.853 620.368 357.87 618.463C360.561 616.762 366.284 612.895 372.428 606.316C378.278 600.053 388.738 586.799 392.857 566.416C397.542 543.227 391.96 521.002 380.933 504.084C371.385 489.435 359.744 481.571 353.714 478.032C347.126 474.167 341.444 472.109 338.177 471.067C331.704 469.002 326.623 468.383 323.837 468.144L316.53 553.256ZM316.11 544.195L299.925 460.317L331.943 454.139L348.128 538.017L364.313 621.895L332.295 628.073L316.11 544.195ZM348.128 538.017L430.613 515.796L432.954 524.486L350.469 546.707L267.984 568.927L265.643 560.237L348.128 538.017Z" fill="#C6E700" mask="url(#path-92-inside-36_33_35)"/>
<mask id="path-94-inside-37_33_35" fill="white">
<path d="M323.582 564.465L352.808 558.826L350.556 550.118L322.984 555.439C312.147 560.927 318.499 563.814 323.582 564.465Z"/>
</mask>
<path d="M352.808 558.826L435.511 537.435L458.282 625.475L368.993 642.704L352.808 558.826ZM323.582 564.465L339.767 648.343L326.314 650.939L312.725 649.198L323.582 564.465ZM322.984 555.439L284.393 479.227L295.059 473.826L306.799 471.561L322.984 555.439ZM350.556 550.118L334.371 466.24L413.165 451.036L433.259 528.728L350.556 550.118ZM352.808 558.826L368.993 642.704L339.767 648.343L323.582 564.465L307.397 480.587L336.623 474.948L352.808 558.826ZM323.582 564.465L312.725 649.198C306.579 648.41 298.002 646.76 288.598 643.067C282.846 640.808 258.971 631.285 243.527 604.814C234.249 588.911 229.412 568.958 232.599 547.806C235.556 528.185 244.423 513.966 251.3 505.44C263.697 490.071 278.452 482.236 284.393 479.227L322.984 555.439L361.576 631.65C362.098 631.386 373.583 625.969 384.282 612.705C390.31 605.232 398.721 591.987 401.542 573.264C404.594 553.009 399.942 533.876 391.099 518.718C376.524 493.736 354.513 485.399 351.043 484.037C343.92 481.24 338.044 480.195 334.439 479.733L323.582 564.465ZM322.984 555.439L306.799 471.561L334.371 466.24L350.556 550.118L366.74 633.997L339.169 639.317L322.984 555.439ZM350.556 550.118L433.259 528.728L435.511 537.435L352.808 558.826L270.104 580.217L267.852 571.509L350.556 550.118Z" fill="#C6E700" mask="url(#path-94-inside-37_33_35)"/>
<mask id="path-96-inside-38_33_35" fill="white">
<path d="M310.752 525.046L309.995 521.125C309.144 521.459 307.326 522.449 306.866 523.741C306.406 525.033 309.265 525.149 310.752 525.046Z"/>
</mask>
<path d="M309.995 521.125L375.782 508.431L360.523 429.354L285.543 458.746L309.995 521.125ZM310.752 525.046L315.401 591.884L390.872 586.635L376.538 512.352L310.752 525.046ZM306.866 523.741L243.749 501.263L243.749 501.263L306.866 523.741ZM309.995 521.125L244.209 533.819L244.965 537.74L310.752 525.046L376.538 512.352L375.782 508.431L309.995 521.125ZM310.752 525.046L306.103 458.207C308.119 458.067 314.039 457.702 321.89 459.356C324.471 459.899 337.505 462.532 350.251 473.275C357.695 479.55 366.654 490.009 371.145 505.36C375.741 521.07 373.791 535.527 369.983 546.219L306.866 523.741L243.749 501.263C239.827 512.278 237.865 527.021 242.536 542.985C247.1 558.589 256.219 569.268 263.89 575.734C277.088 586.858 290.844 589.756 294.268 590.478C303.805 592.487 311.898 592.128 315.401 591.884L310.752 525.046ZM306.866 523.741L369.983 546.219C366.414 556.242 361.165 563.226 357.528 567.321C353.788 571.534 350.208 574.425 347.755 576.213C343.165 579.559 338.654 581.855 334.448 583.504L309.995 521.125L285.543 458.746C280.485 460.729 274.64 463.687 268.813 467.934C264.574 471.025 250.787 481.501 243.749 501.263L306.866 523.741Z" fill="#6A38F3" mask="url(#path-96-inside-38_33_35)"/>
<mask id="path-98-inside-39_33_35" fill="white">
<path d="M309.396 539.54L308.639 535.62C307.788 535.954 305.97 536.944 305.51 538.236C305.05 539.528 307.909 539.644 309.396 539.54Z"/>
</mask>
<path d="M308.639 535.62L374.426 522.926L359.167 443.849L284.187 473.241L308.639 535.62ZM309.396 539.54L314.045 606.379L389.516 601.13L375.182 526.846L309.396 539.54ZM305.51 538.236L242.393 515.758L242.393 515.758L305.51 538.236ZM308.639 535.62L242.853 548.314L243.609 552.235L309.396 539.54L375.182 526.846L374.426 522.926L308.639 535.62ZM309.396 539.54L304.747 472.702C306.763 472.562 312.683 472.196 320.534 473.85C323.115 474.394 336.149 477.027 348.895 487.77C356.339 494.044 365.298 504.504 369.789 519.854C374.385 535.565 372.435 550.022 368.627 560.713L305.51 538.236L242.393 515.758C238.471 526.773 236.509 541.516 241.18 557.48C245.745 573.083 254.863 583.763 262.534 590.229C275.732 601.353 289.488 604.251 292.912 604.972C302.449 606.982 310.542 606.623 314.045 606.379L309.396 539.54ZM305.51 538.236L368.627 560.713C365.058 570.737 359.809 577.721 356.172 581.816C352.432 586.028 348.852 588.919 346.399 590.708C341.809 594.054 337.298 596.349 333.092 597.998L308.639 535.62L284.187 473.241C279.129 475.224 273.284 478.181 267.457 482.429C263.218 485.52 249.431 495.996 242.393 515.758L305.51 538.236Z" fill="#6A38F3" mask="url(#path-98-inside-39_33_35)"/>
<mask id="path-100-inside-40_33_35" fill="white">
<path d="M314.668 550.723L313.912 546.802C313.06 547.136 311.243 548.126 310.783 549.418C310.323 550.71 313.181 550.826 314.668 550.723Z"/>
</mask>
<path d="M313.912 546.802L379.698 534.108L364.44 455.032L289.46 484.424L313.912 546.802ZM314.668 550.723L319.317 617.562L394.788 612.312L380.455 538.029L314.668 550.723ZM310.783 549.418L247.666 526.941L247.666 526.941L310.783 549.418ZM313.912 546.802L248.125 559.496L248.882 563.417L314.668 550.723L380.455 538.029L379.698 534.108L313.912 546.802ZM314.668 550.723L310.02 483.884C312.035 483.744 317.956 483.379 325.807 485.033C328.387 485.577 341.422 488.21 354.167 498.952C361.611 505.227 370.57 515.686 375.061 531.037C379.657 546.747 377.707 561.204 373.9 571.896L310.783 549.418L247.666 526.941C243.743 537.956 241.782 552.699 246.452 568.662C251.017 584.266 260.136 594.946 267.806 601.411C281.005 612.536 294.761 615.434 298.184 616.155C307.721 618.164 315.814 617.805 319.317 617.562L314.668 550.723ZM310.783 549.418L373.9 571.896C370.33 581.919 365.081 588.904 361.445 592.999C357.704 597.211 354.124 600.102 351.671 601.89C347.082 605.236 342.571 607.532 338.364 609.181L313.912 546.802L289.46 484.424C284.402 486.406 278.556 489.364 272.73 493.612C268.49 496.703 254.704 507.178 247.666 526.941L310.783 549.418Z" fill="#6A38F3" mask="url(#path-100-inside-40_33_35)"/>
<mask id="path-102-inside-41_33_35" fill="white">
<path d="M323.133 562.306L322.376 558.386C321.525 558.719 319.707 559.71 319.247 561.002C318.787 562.294 321.646 562.41 323.133 562.306Z"/>
</mask>
<path d="M322.376 558.386L388.163 545.692L372.904 466.615L297.924 496.007L322.376 558.386ZM323.133 562.306L327.781 629.145L403.253 623.896L388.919 549.612L323.133 562.306ZM319.247 561.002L256.13 538.524L256.13 538.524L319.247 561.002ZM322.376 558.386L256.59 571.08L257.346 575L323.133 562.306L388.919 549.612L388.163 545.692L322.376 558.386ZM323.133 562.306L318.484 495.468C320.5 495.328 326.42 494.962 334.271 496.616C336.852 497.16 349.886 499.793 362.631 510.536C370.076 516.81 379.035 527.27 383.526 542.62C388.122 558.33 386.172 572.787 382.364 583.479L319.247 561.002L256.13 538.524C252.207 549.539 250.246 564.282 254.916 580.246C259.481 595.849 268.6 606.529 276.271 612.995C289.469 624.119 303.225 627.017 306.648 627.738C316.186 629.747 324.279 629.389 327.781 629.145L323.133 562.306ZM319.247 561.002L382.364 583.479C378.795 593.503 373.546 600.487 369.909 604.582C366.169 608.794 362.589 611.685 360.136 613.474C355.546 616.82 351.035 619.115 346.828 620.764L322.376 558.386L297.924 496.007C292.866 497.99 287.021 500.947 281.194 505.195C276.955 508.286 263.168 518.762 256.13 538.524L319.247 561.002Z" fill="#6A38F3" mask="url(#path-102-inside-41_33_35)"/>
</svg>
