<svg width="832" height="1129" viewBox="0 0 832 1129" fill="none" xmlns="http://www.w3.org/2000/svg">
<mask id="path-1-inside-1_28_275" fill="white">
<path d="M422.757 178C426.424 205.881 370.342 263.252 366.162 270.49H367.574C365.979 271.53 365.599 271.465 366.162 270.49H292.757L422.757 178Z"/>
</mask>
<path d="M422.757 178L535.783 163.133L511.071 -24.7395L356.67 85.1106L422.757 178ZM367.574 270.49L429.848 365.978L751.068 156.49H367.574V270.49ZM292.757 270.49L226.67 177.6L-64.1266 384.49H292.757V270.49ZM422.757 178L309.731 192.867C307.515 176.022 310.455 163.646 311.774 158.936C312.563 156.118 313.327 154.116 313.771 153.033C314.226 151.922 314.523 151.345 314.524 151.343C314.533 151.326 314.364 151.656 313.953 152.351C313.548 153.037 312.983 153.951 312.232 155.095C310.7 157.432 308.719 160.238 306.285 163.477C301.317 170.083 295.792 176.737 290.304 183.214C288.007 185.926 284.661 189.843 282.301 192.68C281.045 194.19 279.265 196.352 277.44 198.705C276.511 199.904 275.213 201.61 273.775 203.634C272.528 205.389 270.082 208.906 267.439 213.484L366.162 270.49L464.886 327.496C459.451 336.908 453.361 343.565 457.588 338.483C459.081 336.688 460.774 334.718 464.265 330.597C470.353 323.411 479.403 312.622 488.52 300.496C497.236 288.903 508.453 272.907 517.574 255.049C524.264 241.949 541.483 206.467 535.783 163.133L422.757 178ZM366.162 270.49L267.439 213.484C267 214.245 256.606 230.894 253.139 254.431C251.405 266.198 248.104 300.991 271.976 335.742C299.453 375.741 340.295 384.386 361.927 385.171C381.659 385.887 396.638 381.237 402.083 379.435C409.066 377.125 414.426 374.602 417.395 373.124C423.35 370.161 427.87 367.268 429.848 365.978L367.574 270.49L305.3 175.002C306.48 174.232 310.354 171.721 315.807 169.007C318.525 167.654 323.67 165.223 330.472 162.973C335.737 161.232 350.57 156.609 370.191 157.321C391.711 158.101 432.474 166.711 459.906 206.644C483.732 241.328 480.419 276.024 478.703 287.665C475.273 310.947 465.043 327.223 464.886 327.496L366.162 270.49ZM367.574 270.49V156.49H366.162V270.49V384.49H367.574V270.49ZM366.162 270.49V156.49H292.757V270.49V384.49H366.162V270.49ZM292.757 270.49L358.844 363.38L488.844 270.89L422.757 178L356.67 85.1106L226.67 177.6L292.757 270.49Z" fill="#6A38F3" mask="url(#path-1-inside-1_28_275)"/>
<mask id="path-3-inside-2_28_275" fill="white">
<path d="M406.935 256.28C392.152 242.483 407.741 211.741 417.383 198.095L392.358 232.975C384.891 248.832 398.965 255.118 406.935 256.28Z"/>
</mask>
<path d="M417.383 198.095L488.436 248.3L346.695 147.378L417.383 198.095ZM406.935 256.28L394.392 342.371L669.679 382.481L466.294 192.675L406.935 256.28ZM392.358 232.975L321.67 182.258L317.035 188.718L313.648 195.911L392.358 232.975ZM417.383 198.095L346.331 147.89C337.875 159.857 326.251 179.645 319.505 202.684C314.632 219.326 301.264 276.664 347.577 319.885L406.935 256.28L466.294 192.675C481.545 206.908 486.57 224.106 487.604 235.257C488.505 244.983 486.642 251.072 486.494 251.578C486.17 252.685 486.156 252.375 486.932 250.871C487.249 250.256 487.593 249.647 487.918 249.112C488.251 248.563 488.451 248.278 488.436 248.3L417.383 198.095ZM406.935 256.28L419.479 170.189C425.665 171.09 441.458 174.228 456.361 189.621C465.411 198.968 474.024 213.073 476.538 231.178C478.978 248.751 474.622 262.49 471.068 270.038L392.358 232.975L313.648 195.911C306.36 211.388 300.964 231.859 304.191 255.107C307.493 278.887 318.723 297.609 331.354 310.655C353.42 333.446 380.236 340.308 394.392 342.371L406.935 256.28ZM392.358 232.975L463.046 283.692L488.071 248.812L417.383 198.095L346.695 147.378L321.67 182.258L392.358 232.975Z" fill="#6A38F3" mask="url(#path-3-inside-2_28_275)"/>
<mask id="path-5-inside-3_28_275" fill="white">
<path d="M392.468 290.478C368.579 273.917 387.17 244.086 399.452 231.241L367.499 264.017C358.759 279.488 380.503 288.104 392.468 290.478Z"/>
</mask>
<path d="M399.452 231.241L462.334 291.364L337.157 170.51L399.452 231.241ZM392.468 290.478L375.535 375.814L442.035 218.979L392.468 290.478ZM367.499 264.017L305.203 203.286L297.311 211.382L291.75 221.225L367.499 264.017ZM399.452 231.241L336.57 171.117C324.832 183.394 307.231 206.008 298.775 235.454C294.271 251.14 291.033 273.562 297.708 298.52C304.866 325.284 321.341 347.03 342.901 361.977L392.468 290.478L442.035 218.979C451.65 225.645 461.491 237.452 465.8 253.563C469.626 267.869 467.324 278.926 466.017 283.477C465.294 285.995 464.542 287.728 464.101 288.654C463.648 289.605 463.313 290.147 463.199 290.327C463.096 290.487 462.999 290.669 462.334 291.364L399.452 231.241ZM392.468 290.478L409.4 205.141C409.51 205.163 415.504 205.864 424.458 212.588C429.417 216.311 442.028 227.014 448.65 247.087C456.429 270.665 451.282 292.587 443.247 306.81L367.499 264.017L291.75 221.225C279.346 243.183 273.639 271.984 283.411 301.602C292.026 327.716 309.183 343.622 319.98 351.73C340.613 367.222 363.461 373.418 375.535 375.814L392.468 290.478ZM367.499 264.017L429.794 324.749L461.748 291.972L399.452 231.241L337.157 170.51L305.203 203.286L367.499 264.017Z" fill="#6A38F3" mask="url(#path-5-inside-3_28_275)"/>
<mask id="path-7-inside-4_28_275" fill="white">
<path d="M368.711 269.006C368.731 268.999 368.746 268.998 368.757 269.005L368.711 269.006C367.836 269.318 358.341 282.593 368.757 295.005C358.554 289.04 321.744 282.954 310.757 270.5L368.711 269.006Z"/>
</mask>
<path d="M368.757 269.005L371 355.976L673.726 348.17L413.019 194.105L368.757 269.005ZM368.757 295.005L324.845 370.11L435.399 239.078L368.757 295.005ZM310.757 270.5L308.514 183.529L122.25 188.332L245.517 328.056L310.757 270.5ZM368.757 269.005L413.019 194.105C379.083 174.051 347.201 184.314 339.522 187.049L368.711 269.006L397.901 350.963C392.279 352.965 382.933 355.653 371.051 355.969C358.691 356.298 341.648 354.04 324.495 343.904L368.757 269.005ZM368.711 269.006L339.521 187.049C325.542 192.028 316.369 199.448 314.269 201.127C310.603 204.058 307.888 206.716 306.327 208.308C303.111 211.589 300.72 214.536 299.254 216.428C296.139 220.451 293.547 224.455 291.423 228.158C287.17 235.571 282.749 245.333 279.914 257.116C273.734 282.8 275.508 319.227 302.115 350.931L368.757 295.005L435.399 239.078C451.59 258.371 452.903 281.954 449.086 297.819C447.432 304.693 444.898 310.302 442.346 314.751C441.072 316.971 439.285 319.79 436.815 322.978C435.673 324.453 433.565 327.071 430.579 330.118C429.133 331.592 426.52 334.156 422.94 337.018C420.928 338.628 411.826 346.003 397.902 350.963L368.711 269.006ZM368.757 295.005L412.669 219.9C405.268 215.573 398.389 212.829 394.688 211.423C390.452 209.813 386.357 208.471 383.236 207.481C380.092 206.484 376.718 205.465 374.148 204.682C371.33 203.825 368.978 203.103 366.765 202.389C364.57 201.68 362.893 201.102 361.602 200.621C360.277 200.128 359.794 199.898 359.926 199.96C359.968 199.98 361.498 200.684 363.871 202.249C366.081 203.705 370.824 207.08 375.997 212.944L310.757 270.5L245.517 328.056C260.182 344.679 277.539 353.511 286.114 357.528C296.254 362.279 306.306 365.714 313.337 367.983C317.05 369.181 320.611 370.269 323.49 371.145C326.616 372.096 328.721 372.733 330.634 373.34C332.571 373.954 333.112 374.163 332.885 374.077C332.714 374.012 331.955 373.721 330.799 373.201C329.719 372.714 327.574 371.705 324.845 370.11L368.757 295.005ZM310.757 270.5L313 357.471L370.954 355.977L368.711 269.006L366.469 182.035L308.514 183.529L310.757 270.5ZM368.711 269.006L370.954 355.977L371 355.976L368.757 269.005L366.514 182.034L366.469 182.035L368.711 269.006Z" fill="#6A38F3" mask="url(#path-7-inside-4_28_275)"/>
<mask id="path-9-inside-5_28_275" fill="white">
<path d="M138.992 178C135.325 205.881 191.407 263.252 195.586 270.49H194.175C195.77 271.53 196.15 271.465 195.586 270.49H268.992L138.992 178Z"/>
</mask>
<path d="M138.992 178L25.9655 163.133L50.6779 -24.7395L205.079 85.1106L138.992 178ZM194.175 270.49L131.901 365.978L-189.319 156.49H194.175V270.49ZM268.992 270.49L335.079 177.6L625.875 384.49H268.992V270.49ZM138.992 178L252.018 192.867C254.234 176.022 251.294 163.646 249.975 158.936C249.185 156.118 248.422 154.116 247.978 153.033C247.523 151.922 247.225 151.345 247.225 151.343C247.216 151.326 247.385 151.656 247.796 152.351C248.201 153.037 248.766 153.951 249.517 155.095C251.049 157.432 253.03 160.238 255.464 163.477C260.432 170.083 265.957 176.737 271.445 183.214C273.742 185.926 277.088 189.843 279.448 192.68C280.704 194.19 282.484 196.352 284.309 198.705C285.238 199.904 286.536 201.61 287.974 203.634C289.221 205.389 291.666 208.906 294.31 213.484L195.586 270.49L96.8629 327.496C102.298 336.908 108.388 343.565 104.161 338.483C102.668 336.688 100.975 334.718 97.4843 330.597C91.3959 323.411 82.3461 312.622 73.229 300.496C64.5127 288.903 53.2957 272.907 44.1752 255.049C37.4845 241.949 20.2655 206.467 25.9655 163.133L138.992 178ZM195.586 270.49L294.31 213.484C294.749 214.245 305.143 230.894 308.61 254.431C310.344 266.198 313.645 300.991 289.773 335.742C262.296 375.741 221.454 384.386 199.822 385.171C180.089 385.887 165.11 381.237 159.666 379.435C152.683 377.125 147.323 374.602 144.354 373.124C138.399 370.161 133.879 367.268 131.901 365.978L194.175 270.49L256.449 175.002C255.268 174.232 251.395 171.721 245.942 169.007C243.224 167.654 238.079 165.223 231.276 162.973C226.012 161.232 211.179 156.609 191.558 157.321C170.038 158.101 129.275 166.711 101.843 206.644C78.0169 241.328 81.3304 276.024 83.0454 287.665C86.4758 310.947 96.7054 327.223 96.8629 327.496L195.586 270.49ZM194.175 270.49V156.49H195.586V270.49V384.49H194.175V270.49ZM195.586 270.49V156.49H268.992V270.49V384.49H195.586V270.49ZM268.992 270.49L202.905 363.38L72.9048 270.89L138.992 178L205.079 85.1106L335.079 177.6L268.992 270.49Z" fill="#6A38F3" mask="url(#path-9-inside-5_28_275)"/>
<mask id="path-11-inside-6_28_275" fill="white">
<path d="M154.814 256.28C169.597 242.483 154.008 211.741 144.365 198.095L169.391 232.975C176.858 248.832 162.784 255.118 154.814 256.28Z"/>
</mask>
<path d="M144.365 198.095L73.313 248.3L215.053 147.378L144.365 198.095ZM154.814 256.28L167.357 342.371L-107.93 382.481L95.4554 192.675L154.814 256.28ZM169.391 232.975L240.079 182.258L244.714 188.718L248.101 195.911L169.391 232.975ZM144.365 198.095L215.418 147.89C223.874 159.857 235.498 179.645 242.244 202.684C247.117 219.326 260.485 276.664 214.172 319.885L154.814 256.28L95.4554 192.675C80.2041 206.908 75.179 224.106 74.1453 235.257C73.2436 244.983 75.1066 251.072 75.2547 251.578C75.5788 252.685 75.5925 252.375 74.8174 250.871C74.5 250.256 74.156 249.647 73.831 249.112C73.4978 248.563 73.2976 248.278 73.313 248.3L144.365 198.095ZM154.814 256.28L142.27 170.189C136.084 171.09 120.291 174.228 105.388 189.621C96.3375 198.968 87.7245 213.073 85.2108 231.178C82.771 248.751 87.1266 262.49 90.6807 270.038L169.391 232.975L248.101 195.911C255.389 211.388 260.785 231.859 257.558 255.107C254.256 278.887 243.026 297.609 230.395 310.655C208.328 333.446 181.513 340.308 167.357 342.371L154.814 256.28ZM169.391 232.975L98.7031 283.692L73.6775 248.812L144.365 198.095L215.053 147.378L240.079 182.258L169.391 232.975Z" fill="#6A38F3" mask="url(#path-11-inside-6_28_275)"/>
<mask id="path-13-inside-7_28_275" fill="white">
<path d="M169.281 290.478C193.17 273.917 174.579 244.086 162.297 231.241L194.25 264.017C202.99 279.488 181.246 288.104 169.281 290.478Z"/>
</mask>
<path d="M162.297 231.241L99.4147 291.364L224.592 170.51L162.297 231.241ZM169.281 290.478L186.214 375.814L119.714 218.979L169.281 290.478ZM194.25 264.017L256.546 203.286L264.438 211.382L269.999 221.225L194.25 264.017ZM162.297 231.241L225.179 171.117C236.917 183.394 254.518 206.008 262.974 235.454C267.478 251.14 270.716 273.562 264.041 298.52C256.883 325.284 240.408 347.03 218.848 361.977L169.281 290.478L119.714 218.979C110.099 225.645 100.258 237.452 95.949 253.563C92.1228 267.869 94.4249 278.926 95.732 283.477C96.4549 285.995 97.2074 287.728 97.6479 288.654C98.1007 289.605 98.436 290.147 98.5504 290.327C98.6525 290.487 98.7495 290.669 99.4147 291.364L162.297 231.241ZM169.281 290.478L152.349 205.141C152.238 205.163 146.245 205.864 137.291 212.588C132.332 216.311 119.721 227.014 113.099 247.087C105.32 270.665 110.467 292.587 118.502 306.81L194.25 264.017L269.999 221.225C282.403 243.183 288.11 271.984 278.338 301.602C269.723 327.716 252.566 343.622 241.769 351.73C221.136 367.222 198.288 373.418 186.214 375.814L169.281 290.478ZM194.25 264.017L131.955 324.749L100.001 291.972L162.297 231.241L224.592 170.51L256.546 203.286L194.25 264.017Z" fill="#6A38F3" mask="url(#path-13-inside-7_28_275)"/>
<mask id="path-15-inside-8_28_275" fill="white">
<path d="M193.038 269.006C193.018 268.999 193.003 268.998 192.992 269.005L193.038 269.006C193.913 269.318 203.408 282.593 192.992 295.005C203.194 289.04 240.005 282.954 250.992 270.5L193.038 269.006Z"/>
</mask>
<path d="M192.992 269.005L190.749 355.976L-111.977 348.17L148.73 194.105L192.992 269.005ZM192.992 295.005L236.904 370.11L126.35 239.078L192.992 295.005ZM250.992 270.5L253.235 183.529L439.499 188.332L316.232 328.056L250.992 270.5ZM192.992 269.005L148.73 194.105C182.666 174.051 214.548 184.314 222.227 187.049L193.038 269.006L163.848 350.963C169.47 352.965 178.816 355.653 190.698 355.969C203.058 356.298 220.101 354.04 237.254 343.904L192.992 269.005ZM193.038 269.006L222.228 187.049C236.207 192.028 245.38 199.448 247.48 201.127C251.146 204.058 253.861 206.716 255.422 208.308C258.638 211.589 261.029 214.536 262.495 216.428C265.61 220.451 268.201 224.455 270.326 228.158C274.579 235.571 279 245.333 281.835 257.116C288.015 282.8 286.241 319.227 259.634 350.931L192.992 295.005L126.35 239.078C110.159 258.371 108.846 281.954 112.663 297.819C114.317 304.693 116.851 310.302 119.403 314.751C120.677 316.971 122.464 319.79 124.934 322.978C126.076 324.453 128.184 327.071 131.17 330.118C132.616 331.592 135.229 334.156 138.808 337.018C140.821 338.628 149.923 346.003 163.847 350.963L193.038 269.006ZM192.992 295.005L149.08 219.9C156.481 215.573 163.36 212.829 167.061 211.423C171.297 209.813 175.392 208.471 178.513 207.481C181.657 206.484 185.031 205.465 187.601 204.682C190.419 203.825 192.771 203.103 194.984 202.389C197.179 201.68 198.856 201.102 200.147 200.621C201.472 200.128 201.955 199.898 201.823 199.96C201.781 199.98 200.251 200.684 197.878 202.249C195.668 203.705 190.925 207.08 185.752 212.944L250.992 270.5L316.232 328.056C301.567 344.679 284.21 353.511 275.635 357.528C265.495 362.279 255.443 365.714 248.412 367.983C244.699 369.181 241.138 370.269 238.259 371.145C235.133 372.096 233.027 372.733 231.115 373.34C229.178 373.954 228.637 374.163 228.864 374.077C229.035 374.012 229.794 373.721 230.95 373.201C232.029 372.714 234.175 371.705 236.904 370.11L192.992 295.005ZM250.992 270.5L248.749 357.471L190.795 355.977L193.038 269.006L195.28 182.035L253.235 183.529L250.992 270.5ZM193.038 269.006L190.795 355.977L190.749 355.976L192.992 269.005L195.235 182.034L195.28 182.035L193.038 269.006Z" fill="#6A38F3" mask="url(#path-15-inside-8_28_275)"/>
<ellipse cx="280.277" cy="150.611" rx="146.684" ry="121.394" fill="#C6E700"/>
<path d="M267.152 168C265.789 187.735 295.949 187.23 292.717 168" stroke="black" stroke-width="3.37205" stroke-linecap="round"/>
<mask id="path-19-inside-9_28_275" fill="white">
<path d="M112.043 137.25C120.446 119.03 140.24 126.024 147.911 135.428L140.419 165.234C128.242 161.078 103.639 155.47 112.043 137.25Z"/>
</mask>
<path d="M147.911 135.428L242.598 58.1802L281.381 105.719L266.424 165.219L147.911 135.428ZM112.043 137.25L1.07767 86.0702L1.07769 86.0701L112.043 137.25ZM140.419 165.234L258.931 195.025L226.571 323.756L100.949 280.884L140.419 165.234ZM147.911 135.428L53.2254 212.676C68.3881 231.261 90.6731 245.029 118.947 247.656C135.53 249.196 157.572 246.976 179.602 234.699C202.205 222.102 215.883 203.879 223.008 188.43L112.043 137.25L1.07769 86.0701C12.4049 61.5112 31.7075 37.3309 60.6258 21.2146C88.9696 5.41849 118.015 2.11778 141.557 4.30505C183.746 8.22486 219.763 30.1909 242.598 58.1802L147.911 135.428ZM112.043 137.25L223.008 188.43C232.273 168.343 238.335 136.052 224.002 101.685C211.743 72.2922 191.151 57.8796 183.951 53.3143C179.52 50.5048 175.973 48.8023 174.119 47.9659C172.196 47.0989 170.978 46.6663 170.936 46.6509C170.913 46.6428 171.276 46.773 172.818 47.2694C173.625 47.5292 177.04 48.6125 179.888 49.5844L140.419 165.234L100.949 280.884C107.422 283.093 90.5288 277.455 88.3967 276.69C81.5055 274.218 67.6793 268.978 53.0757 259.718C39.2535 250.954 13.3256 231.463 -1.56366 195.765C-18.5274 155.092 -12.3891 115.268 1.07767 86.0702L112.043 137.25ZM140.419 165.234L21.9066 135.443L29.3992 105.637L147.911 135.428L266.424 165.219L258.931 195.025L140.419 165.234Z" fill="#C6E700" mask="url(#path-19-inside-9_28_275)"/>
<path d="M124.466 139.798L138.939 150.736L128.593 153.282" stroke="black" stroke-width="1.17288" stroke-linecap="round"/>
<mask id="path-22-inside-10_28_275" fill="white">
<path d="M442.873 139.25C434.469 121.03 414.676 128.024 407.004 137.428L414.497 167.234C426.674 163.078 451.276 157.47 442.873 139.25Z"/>
</mask>
<path d="M407.004 137.428L312.318 60.1802L273.535 107.719L288.492 167.219L407.004 137.428ZM442.873 139.25L553.838 88.0702L553.838 88.0701L442.873 139.25ZM414.497 167.234L295.984 197.025L328.344 325.756L453.966 282.884L414.497 167.234ZM407.004 137.428L501.69 214.676C486.527 233.261 464.242 247.029 435.969 249.656C419.385 251.196 397.343 248.976 375.314 236.699C352.71 224.102 339.033 205.879 331.907 190.43L442.873 139.25L553.838 88.0701C542.511 63.5112 523.208 39.3309 494.29 23.2146C465.946 7.41849 436.901 4.11778 413.359 6.30505C371.17 10.2249 335.152 32.1909 312.318 60.1802L407.004 137.428ZM442.873 139.25L331.907 190.43C322.642 170.343 316.58 138.052 330.914 103.685C343.173 74.2922 363.765 59.8796 370.965 55.3143C375.396 52.5048 378.943 50.8023 380.797 49.9659C382.719 49.0989 383.937 48.6663 383.98 48.6509C384.002 48.6428 383.639 48.773 382.098 49.2694C381.291 49.5292 377.875 50.6125 375.027 51.5844L414.497 167.234L453.966 282.884C447.493 285.093 464.387 279.455 466.519 278.69C473.41 276.218 487.236 270.978 501.84 261.718C515.662 252.954 541.59 233.463 556.479 197.765C573.443 157.092 567.305 117.268 553.838 88.0702L442.873 139.25ZM414.497 167.234L533.009 137.443L525.516 107.637L407.004 137.428L288.492 167.219L295.984 197.025L414.497 167.234Z" fill="#C6E700" mask="url(#path-22-inside-10_28_275)"/>
<path d="M430.45 141.798L415.976 152.736L426.323 155.282" stroke="black" stroke-width="1.17288" stroke-linecap="round"/>
<path d="M325.799 120.397C329.763 119.835 338.232 120.734 340.401 128.827" stroke="black" stroke-width="2.24803" stroke-linecap="round"/>
<path d="M239.24 121.521C235.276 120.959 226.807 121.858 224.639 129.951" stroke="black" stroke-width="2.24803" stroke-linecap="round"/>
<path d="M321.303 164.099V139.37" stroke="black" stroke-width="10.1162" stroke-linecap="round"/>
<path d="M320.256 135.5L320.756 128M323.256 135.5L325.256 128M325.256 137.5L329.256 130.5" stroke="black" stroke-width="3" stroke-linecap="round"/>
<path d="M243.06 164.099V139.37" stroke="black" stroke-width="10.1162" stroke-linecap="round"/>
<path d="M244.107 135.5L243.607 128M241.107 135.5L239.107 128M239.107 137.5L235.107 130.5" stroke="black" stroke-width="3" stroke-linecap="round"/>
<path d="M284.233 397.959C284.467 398.873 284.702 399.804 284.935 400.751C290.482 423.326 294.1 448.258 296.702 473.82H268.843C271.557 453.502 275.325 432.266 280.363 412.205C281.631 407.157 282.927 402.41 284.233 397.959Z" stroke="#6A38F3" stroke-width="186.587" stroke-linecap="round"/>
<path d="M332.922 348.003C331.306 348.053 330.056 349.403 330.106 351.003C330.122 351.403 330.206 351.786 330.372 352.169L330.856 353.236C330.922 353.453 330.806 353.686 330.572 353.753C330.422 353.836 330.256 353.753 330.139 353.619L329.439 352.703C328.889 352.003 328.056 351.569 327.172 351.553C325.556 351.519 324.222 352.803 324.189 354.403C324.172 355.103 324.406 355.769 324.839 356.336L325.539 357.169H325.556C325.689 357.386 325.639 357.653 325.456 357.786C325.306 357.903 325.106 357.903 324.972 357.786L324.089 357.086C323.522 356.653 322.839 356.419 322.156 356.436C320.556 356.469 319.272 357.803 319.306 359.419C319.322 360.303 319.756 361.136 320.456 361.686L321.406 362.419C321.589 362.586 321.589 362.853 321.389 363.003C321.334 363.06 321.263 363.098 321.186 363.113C321.108 363.128 321.028 363.119 320.956 363.086H320.939L319.922 362.619C319.539 362.469 319.156 362.369 318.756 362.353C317.156 362.303 315.806 363.569 315.756 365.186C315.756 366.386 316.422 367.486 317.522 367.953L336.506 376.403L344.156 368.753L335.706 349.769C335.239 348.653 334.089 347.953 332.922 348.003ZM334.306 354.836C335.006 354.819 335.639 355.219 335.906 355.853L340.989 367.253L334.406 360.686L332.856 357.169C332.356 356.119 333.122 354.869 334.306 354.836ZM328.839 359.419C329.289 359.419 329.706 359.586 330.022 359.919L338.039 367.936C338.706 368.569 338.722 369.619 338.089 370.286C337.422 370.953 336.389 370.969 335.689 370.286L327.672 362.269C327.514 362.118 327.387 361.937 327.299 361.737C327.212 361.536 327.165 361.32 327.162 361.101C327.159 360.883 327.199 360.665 327.281 360.462C327.363 360.259 327.485 360.075 327.639 359.919C327.956 359.586 328.389 359.419 328.839 359.419ZM324.306 364.953C324.522 364.953 324.756 365.019 324.922 365.103L328.472 366.669L335.039 373.236L323.606 368.153C321.906 367.419 322.472 364.903 324.306 364.953ZM346.222 371.403L339.156 378.469L340.572 379.886C341.839 381.136 343.672 381.619 345.389 381.169C346.235 380.939 347.005 380.492 347.625 379.872C348.245 379.252 348.692 378.482 348.922 377.636C349.372 375.919 348.889 374.086 347.639 372.819L346.222 371.403Z" fill="white"/>
<path d="M205.958 575H266.123C275.173 719.487 265.736 838.765 259 1065H215.5C208.453 873.643 194.867 766.356 205.958 575Z" fill="#C6E700"/>
<path d="M301.201 575H361.366C370.416 719.487 360.979 838.765 354.243 1065H310.743C303.696 873.643 290.111 766.356 301.201 575Z" fill="#C6E700"/>
<mask id="path-35-inside-11_28_275" fill="white">
<path d="M256.256 267C264.923 289.834 288.256 321.8 312.256 267H256.256Z"/>
</mask>
<path d="M256.256 267V-275H-529.195L-250.47 459.334L256.256 267ZM312.256 267L808.73 484.434L1141.33 -275H312.256V267ZM256.256 267L-250.47 459.334C-236.21 496.904 -213.424 546.071 -177.366 597.105C-148.464 638.009 -69.6516 740.171 75.9387 798.836C268.588 876.462 474.813 837.711 623.617 724.041C736.79 637.589 788.469 530.699 808.73 484.434L312.256 267L-184.218 49.5663C-175.956 30.7015 -136.194 -59.634 -34.4171 -137.381C22.9621 -181.212 103.987 -223.706 206.332 -238.969C309.942 -254.42 404.777 -237.353 481.074 -206.61C616.748 -151.942 686.601 -58.6274 707.941 -28.4259C736.437 11.9046 753.056 48.5133 762.983 74.6662L256.256 267ZM312.256 267V-275H256.256V267V809H312.256V267Z" fill="#C6E700" mask="url(#path-35-inside-11_28_275)"/>
<mask id="path-37-inside-12_28_275" fill="white">
<path d="M323.363 514V510C322.482 510.167 320.547 510.796 319.863 511.98C319.18 513.163 321.912 513.82 323.363 514Z"/>
</mask>
<path d="M323.363 510H390.363V429.154L310.923 444.165L323.363 510ZM323.363 514L315.095 580.488L390.363 589.848V514H323.363ZM319.863 511.98L377.887 545.48L319.863 511.98ZM323.363 510H256.363V514H323.363H390.363V510H323.363ZM323.363 514L331.632 447.512C333.72 447.772 339.74 448.576 347.262 451.807C349.823 452.908 362.089 458.094 372.451 471.185C378.485 478.807 385.035 490.647 386.475 506.24C387.945 522.168 383.503 535.752 377.887 545.48L319.863 511.98L261.84 478.48C256.053 488.503 251.547 502.367 253.042 518.558C254.506 534.414 261.168 546.5 267.385 554.354C278.113 567.906 291.024 573.489 294.364 574.925C303.444 578.826 311.555 580.048 315.095 580.488L323.363 514ZM319.863 511.98L377.887 545.48C372.61 554.619 366.24 560.534 361.876 563.951C357.405 567.451 353.321 569.672 350.53 571.012C345.315 573.514 340.354 574.975 335.804 575.835L323.363 510L310.923 444.165C305.491 445.192 299.121 447.051 292.548 450.206C287.644 452.559 272.289 460.381 261.84 478.48L319.863 511.98Z" fill="#6A38F3" mask="url(#path-37-inside-12_28_275)"/>
<mask id="path-39-inside-13_28_275" fill="white">
<path d="M319.363 528V524C318.482 524.166 316.547 524.795 315.863 525.979C315.18 527.162 317.912 527.819 319.363 528Z"/>
</mask>
<path d="M319.363 524H386.363V443.153L306.923 458.165L319.363 524ZM319.363 528L311.095 594.487L386.363 603.847V528H319.363ZM315.863 525.979L373.887 559.479L315.863 525.979ZM319.363 524H252.363V528H319.363H386.363V524H319.363ZM319.363 528L327.632 461.512C329.72 461.771 335.74 462.575 343.262 465.807C345.823 466.907 358.089 472.093 368.451 485.184C374.485 492.807 381.035 504.646 382.475 520.239C383.945 536.167 379.503 549.751 373.887 559.479L315.863 525.979L257.84 492.479C252.053 502.502 247.547 516.366 249.042 532.557C250.506 548.413 257.168 560.499 263.385 568.353C274.113 581.905 287.024 587.489 290.364 588.924C299.444 592.825 307.555 594.047 311.095 594.487L319.363 528ZM315.863 525.979L373.887 559.479C368.61 568.618 362.24 574.533 357.876 577.95C353.405 581.45 349.321 583.672 346.53 585.011C341.315 587.514 336.354 588.975 331.804 589.834L319.363 524L306.923 458.165C301.491 459.191 295.121 461.05 288.548 464.205C283.644 466.558 268.289 474.38 257.84 492.479L315.863 525.979Z" fill="#6A38F3" mask="url(#path-39-inside-13_28_275)"/>
<mask id="path-41-inside-14_28_275" fill="white">
<path d="M322.363 540V536C321.482 536.166 319.547 536.795 318.863 537.979C318.18 539.162 320.912 539.819 322.363 540Z"/>
</mask>
<path d="M322.363 536H389.363V455.153L309.923 470.165L322.363 536ZM322.363 540L314.095 606.487L389.363 615.847V540H322.363ZM318.863 537.979L376.887 571.479L318.863 537.979ZM322.363 536H255.363V540H322.363H389.363V536H322.363ZM322.363 540L330.632 473.512C332.72 473.771 338.74 474.575 346.262 477.807C348.823 478.907 361.089 484.093 371.451 497.184C377.485 504.807 384.035 516.646 385.475 532.239C386.945 548.167 382.503 561.751 376.887 571.479L318.863 537.979L260.84 504.479C255.053 514.502 250.547 528.366 252.042 544.557C253.506 560.413 260.168 572.499 266.385 580.353C277.113 593.905 290.024 599.489 293.364 600.924C302.444 604.825 310.555 606.047 314.095 606.487L322.363 540ZM318.863 537.979L376.887 571.479C371.61 580.618 365.24 586.533 360.876 589.95C356.405 593.45 352.321 595.672 349.53 597.011C344.315 599.514 339.354 600.975 334.804 601.834L322.363 536L309.923 470.165C304.491 471.191 298.121 473.05 291.548 476.205C286.644 478.558 271.289 486.38 260.84 504.479L318.863 537.979Z" fill="#6A38F3" mask="url(#path-41-inside-14_28_275)"/>
<mask id="path-43-inside-15_28_275" fill="white">
<path d="M328.363 553V549C327.482 549.166 325.547 549.795 324.863 550.979C324.18 552.162 326.912 552.819 328.363 553Z"/>
</mask>
<path d="M328.363 549H395.363V468.153L315.923 483.165L328.363 549ZM328.363 553L320.095 619.487L395.363 628.847V553H328.363ZM324.863 550.979L382.887 584.479L324.863 550.979ZM328.363 549H261.363V553H328.363H395.363V549H328.363ZM328.363 553L336.632 486.512C338.72 486.771 344.74 487.575 352.262 490.807C354.823 491.907 367.089 497.093 377.451 510.184C383.485 517.807 390.035 529.646 391.475 545.239C392.945 561.167 388.503 574.751 382.887 584.479L324.863 550.979L266.84 517.479C261.053 527.502 256.547 541.366 258.042 557.557C259.506 573.413 266.168 585.499 272.385 593.353C283.113 606.905 296.024 612.489 299.364 613.924C308.444 617.825 316.555 619.047 320.095 619.487L328.363 553ZM324.863 550.979L382.887 584.479C377.61 593.618 371.24 599.533 366.876 602.95C362.405 606.45 358.321 608.672 355.53 610.011C350.315 612.514 345.354 613.975 340.804 614.834L328.363 549L315.923 483.165C310.491 484.191 304.121 486.05 297.548 489.205C292.644 491.558 277.289 499.38 266.84 517.479L324.863 550.979Z" fill="#6A38F3" mask="url(#path-43-inside-15_28_275)"/>
<path d="M355.639 611L363.002 691.5H204.511L211.874 611H355.639Z" stroke="black" stroke-width="89" stroke-linecap="round"/>
<mask id="path-46-inside-16_28_275" fill="white">
<path d="M266.756 22.0003C196.756 27.5 143.088 47.1135 131.256 133C206.266 118.214 336.756 16.5005 266.756 22.0003Z"/>
</mask>
<path d="M266.756 22.0003L271.691 84.8067L266.756 22.0003ZM131.256 133L68.8456 124.402L56.7928 211.891L143.44 194.811L131.256 133ZM266.756 22.0003L261.822 -40.8062C224.227 -37.8524 179.281 -30.645 141.398 -4.48769C100.046 24.0644 76.5945 68.1545 68.8456 124.402L131.256 133L193.667 141.598C197.75 111.959 207.049 103.299 212.989 99.1979C222.397 92.7019 239.285 87.3527 271.691 84.8067L266.756 22.0003ZM131.256 133L143.44 194.811C194.955 184.656 255.622 148.772 292.732 119.095C302.644 111.168 312.276 102.593 320.51 93.759C327.721 86.0218 338.078 73.6943 344.237 58.1422C347.441 50.0521 351.312 36.6226 349.091 20.3933C346.573 1.99308 336.941 -14.3165 322.392 -25.4487C309.574 -35.2571 296.108 -38.7001 287.274 -40.0738C278.013 -41.5139 269.202 -41.3861 261.822 -40.8062L266.756 22.0003L271.691 84.8067C273.06 84.6992 271.433 84.9771 267.914 84.4299C264.822 83.9492 255.657 82.1419 245.824 74.6174C234.26 65.7689 226.296 52.3911 224.255 37.476C222.511 24.7317 225.667 15.3404 227.09 11.7469C229.688 5.18813 232.217 3.6876 228.336 7.85273C225.476 10.9208 220.75 15.3239 214.038 20.6914C184.65 44.1926 142.567 66.5584 119.072 71.1896L131.256 133Z" fill="#6A38F3" mask="url(#path-46-inside-16_28_275)"/>
<mask id="path-48-inside-17_28_275" fill="white">
<path d="M291.745 22.2149C366.149 31.254 406.868 37.2232 427.245 133.215C343.976 105.485 217.34 13.1759 291.745 22.2149Z"/>
</mask>
<path d="M291.745 22.2149L284.147 84.7551L291.745 22.2149ZM427.245 133.215L488.872 120.133L511.715 227.747L407.339 192.987L427.245 133.215ZM291.745 22.2149L299.342 -40.3252C332.235 -36.3292 377.661 -31.8982 414.596 -7.38152C456.543 20.4613 477.189 65.0985 488.872 120.133L427.245 133.215L365.618 146.297C356.924 105.34 347.023 98.9963 344.914 97.5968C337.795 92.8713 325.659 89.7982 284.147 84.7551L291.745 22.2149ZM427.245 133.215L407.339 192.987C357.786 176.485 299.091 142.664 261.757 113.709C252.126 106.238 242.641 98.1205 234.576 89.7428C228.077 82.9914 216.351 69.9529 210.294 52.4842C206.98 42.9267 203.344 26.1832 209.637 7.0461C216.508 -13.8486 231.538 -26.6903 245.063 -33.3189C266.448 -43.8001 289.036 -41.5773 299.342 -40.3252L291.745 22.2149L284.147 84.7551C275.852 83.7474 286.121 86.8776 300.516 79.8227C310.545 74.9073 323.412 64.4085 329.332 46.4054C334.674 30.1599 331.3 16.8568 329.341 11.2073C325.994 1.55475 321.351 -1.79683 325.353 2.36134C327.791 4.8933 332.225 8.90758 338.977 14.1443C367.178 36.0162 413.435 62.2142 447.15 73.4423L427.245 133.215Z" fill="#6A38F3" mask="url(#path-48-inside-17_28_275)"/>
<mask id="path-50-inside-18_28_275" fill="white">
<path d="M281.41 41.8242C261.552 77.2342 211.437 142.086 166.756 123.153C188.534 117.4 241.953 93.0796 281.41 41.8242Z"/>
</mask>
<path d="M309.299 56.4899C317.754 41.2856 312.282 22.1061 297.078 13.6514C281.873 5.19668 262.694 10.6683 254.239 25.8727L281.769 41.1813L309.299 56.4899ZM253.936 26.4163C245.426 41.59 250.828 60.7891 266.002 69.2987C281.176 77.8082 300.375 72.4059 308.884 57.2321L281.41 41.8242L253.936 26.4163ZM281.769 41.1813L254.239 25.8727C254.139 26.0523 254.038 26.2335 253.936 26.4163L281.41 41.8242L308.884 57.2321C309.024 56.9841 309.162 56.7367 309.299 56.4899L281.769 41.1813ZM281.41 41.8242L336.359 72.6403L231.489 3.39389L281.41 41.8242ZM166.756 123.153L150.665 62.2427L-27.4246 109.291L142.176 181.16L166.756 123.153ZM281.41 41.8242L226.461 11.0081C218.721 24.8104 205.297 43.5721 191.581 55.7408C184.779 61.7759 180.696 63.6748 179.829 63.9799C179.689 64.0291 180.96 63.5605 183.359 63.5476C185.944 63.5337 188.779 64.0624 191.337 65.1461L166.756 123.153L142.176 181.16C200.652 205.939 251.228 171.263 275.202 149.994C302.678 125.617 324.241 94.248 336.359 72.6403L281.41 41.8242ZM166.756 123.153L182.848 184.063C215.821 175.352 282.068 144.247 331.331 80.2546L281.41 41.8242L231.489 3.39389C201.837 41.9121 161.247 59.4472 150.665 62.2427L166.756 123.153Z" fill="#6A38F3" mask="url(#path-50-inside-18_28_275)"/>
<mask id="path-52-inside-19_28_275" fill="white">
<path d="M276.136 38.9086C294.086 71.0783 340.378 129.44 384.756 110C364.037 108.554 312.894 88.2002 276.136 38.9086Z"/>
</mask>
<path d="M248.243 53.5634C239.827 38.3377 245.347 19.1722 260.573 10.7559C275.799 2.33969 294.964 7.85984 303.381 23.0855L275.812 38.3245L248.243 53.5634ZM303.644 23.5601C312.121 38.7522 306.677 57.9396 291.485 66.4163C276.293 74.8931 257.105 69.4492 248.629 54.2571L276.136 38.9086L303.644 23.5601ZM275.812 38.3245L303.381 23.0855C303.467 23.2419 303.555 23.4001 303.644 23.5601L276.136 38.9086L248.629 54.2571C248.5 54.0257 248.371 53.7945 248.243 53.5634L275.812 38.3245ZM276.136 38.9086L221.121 69.606L326.64 1.2469L276.136 38.9086ZM384.756 110L389.143 47.153L410.034 167.706L384.756 110ZM276.136 38.9086L331.152 8.21126C337.7 19.9474 349.26 35.7099 360.933 45.4652C366.612 50.2105 369.628 51.2554 369.598 51.2464C368.394 50.8875 364.03 50.2996 359.478 52.2936L384.756 110L410.034 167.706C354.179 192.173 305.296 163.174 280.137 142.15C253.084 119.542 232.523 90.0395 221.121 69.606L276.136 38.9086ZM384.756 110L380.369 172.847C357.398 171.244 330.118 161.356 305.165 147.073C278.757 131.958 249.865 109.065 225.633 76.5703L276.136 38.9086L326.64 1.2469C339.166 18.0437 354.224 29.9738 367.757 37.7195C382.744 46.2977 391.395 47.3101 389.143 47.153L384.756 110Z" fill="#6A38F3" mask="url(#path-52-inside-19_28_275)"/>
<mask id="path-54-inside-20_28_275" fill="white">
<path d="M274.853 27.9526C277.91 52.1558 291.721 99.4929 323.128 98.6603C311 92.5989 285.109 67.349 274.853 27.9526Z"/>
</mask>
<path d="M243.532 31.338C241.42 14.0697 253.706 -1.64125 270.974 -3.75344C288.243 -5.86562 303.954 6.42081 306.066 23.6891L274.799 27.5135L243.532 31.338ZM306.105 24.0054C308.285 41.2653 296.06 57.0244 278.801 59.2044C261.541 61.3843 245.782 49.1597 243.602 31.8998L274.853 27.9526L306.105 24.0054ZM274.799 27.5135L306.066 23.6891C306.078 23.7931 306.092 23.8986 306.105 24.0054L274.853 27.9526L243.602 31.8998C243.578 31.7122 243.555 31.5249 243.532 31.338L274.799 27.5135ZM274.853 27.9526L212.35 35.8462L335.821 12.0809L274.853 27.9526ZM323.128 98.6603L351.293 42.3068L324.797 161.638L323.128 98.6603ZM274.853 27.9526L337.357 20.0591C337.733 23.0408 338.549 27.4393 339.889 32.174C341.253 36.9962 342.788 40.8412 344.117 43.3689C345.626 46.2374 345.592 45.001 342.592 42.5534C340.875 41.1521 338.073 39.2762 334.144 37.8134C330.09 36.304 325.719 35.5695 321.458 35.6824L323.128 98.6603L324.797 161.638C271.793 163.043 243.575 122.885 232.601 102.021C220.261 78.5592 214.487 52.7732 212.35 35.8462L274.853 27.9526ZM323.128 98.6603L294.963 155.014C277.548 146.31 261.154 130.781 248.442 114.334C234.683 96.5315 221.428 72.7986 213.885 43.8244L274.853 27.9526L335.821 12.0809C338.534 22.503 343.353 31.0933 348.136 37.2806C350.511 40.3541 352.588 42.4563 353.883 43.6126C355.617 45.1621 354.877 44.0978 351.293 42.3068L323.128 98.6603Z" fill="#6A38F3" mask="url(#path-54-inside-20_28_275)"/>
<mask id="path-56-inside-21_28_275" fill="white">
<path d="M258.757 1128V1064.5H214.757L131.257 1083.5C99.5436 1102.57 103.326 1118.24 112.257 1128H258.757Z"/>
</mask>
<path d="M258.757 1064.5H430.757V892.501H258.757V1064.5ZM258.757 1128V1300H430.757V1128H258.757ZM112.257 1128L-14.6616 1244.09L36.4807 1300H112.257V1128ZM131.257 1083.5L93.0947 915.788L66.2278 921.901L42.615 936.102L131.257 1083.5ZM214.757 1064.5V892.501H195.435L176.594 896.788L214.757 1064.5ZM258.757 1064.5H86.7567V1128H258.757H430.757V1064.5H258.757ZM258.757 1128V956.001H112.257V1128V1300H258.757V1128ZM112.257 1128L239.175 1011.92C255.677 1029.96 291.059 1081.06 273.264 1151.42C265.626 1181.61 250.725 1202.2 240.134 1213.69C229.897 1224.8 221.401 1230 219.899 1230.9L131.257 1083.5L42.615 936.102C13.257 953.757 -41.5911 993.362 -60.2332 1067.06C-81.8331 1152.46 -40.0943 1216.28 -14.6616 1244.09L112.257 1128ZM131.257 1083.5L169.419 1251.21L252.919 1232.21L214.757 1064.5L176.594 896.788L93.0947 915.788L131.257 1083.5ZM214.757 1064.5V1236.5H258.757V1064.5V892.501H214.757V1064.5Z" fill="black" mask="url(#path-56-inside-21_28_275)"/>
<mask id="path-58-inside-22_28_275" fill="white">
<path d="M309.757 1128.5V1065H353.757L437.257 1084C468.97 1103.07 465.188 1118.74 456.257 1128.5H309.757Z"/>
</mask>
<path d="M309.757 1065H137.757V893.001H309.757V1065ZM309.757 1128.5V1300.5H137.757V1128.5H309.757ZM456.257 1128.5L583.175 1244.59L532.033 1300.5H456.257V1128.5ZM437.257 1084L475.419 916.288L502.286 922.401L525.899 936.602L437.257 1084ZM353.757 1065V893.001H373.079L391.919 897.288L353.757 1065ZM309.757 1065H481.757V1128.5H309.757H137.757V1065H309.757ZM309.757 1128.5V956.501H456.257V1128.5V1300.5H309.757V1128.5ZM456.257 1128.5L329.339 1012.42C312.837 1030.46 277.454 1081.56 295.25 1151.92C302.887 1182.11 317.789 1202.7 328.38 1214.19C338.617 1225.3 347.113 1230.5 348.615 1231.4L437.257 1084L525.899 936.602C555.257 954.257 610.105 993.862 628.747 1067.56C650.347 1152.96 608.608 1216.78 583.175 1244.59L456.257 1128.5ZM437.257 1084L399.094 1251.71L315.595 1232.71L353.757 1065L391.919 897.288L475.419 916.288L437.257 1084ZM353.757 1065V1237H309.757V1065V893.001H353.757V1065Z" fill="black" mask="url(#path-58-inside-22_28_275)"/>
<mask id="path-60-inside-23_28_275" fill="white">
<path d="M306.257 15.6301C291.867 12.1892 281.337 23.6281 279.757 25.1301C280.424 22.4634 284.832 15.8618 291.757 12.6301C299.257 9.13019 302.757 11.7968 306.257 15.6301Z"/>
</mask>
<path d="M279.757 25.1301L250.653 17.854L225.618 117.993L300.427 46.8726L279.757 25.1301ZM306.257 15.6301L299.28 44.8075L394.257 67.5186L328.412 -4.59798L306.257 15.6301ZM291.757 12.6301L279.071 -14.5554L291.757 12.6301ZM279.757 25.1301L300.427 46.8726C300.664 46.6473 300.867 46.4486 300.966 46.3514C301.067 46.2516 301.191 46.1291 301.244 46.0771C301.386 45.9368 301.475 45.8486 301.565 45.7623C301.733 45.6004 301.896 45.4506 302.069 45.302C302.455 44.9709 302.775 44.7508 302.97 44.6408C303.165 44.5301 302.905 44.7172 302.197 44.8599C301.824 44.9352 301.351 44.9922 300.807 44.9878C300.256 44.9833 299.734 44.916 299.28 44.8075L306.257 15.6301L313.234 -13.5473C280.503 -21.3739 257.889 4.52638 259.087 3.38764L279.757 25.1301ZM279.757 25.1301L308.861 32.4062C308.397 34.2632 307.846 35.5813 307.562 36.2168C307.238 36.9394 306.958 37.4441 306.788 37.7331C306.455 38.2976 306.236 38.5598 306.167 38.64C306.134 38.6784 305.701 39.2289 304.443 39.8157L291.757 12.6301L279.071 -14.5554C270.888 -10.737 264.788 -5.26988 260.653 -0.456084C257.204 3.55902 252.603 10.0543 250.653 17.854L279.757 25.1301ZM291.757 12.6301L304.443 39.8157C303.921 40.0593 298.681 42.2567 291.499 39.9957C285.578 38.1317 282.741 34.3675 284.102 35.8582L306.257 15.6301L328.412 -4.59798C326.273 -6.94059 319.936 -13.9548 309.515 -17.2354C297.833 -20.9131 287.093 -18.299 279.071 -14.5554L291.757 12.6301Z" fill="#6A38F3" mask="url(#path-60-inside-23_28_275)"/>
<mask id="path-62-inside-24_28_275" fill="white">
<path d="M267.996 3.49147C281.107 10.3478 281.535 25.8898 281.74 28.0601C282.989 25.6114 284 17.738 280.901 10.7528C277.544 3.18761 273.153 2.89963 267.996 3.49147Z"/>
</mask>
<path d="M281.74 28.0601L308.465 41.6889L261.573 133.644L251.873 30.8794L281.74 28.0601ZM267.996 3.49147L254.094 30.0757L167.558 -15.1787L264.576 -26.3129L267.996 3.49147ZM280.901 10.7528L308.323 -1.41479L280.901 10.7528ZM281.74 28.0601L251.873 30.8794C251.842 30.5539 251.82 30.271 251.809 30.1329C251.798 29.9909 251.785 29.8172 251.78 29.7435C251.765 29.5444 251.755 29.4189 251.744 29.295C251.723 29.0623 251.699 28.8428 251.666 28.6169C251.593 28.1137 251.496 27.7375 251.421 27.5267C251.346 27.3146 251.42 27.6269 251.86 28.1994C252.092 28.5014 252.411 28.855 252.824 29.2085C253.243 29.5674 253.681 29.8595 254.094 30.0757L267.996 3.49147L281.899 -23.0928C311.72 -7.4974 311.762 26.8863 311.607 25.2409L281.74 28.0601ZM281.74 28.0601L255.014 14.4314C254.145 16.1366 253.694 17.4922 253.491 18.1582C253.261 18.9155 253.14 19.4803 253.079 19.81C252.959 20.454 252.952 20.796 252.952 20.9018C252.951 20.9524 252.916 21.6518 253.479 22.9203L280.901 10.7528L308.323 -1.41479C311.985 6.83889 312.994 14.9677 312.95 21.3135C312.914 26.6064 312.118 34.5266 308.465 41.6889L281.74 28.0601ZM280.901 10.7528L253.479 22.9203C253.713 23.4468 256.221 28.5458 263.122 31.5581C268.811 34.0413 273.422 33.0657 271.417 33.2958L267.996 3.49147L264.576 -26.3129C267.727 -26.6746 277.112 -27.8021 287.125 -23.4316C298.35 -18.532 304.732 -9.50646 308.323 -1.4148L280.901 10.7528Z" fill="#6A38F3" mask="url(#path-62-inside-24_28_275)"/>
<mask id="path-64-inside-25_28_275" fill="white">
<path d="M411.023 234C413.656 229.294 413.656 136.5 405.757 112L418.757 129C418.538 161.8 413.82 229 411.023 234Z"/>
</mask>
<path d="M405.757 112L322.954 138.695L474.866 59.1518L405.757 112ZM418.757 129L487.866 76.1518L505.954 99.8048L505.755 129.58L418.757 129ZM405.757 112L488.56 85.3045C493.873 101.785 495.895 121.087 496.951 133.149C498.229 147.755 498.956 163.728 499.313 178.291C499.671 192.907 499.683 207.179 499.394 218.601C499.252 224.177 499.018 229.979 498.613 235.171C498.422 237.631 498.098 241.22 497.507 245.126C497.219 247.031 496.69 250.221 495.765 253.999C495.254 256.086 492.972 265.71 486.947 276.479L411.023 234L335.098 191.521C331.718 197.563 329.802 202.718 328.865 205.448C327.821 208.486 327.153 211 326.759 212.612C325.987 215.761 325.607 218.16 325.461 219.121C325.156 221.139 325.095 222.228 325.139 221.652C325.208 220.773 325.344 218.362 325.449 214.194C325.654 206.128 325.665 194.788 325.365 182.555C325.064 170.268 324.474 158.155 323.614 148.324C323.183 143.402 322.742 139.733 322.366 137.283C321.888 134.165 321.857 135.292 322.954 138.695L405.757 112ZM411.023 234L335.098 191.521C331.315 198.283 329.378 203.958 328.699 206.008C327.818 208.669 327.286 210.754 327.028 211.815C326.743 212.988 326.566 213.856 326.481 214.291C326.39 214.756 326.343 215.035 326.336 215.079C326.326 215.135 326.387 214.772 326.505 213.874C326.619 213.015 326.758 211.878 326.918 210.443C327.582 204.493 328.347 195.837 329.083 185.65C330.573 165.045 331.667 142.144 331.759 128.42L418.757 129L505.755 129.58C505.628 148.656 504.253 175.755 502.63 198.2C501.81 209.538 500.857 220.67 499.843 229.75C499.351 234.161 498.734 239.093 497.963 243.718C497.59 245.951 496.996 249.245 496.108 252.899C495.863 253.908 493.469 264.822 486.947 276.479L411.023 234ZM418.757 129L349.648 181.848L336.648 164.848L405.757 112L474.866 59.1518L487.866 76.1518L418.757 129Z" fill="#6A38F3" mask="url(#path-64-inside-25_28_275)"/>
<circle cx="428.607" cy="165.5" r="7.5" fill="white"/>
<circle cx="133.607" cy="163.5" r="7.5" fill="white"/>
<mask id="path-68-inside-26_28_275" fill="white">
<path d="M154.757 237.5C146.757 232.794 146.757 140 170.757 115.5L131.257 132.5C131.922 165.3 146.257 232.5 154.757 237.5Z"/>
</mask>
<path d="M170.757 115.5L232.906 176.381L136.364 35.5867L170.757 115.5ZM131.257 132.5L96.864 52.5867L43.0883 75.7306L44.2749 134.263L131.257 132.5ZM170.757 115.5L108.608 54.619C86.3415 77.3492 77.1579 105.98 72.9305 121.873C67.8877 140.831 65.2592 160.52 63.9974 177.46C62.7288 194.49 62.6226 211.75 63.7636 226.574C64.3073 233.638 65.3202 242.733 67.504 251.957C68.5498 256.373 70.5309 263.739 74.2936 271.932C76.6012 276.957 86.373 298.21 110.646 312.488L154.757 237.5L198.868 162.512C211.684 170.051 219.608 179.197 223.829 184.871C228.236 190.793 230.924 196.067 232.416 199.314C235.311 205.619 236.496 210.485 236.822 211.866C237.569 215.018 237.457 215.901 237.25 213.221C236.891 208.556 236.785 200.205 237.517 190.385C238.255 180.476 239.626 172.079 241.084 166.6C241.795 163.926 242.154 163.377 241.697 164.357C241.421 164.948 239.028 170.132 232.906 176.381L170.757 115.5ZM154.757 237.5L198.868 162.512C206.398 166.941 211.815 171.708 215.279 175.151C218.828 178.679 221.4 181.892 223.091 184.183C226.35 188.597 228.221 192.157 228.93 193.555C230.359 196.374 230.622 197.537 229.981 195.647C228.848 192.308 227.033 185.818 225.042 176.755C223.127 168.037 221.396 158.529 220.14 149.736C218.825 140.537 218.306 134.029 218.239 130.737L131.257 132.5L44.2749 134.263C44.7718 158.774 49.8077 190.027 55.0957 214.095C57.8337 226.556 61.238 239.854 65.2045 251.546C67.113 257.172 69.8954 264.662 73.7381 272.241C75.6539 276.019 78.7056 281.568 83.1086 287.531C86.7771 292.5 95.5943 303.634 110.646 312.488L154.757 237.5ZM131.257 132.5L165.65 212.413L205.15 195.413L170.757 115.5L136.364 35.5867L96.864 52.5867L131.257 132.5Z" fill="#6A38F3" mask="url(#path-68-inside-26_28_275)"/>
<mask id="path-70-inside-27_28_275" fill="white">
<path d="M122.766 654.5L152.077 707L192.077 514L161.766 496L122.766 654.5Z"/>
</mask>
<path d="M222.766 298L181.679 292.163L150.99 508.163L192.077 514L233.165 519.838L263.854 303.838L222.766 298ZM196.266 356.5L155.98 346.537L121.48 486.037L161.766 496L202.053 505.964L236.553 366.464L196.266 356.5ZM152.077 707L79.6066 747.461L188.158 941.895L233.35 723.845L152.077 707ZM122.766 654.5L42.1704 634.669L34.3591 666.415L50.2959 694.96L122.766 654.5ZM161.766 496L204.146 424.635L107.912 367.487L81.1704 476.169L161.766 496ZM192.077 514L273.35 530.844L285.366 472.868L234.457 442.635L192.077 514ZM152.077 707L224.548 666.54L195.237 614.04L122.766 654.5L50.2959 694.96L79.6066 747.461L152.077 707ZM122.766 654.5L203.363 674.331L242.363 515.831L161.766 496L81.1704 476.169L42.1704 634.669L122.766 654.5ZM192.077 514L110.804 497.156L70.8043 690.156L152.077 707L233.35 723.845L273.35 530.844L192.077 514ZM161.766 496L119.386 567.365L149.697 585.365L192.077 514L234.457 442.635L204.146 424.635L161.766 496Z" fill="#DCE0D5" mask="url(#path-70-inside-27_28_275)"/>
<mask id="path-72-inside-28_28_275" fill="white">
<path d="M184.077 512L146.573 696.675C148.419 699.901 150.253 703.313 152.077 707.001L144.577 706.501L115.077 656.501L155.077 497.001L157.077 498.035L184.077 512Z"/>
</mask>
<path d="M146.573 696.675L167.643 700.954L169.254 693.021L165.233 685.995L146.573 696.675ZM119.077 653.501L98.1919 648.396L96.1413 656.785L100.464 664.262L119.077 653.501ZM146.573 696.675L125.503 692.396L123.507 702.222L144.577 706.501L165.647 710.78L167.643 700.954L146.573 696.675ZM146.573 696.675L165.233 685.995C160.395 677.543 155.504 670.298 150.981 663.578C146.392 656.761 142.097 650.363 137.69 642.74L119.077 653.501L100.464 664.262C105.695 673.311 110.756 680.824 115.309 687.589C119.927 694.45 123.965 700.456 127.913 707.354L146.573 696.675ZM119.077 653.501L139.962 658.606L177.962 503.14L157.077 498.035L136.192 492.93L98.1919 648.396L119.077 653.501ZM184.077 512L226.217 520.558L232.681 488.729L203.832 473.807L184.077 512ZM146.573 696.675L104.433 688.117L101.211 703.983L109.253 718.034L146.573 696.675ZM144.577 706.501L107.543 728.351L119.074 747.896L141.717 749.405L144.577 706.501ZM115.077 656.501L73.3687 646.041L69.0768 663.155L78.0426 678.351L115.077 656.501ZM155.077 497.001L174.832 458.807L126.582 433.851L113.369 486.541L155.077 497.001ZM152.077 707.001L149.217 749.905L223.728 754.873L190.62 687.937L152.077 707.001ZM157.077 498.035L176.832 459.842L157.077 498.035ZM184.077 512L141.937 503.443L104.433 688.117L146.573 696.675L188.712 705.233L226.217 520.558L184.077 512ZM144.577 706.501L181.612 684.65L152.112 634.65L115.077 656.501L78.0426 678.351L107.543 728.351L144.577 706.501ZM115.077 656.501L156.786 666.96L196.785 507.46L155.077 497.001L113.369 486.541L73.3687 646.041L115.077 656.501ZM144.577 706.501L141.717 749.405L149.217 749.905L152.077 707.001L154.937 664.096L147.437 663.596L144.577 706.501ZM152.077 707.001L190.62 687.937C188.386 683.419 186.14 679.242 183.893 675.315L146.573 696.675L109.253 718.034C110.699 720.56 112.121 723.207 113.534 726.065L152.077 707.001ZM155.077 497.001L135.322 535.194L137.322 536.229L157.077 498.035L176.832 459.842L174.832 458.807L155.077 497.001ZM157.077 498.035L137.322 536.229L164.322 550.194L184.077 512L203.832 473.807L176.832 459.842L157.077 498.035Z" fill="#F1F6E4" mask="url(#path-72-inside-28_28_275)"/>
<rect width="31.3861" height="45.9902" transform="matrix(-0.990527 -0.137315 -0.137315 0.990527 206.214 522.098)" fill="#C6E700"/>
<mask id="path-75-inside-29_28_275" fill="white">
<path d="M235.324 534.997L202.29 530.417L204.119 521.808L235.283 526.128C247.8 531.156 240.941 534.193 235.324 534.997Z"/>
</mask>
<path d="M202.29 530.417L118.729 512.668L99.6613 602.432L190.56 615.033L202.29 530.417ZM235.324 534.997L223.594 619.613L235.511 621.265L247.421 619.561L235.324 534.997ZM235.283 526.128L267.127 446.86L257.398 442.952L247.013 441.512L235.283 526.128ZM204.119 521.808L215.849 437.192L137.081 426.272L120.558 504.058L204.119 521.808ZM202.29 530.417L190.56 615.033L223.594 619.613L235.324 534.997L247.055 450.381L214.02 445.801L202.29 530.417ZM235.324 534.997L247.421 619.561C253.103 618.748 261.215 617.136 270.135 613.702C274.096 612.178 300.115 602.748 316.236 574.596C326.577 556.537 331.045 533.532 325.1 510.005C319.821 489.113 308.27 475.455 301.016 468.378C287.627 455.314 272.852 449.16 267.127 446.86L235.283 526.128L203.439 605.396C202.567 605.046 200.204 604.059 197.021 602.257C194.168 600.642 188.201 597.006 181.704 590.666C175.479 584.593 164.513 571.876 159.455 551.859C153.732 529.207 158.057 507.012 167.972 489.697C176.596 474.637 187.664 466.125 193.535 462.192C199.913 457.919 205.504 455.51 208.761 454.256C215.206 451.775 220.354 450.843 223.228 450.432L235.324 534.997ZM235.283 526.128L247.013 441.512L215.849 437.192L204.119 521.808L192.388 606.424L223.553 610.744L235.283 526.128ZM204.119 521.808L120.558 504.058L118.729 512.668L202.29 530.417L285.851 548.167L287.679 539.558L204.119 521.808Z" fill="#C6E700" mask="url(#path-75-inside-29_28_275)"/>
<mask id="path-77-inside-30_28_275" fill="white">
<path d="M236.348 548.433L200.482 543.461L202.364 534.859L236.2 539.55C249.828 544.732 242.428 547.694 236.348 548.433Z"/>
</mask>
<path d="M200.482 543.461L117.031 525.201L97.2945 615.399L188.751 628.077L200.482 543.461ZM236.348 548.433L224.618 633.049L235.626 634.575L246.659 633.234L236.348 548.433ZM236.2 539.55L266.563 459.703L257.517 456.262L247.93 454.933L236.2 539.55ZM202.364 534.859L214.094 450.243L135.807 439.39L118.913 516.599L202.364 534.859ZM200.482 543.461L188.751 628.077L224.618 633.049L236.348 548.433L248.078 463.817L212.212 458.845L200.482 543.461ZM236.348 548.433L246.659 633.234C252.14 632.567 260.039 631.204 268.761 628.184C273.127 626.671 279.821 624.022 287.191 619.507C293.842 615.432 306.573 606.509 316.52 590.261C328.211 571.166 333.166 546.263 326.008 521.084C319.858 499.451 307.122 485.977 300.069 479.61C286.687 467.529 272.194 461.844 266.563 459.703L236.2 539.55L205.836 619.397C205.268 619.18 203.219 618.383 200.327 616.849C197.8 615.508 192.039 612.256 185.586 606.43C179.66 601.081 167.569 588.556 161.669 567.802C154.761 543.502 159.571 519.409 170.808 501.054C180.302 485.546 192.272 477.294 197.941 473.821C204.329 469.907 209.821 467.79 212.851 466.74C218.902 464.645 223.596 463.929 226.036 463.632L236.348 548.433ZM236.2 539.55L247.93 454.933L214.094 450.243L202.364 534.859L190.634 619.475L224.47 624.166L236.2 539.55ZM202.364 534.859L118.913 516.599L117.031 525.201L200.482 543.461L283.932 561.721L285.815 553.119L202.364 534.859Z" fill="#C6E700" mask="url(#path-77-inside-30_28_275)"/>
<mask id="path-79-inside-31_28_275" fill="white">
<path d="M231.676 559.972L197.698 555.262L199.544 546.655L231.599 551.098C244.486 556.178 237.448 559.19 231.676 559.972Z"/>
</mask>
<path d="M197.698 555.262L114.173 537.342L94.8834 627.251L185.967 639.878L197.698 555.262ZM231.676 559.972L219.946 644.588L231.544 646.196L243.148 644.624L231.676 559.972ZM231.599 551.098L262.925 471.624L253.434 467.883L243.33 466.482L231.599 551.098ZM199.544 546.655L211.274 462.039L132.667 451.141L116.02 528.735L199.544 546.655ZM197.698 555.262L185.967 639.878L219.946 644.588L231.676 559.972L243.406 475.356L209.428 470.646L197.698 555.262ZM231.676 559.972L243.148 644.624C248.758 643.863 256.797 642.339 265.652 639.051C269.244 637.717 295.785 628.594 312.345 600.324C323.131 581.91 327.76 558.271 321.42 534.186C315.849 513.025 303.891 499.418 296.691 492.58C283.294 479.854 268.61 473.865 262.925 471.624L231.599 551.098L200.274 630.573C199.505 630.27 197.248 629.35 194.163 627.642C191.42 626.124 185.518 622.621 179.028 616.456C172.891 610.627 161.537 597.962 156.198 577.678C150.088 554.469 154.573 531.64 164.925 513.969C173.843 498.744 185.223 490.31 191.037 486.532C197.426 482.379 202.989 480.07 206.17 478.889C212.485 476.544 217.48 475.69 220.205 475.32L231.676 559.972ZM231.599 551.098L243.33 466.482L211.274 462.039L199.544 546.655L187.814 631.271L219.869 635.715L231.599 551.098ZM199.544 546.655L116.02 528.735L114.173 537.342L197.698 555.262L281.222 573.182L283.069 564.575L199.544 546.655Z" fill="#C6E700" mask="url(#path-79-inside-31_28_275)"/>
<mask id="path-81-inside-32_28_275" fill="white">
<path d="M225.299 571.274L196.04 567.218L197.798 558.599L225.401 562.426C236.436 567.248 230.299 570.385 225.299 571.274Z"/>
</mask>
<path d="M196.04 567.218L112.337 550.151L94.1515 639.336L184.31 651.834L196.04 567.218ZM225.299 571.274L213.569 655.89L226.953 657.746L240.256 655.38L225.299 571.274ZM225.401 562.426L259.611 484.15L248.808 479.428L237.131 477.809L225.401 562.426ZM197.798 558.599L209.528 473.983L130.113 462.974L114.095 541.531L197.798 558.599ZM196.04 567.218L184.31 651.834L213.569 655.89L225.299 571.274L237.029 486.658L207.77 482.602L196.04 567.218ZM225.299 571.274L240.256 655.38C246.279 654.309 254.693 652.272 263.843 648.181C269.281 645.749 292.901 635.121 307.14 607.763C315.749 591.22 319.593 570.761 315.137 549.548C311.02 529.953 301.213 516.225 293.895 508.19C280.684 493.689 265.6 486.767 259.611 484.15L225.401 562.426L191.19 640.701C190.719 640.495 179.005 635.774 167.592 623.245C161.171 616.197 151.869 603.398 147.936 584.672C143.662 564.33 147.366 544.681 155.586 528.887C169.045 503.027 190.883 493.652 194.109 492.209C201.047 489.107 206.819 487.795 210.343 487.169L225.299 571.274ZM225.401 562.426L237.131 477.809L209.528 473.983L197.798 558.599L186.067 643.215L213.67 647.042L225.401 562.426ZM197.798 558.599L114.095 541.531L112.337 550.151L196.04 567.218L279.743 584.286L281.5 575.667L197.798 558.599Z" fill="#C6E700" mask="url(#path-81-inside-32_28_275)"/>
<mask id="path-83-inside-33_28_275" fill="white">
<path d="M235.866 532.123L236.402 528.255C237.264 528.538 239.118 529.415 239.644 530.655C240.17 531.894 237.345 532.15 235.866 532.123Z"/>
</mask>
<path d="M236.402 528.255L170.037 519.054L181.066 439.493L257.359 464.616L236.402 528.255ZM235.866 532.123L234.639 599.111L159.13 597.728L169.501 522.923L235.866 532.123ZM239.644 530.655L177.97 556.833L177.97 556.833L239.644 530.655ZM236.402 528.255L302.768 537.455L302.231 541.323L235.866 532.123L169.501 522.923L170.037 519.054L236.402 528.255ZM235.866 532.123L237.093 465.134C235.115 465.098 229.259 465.033 221.588 467.035C219.128 467.677 206.236 470.906 194.008 482.208C186.852 488.821 178.256 499.802 174.506 515.597C170.663 531.783 173.503 546.309 177.97 556.833L239.644 530.655L301.318 504.477C305.917 515.31 308.784 530.115 304.881 546.553C301.071 562.598 292.329 573.802 284.96 580.614C272.303 592.312 258.711 595.835 255.426 596.692C246.104 599.125 238.096 599.175 234.639 599.111L235.866 532.123ZM239.644 530.655L177.97 556.833C182.153 566.687 187.845 573.362 191.692 577.204C195.66 581.167 199.385 583.826 201.909 585.45C206.639 588.491 211.218 590.501 215.446 591.893L236.402 528.255L257.359 464.616C262.448 466.292 268.385 468.882 274.389 472.743C278.675 475.5 293.108 485.133 301.318 504.477L239.644 530.655Z" fill="#6A38F3" mask="url(#path-83-inside-33_28_275)"/>
<mask id="path-85-inside-34_28_275" fill="white">
<path d="M237.998 546.217L238.534 542.349C239.395 542.633 241.25 543.51 241.776 544.749C242.302 545.989 239.476 546.244 237.998 546.217Z"/>
</mask>
<path d="M238.534 542.349L172.168 533.149L183.198 453.587L259.49 478.711L238.534 542.349ZM237.998 546.217L236.77 613.206L161.262 611.823L171.632 537.017L237.998 546.217ZM241.776 544.749L180.102 570.927L180.102 570.927L241.776 544.749ZM238.534 542.349L304.899 551.549L304.363 555.417L237.998 546.217L171.632 537.017L172.168 533.149L238.534 542.349ZM237.998 546.217L239.225 479.228C237.246 479.192 231.391 479.127 223.719 481.13C221.259 481.771 208.368 485 196.14 496.302C188.984 502.916 180.388 513.897 176.638 529.691C172.794 545.878 175.635 560.403 180.102 570.927L241.776 544.749L303.45 518.571C308.049 529.405 310.916 544.21 307.013 560.647C303.203 576.693 294.461 587.897 287.091 594.708C274.435 606.406 260.843 609.929 257.558 610.787C248.235 613.22 240.227 613.269 236.77 613.206L237.998 546.217ZM241.776 544.749L180.102 570.927C184.284 580.781 189.977 587.457 193.823 591.298C197.792 595.262 201.516 597.92 204.041 599.544C208.771 602.586 213.35 604.595 217.577 605.987L238.534 542.349L259.49 478.711C264.579 480.386 270.516 482.976 276.52 486.837C280.807 489.594 295.239 499.227 303.45 518.571L241.776 544.749Z" fill="#6A38F3" mask="url(#path-85-inside-34_28_275)"/>
<mask id="path-87-inside-35_28_275" fill="white">
<path d="M233.382 557.405L233.919 553.537C234.78 553.82 236.635 554.698 237.161 555.937C237.687 557.176 234.861 557.432 233.382 557.405Z"/>
</mask>
<path d="M233.919 553.537L167.553 544.337L178.583 464.775L254.875 489.898L233.919 553.537ZM233.382 557.405L232.155 624.394L156.647 623.01L167.017 548.205L233.382 557.405ZM237.161 555.937L175.487 582.115L175.487 582.115L237.161 555.937ZM233.919 553.537L300.284 562.737L299.748 566.605L233.382 557.405L167.017 548.205L167.553 544.337L233.919 553.537ZM233.382 557.405L234.61 490.416C232.631 490.38 226.775 490.315 219.104 492.317C216.644 492.959 203.753 496.188 191.524 507.49C184.369 514.103 175.773 525.084 172.022 540.879C168.179 557.065 171.02 571.591 175.487 582.115L237.161 555.937L298.835 529.759C303.433 540.592 306.301 555.397 302.398 571.835C298.588 587.88 289.846 599.085 282.476 605.896C269.82 617.594 256.228 621.117 252.943 621.974C243.62 624.407 235.612 624.457 232.155 624.394L233.382 557.405ZM237.161 555.937L175.487 582.115C179.669 591.969 185.362 598.644 189.208 602.486C193.177 606.45 196.901 609.108 199.426 610.732C204.156 613.773 208.735 615.783 212.962 617.175L233.919 553.537L254.875 489.898C259.964 491.574 265.901 494.164 271.905 498.025C276.192 500.782 290.624 510.415 298.835 529.759L237.161 555.937Z" fill="#6A38F3" mask="url(#path-87-inside-35_28_275)"/>
<mask id="path-89-inside-36_28_275" fill="white">
<path d="M225.627 569.143L226.163 565.275C227.025 565.559 228.879 566.436 229.405 567.675C229.931 568.914 227.106 569.17 225.627 569.143Z"/>
</mask>
<path d="M226.163 565.275L159.798 556.075L170.827 476.513L247.12 501.637L226.163 565.275ZM225.627 569.143L224.4 636.132L148.891 634.748L159.262 559.943L225.627 569.143ZM229.405 567.675L167.731 593.853L167.731 593.853L229.405 567.675ZM226.163 565.275L292.529 574.475L291.992 578.343L225.627 569.143L159.262 559.943L159.798 556.075L226.163 565.275ZM225.627 569.143L226.854 502.154C224.876 502.118 219.02 502.053 211.349 504.055C208.889 504.697 195.997 507.926 183.769 519.228C176.613 525.842 168.017 536.823 164.267 552.617C160.424 568.804 163.264 583.329 167.731 593.853L229.405 567.675L291.079 541.497C295.678 552.331 298.545 567.135 294.642 583.573C290.832 599.619 282.09 610.823 274.721 617.634C262.064 629.332 248.472 632.855 245.187 633.712C235.865 636.145 227.857 636.195 224.4 636.132L225.627 569.143ZM229.405 567.675L167.731 593.853C171.914 603.707 177.606 610.383 181.453 614.224C185.421 618.188 189.146 620.846 191.67 622.47C196.4 625.511 200.979 627.521 205.207 628.913L226.163 565.275L247.12 501.637C252.208 503.312 258.146 505.902 264.15 509.763C268.436 512.52 282.869 522.153 291.079 541.497L229.405 567.675Z" fill="#6A38F3" mask="url(#path-89-inside-36_28_275)"/>
<path d="M190.296 515.288L231.296 297.288M195.796 357.788L162.796 500.788" stroke="#F1F6E4" stroke-width="3"/>
<mask id="path-92-inside-37_28_275" fill="white">
<path d="M54.7961 418.788C51.2429 380.8 181.128 310.86 233.296 296.288L209.077 354.5C183.108 375.302 118.734 418.422 104.928 420.082C115.614 430.693 156.087 486.663 175.296 517.788L168.796 563.288C133.369 540.122 57.8813 451.773 54.7961 418.788Z"/>
</mask>
<path d="M104.928 420.082L110.001 462.278L197.182 451.797L134.874 389.925L104.928 420.082ZM102.296 418.788L59.8436 420.796L59.8436 420.796L102.296 418.788ZM104.928 420.082L99.8547 377.886C101.677 377.667 110.76 376.557 121.227 381.522C127.275 384.391 133.621 389.249 138.325 396.621C142.935 403.847 144.483 411.153 144.749 416.781L102.296 418.788L59.8436 420.796C60.1357 426.973 61.8183 434.74 66.6687 442.342C71.6129 450.09 78.3041 455.24 84.7973 458.32C96.1539 463.707 106.526 462.696 110.001 462.278L104.928 420.082ZM102.296 418.788L144.749 416.781C144.823 418.348 146.331 443.354 122.146 456.006C111.17 461.748 100.88 461.168 95.291 460.185C89.7136 459.204 85.6347 457.312 83.6584 456.306C79.6974 454.288 77.1321 452.137 76.5704 451.669C75.6386 450.893 75.0744 450.332 74.9811 450.239L104.928 420.082L134.874 389.925C134.266 389.321 129.344 384.185 122.236 380.564C120.036 379.444 115.761 377.48 110.016 376.47C104.259 375.457 93.8301 374.89 82.7449 380.69C58.3406 393.457 59.747 418.753 59.8436 420.796L102.296 418.788ZM233.296 296.288L311.775 328.939L379.01 167.334L210.429 214.422L233.296 296.288ZM54.7961 418.788L-29.8345 426.704L54.7961 418.788ZM168.796 563.288L122.276 634.428L234.054 707.522L252.942 575.309L168.796 563.288ZM209.077 354.5L262.217 420.842L279.198 407.24L287.556 387.151L209.077 354.5ZM104.928 420.082L94.7818 335.69L-79.5804 356.652L45.0346 480.396L104.928 420.082ZM175.296 517.788L259.442 529.809L263.794 499.339L247.629 473.147L175.296 517.788ZM233.296 296.288L210.429 214.422C173.886 224.629 120.761 250.056 78.1515 276.645C56.4682 290.176 33.2745 306.598 14.6464 324.681C5.39291 333.663 -5.24318 345.45 -13.7681 359.797C-21.8569 373.411 -32.6094 397.037 -29.8345 426.704L54.7961 418.788L139.427 410.873C141.313 431.043 133.843 444.173 132.38 446.634C130.482 449.828 129.818 449.804 133.057 446.66C139.413 440.49 151.285 431.392 168.15 420.868C202.637 399.348 240.538 382.519 256.163 378.155L233.296 296.288ZM54.7961 418.788L-29.8345 426.704C-27.0908 456.038 -12.1061 482.339 -3.72978 496.136C6.96144 513.746 20.3029 531.86 33.7393 548.371C58.7683 579.128 93.2131 615.424 122.276 634.428L168.796 563.288L215.316 492.148C215.316 492.149 214.762 491.782 213.619 490.9C212.505 490.042 211.058 488.869 209.284 487.342C205.699 484.259 201.36 480.236 196.448 475.344C186.582 465.52 175.704 453.49 165.596 441.069C155.347 428.474 147.024 416.869 141.586 407.913C138.864 403.429 137.566 400.754 137.149 399.789C136.348 397.935 138.625 402.304 139.427 410.873L54.7961 418.788ZM209.077 354.5L155.938 288.159C145.962 296.149 125.949 310.409 106.367 323.04C96.7041 329.273 88.41 334.288 82.4738 337.547C81.0652 338.32 79.9562 338.902 79.1311 339.319C78.2775 339.749 77.9448 339.893 78.061 339.842C78.0771 339.835 79.2171 339.326 81.2075 338.663C82.7018 338.164 87.6885 336.543 94.7818 335.69L104.928 420.082L115.073 504.474C130.181 502.658 142.526 497.207 146.542 495.439C152.799 492.685 158.928 489.507 164.273 486.573C175.101 480.63 187.113 473.254 198.515 465.899C221.064 451.354 246.223 433.653 262.217 420.842L209.077 354.5ZM104.928 420.082L45.0346 480.396C43.215 478.59 44.572 479.807 50.532 487.501C55.3717 493.749 61.4345 501.896 67.9765 510.966C81.2831 529.415 94.8816 549.336 102.962 562.43L175.296 517.788L247.629 473.147C236.501 455.115 220.258 431.489 205.855 411.519C193.382 394.227 176.198 371.066 164.821 359.768L104.928 420.082ZM168.796 563.288L252.942 575.309L259.442 529.809L175.296 517.788L91.1503 505.768L84.6503 551.268L168.796 563.288ZM233.296 296.288L154.817 263.637L130.598 321.849L209.077 354.5L287.556 387.151L311.775 328.939L233.296 296.288Z" fill="#C6E700" mask="url(#path-92-inside-37_28_275)"/>
<path d="M188.796 359.545L196.436 354.789L201.796 354.788L190.796 363.288L188.796 359.545Z" fill="#C6E700"/>
<path d="M758.578 664.5V745.462L755.307 746.553H521.517V665.59L524.788 664.5H758.578Z" stroke="#C6E700" stroke-width="144.998"/>
<path d="M449.018 613.357H740.738H767.087M449.018 613.357L448.077 819.052H767.087M449.018 613.357L513.008 592.001H831.077M767.087 819.052V613.357M767.087 819.052L831.077 797.696V592.001M767.087 613.357L831.077 592.001" stroke="#6A38F3" stroke-width="1.12402"/>
<mask id="path-97-inside-38_28_275" fill="white">
<path d="M774.077 807.837V775.956L800.577 769.001V799.001L774.077 807.837Z"/>
</mask>
<path d="M774.077 775.956L749.822 683.545L678.536 702.255V775.956H774.077ZM774.077 807.837H678.536V940.41L804.3 898.472L774.077 807.837ZM800.577 799.001L830.8 889.636L896.119 867.855V799.001H800.577ZM800.577 769.001H896.119V645.146L776.322 676.589L800.577 769.001ZM774.077 775.956H678.536V807.837H774.077H869.619V775.956H774.077ZM774.077 807.837L804.3 898.472L830.8 889.636L800.577 799.001L770.354 708.365L743.854 717.202L774.077 807.837ZM800.577 799.001H896.119V769.001H800.577H705.036V799.001H800.577ZM800.577 769.001L776.322 676.589L749.822 683.545L774.077 775.956L798.332 868.367L824.832 861.412L800.577 769.001Z" fill="#F6F3E4" mask="url(#path-97-inside-38_28_275)"/>
<mask id="path-99-inside-39_28_275" fill="white">
<path d="M787.25 789.254L775.077 792.976L781.164 782.861L787.25 789.254Z"/>
</mask>
<path d="M787.25 789.254L775.077 792.976L781.164 782.861L787.25 789.254Z" fill="#6A38F3"/>
<path d="M775.077 792.976L718.721 764.763L630.333 911.646L775.077 867.394V792.976ZM787.25 789.254V863.672L931.995 819.419L843.607 726.581L787.25 789.254ZM781.164 782.861L837.52 720.189L781.164 660.995L724.807 754.648L781.164 782.861ZM775.077 792.976V867.394L787.25 863.672V789.254V714.837L775.077 718.559V792.976ZM787.25 789.254L843.607 726.581L837.52 720.189L781.164 782.861L724.807 845.534L730.894 851.927L787.25 789.254ZM781.164 782.861L724.807 754.648L718.721 764.763L775.077 792.976L831.433 821.189L837.52 811.075L781.164 782.861Z" fill="#6A38F3" mask="url(#path-99-inside-39_28_275)"/>
<rect width="4.89589" height="8.25379" transform="matrix(0.956305 -0.292372 0 1 778.823 791.831)" fill="#6A38F3"/>
<mask id="path-102-inside-40_28_275" fill="white">
<path d="M800.25 785.254L788.077 788.976L794.164 778.861L800.25 785.254Z"/>
</mask>
<path d="M800.25 785.254L788.077 788.976L794.164 778.861L800.25 785.254Z" fill="white"/>
<path d="M788.077 788.976L731.721 760.763L643.333 907.646L788.077 863.394V788.976ZM800.25 785.254V859.672L944.995 815.419L856.607 722.581L800.25 785.254ZM794.164 778.861L850.52 716.189L794.164 656.995L737.807 750.648L794.164 778.861ZM788.077 788.976V863.394L800.25 859.672V785.254V710.837L788.077 714.559V788.976ZM800.25 785.254L856.607 722.581L850.52 716.189L794.164 778.861L737.807 841.534L743.894 847.927L800.25 785.254ZM794.164 778.861L737.807 750.648L731.721 760.763L788.077 788.976L844.433 817.189L850.52 807.075L794.164 778.861Z" fill="white" mask="url(#path-102-inside-40_28_275)"/>
<rect x="0.468196" y="0.346447" width="3.91671" height="7.27461" transform="matrix(0.956305 -0.292372 0 1 791.843 787.968)" fill="white" stroke="white" stroke-width="0.979178"/>
<mask id="path-105-inside-41_28_275" fill="white">
<path d="M583.077 387.001H483.421L463.372 408.357V614.052H563.028L583.077 592.696V387.001Z"/>
</mask>
<path d="M483.421 387.001V242.002H420.662L377.708 287.758L483.421 387.001ZM583.077 387.001H728.075V242.002H583.077V387.001ZM583.077 592.696L688.791 691.939L728.075 650.092V592.696H583.077ZM563.028 614.052V759.05H625.787L668.741 713.295L563.028 614.052ZM463.372 408.357L357.659 309.114L318.374 350.96V408.357H463.372ZM463.372 614.052H318.374V759.05H463.372V614.052ZM483.421 387.001V531.999H583.077V387.001V242.002H483.421V387.001ZM583.077 387.001H438.079V592.696H583.077H728.075V387.001H583.077ZM583.077 592.696L477.364 493.453L457.315 514.809L563.028 614.052L668.741 713.295L688.791 691.939L583.077 592.696ZM483.421 387.001L377.708 287.758L357.659 309.114L463.372 408.357L569.085 507.6L589.135 486.243L483.421 387.001ZM463.372 408.357H318.374V614.052H463.372H608.37V408.357H463.372ZM463.372 614.052V759.05H563.028V614.052V469.054H463.372V614.052Z" fill="black" mask="url(#path-105-inside-41_28_275)"/>
<path d="M463.372 408.357H554.772H563.028M463.372 408.357L463.077 614.052H563.028M463.372 408.357L483.421 387.001H583.077M563.028 614.052V408.357M563.028 614.052L583.077 592.696V387.001M563.028 408.357L583.077 387.001" stroke="#6A38F3" stroke-width="1.12402"/>
<mask id="path-108-inside-42_28_275" fill="white">
<path d="M567.156 598.316V566.435L580.129 554.479V585.168L567.156 598.316Z"/>
</mask>
<path d="M567.156 566.435L502.409 496.178L471.614 524.557V566.435H567.156ZM567.156 598.316H471.614V831.172L635.164 665.421L567.156 598.316ZM580.129 585.168L648.137 652.273L675.67 624.369V585.168H580.129ZM580.129 554.479H675.67V336.506L515.382 484.222L580.129 554.479ZM567.156 566.435H471.614V598.316H567.156H662.697V566.435H567.156ZM567.156 598.316L635.164 665.421L648.137 652.273L580.129 585.168L512.121 518.063L499.148 531.211L567.156 598.316ZM580.129 585.168H675.67V554.479H580.129H484.587V585.168H580.129ZM580.129 554.479L515.382 484.222L502.409 496.178L567.156 566.435L631.902 636.692L644.875 624.736L580.129 554.479Z" fill="#F6F3E4" mask="url(#path-108-inside-42_28_275)"/>
<path d="M547.577 575.001V592.001H542.077V575.001H547.577Z" stroke="#F1F6E4" stroke-width="16"/>
<mask id="path-111-inside-43_28_275" fill="white">
<path d="M539.077 595.327C539.077 594.429 550.077 594.429 550.077 595.327C550.077 596.225 539.077 596.225 539.077 595.327Z"/>
</mask>
<path d="M539.077 595.327H541.077C541.077 596.381 540.29 596.848 540.242 596.877C540.091 596.969 540.003 596.982 540.089 596.958C540.23 596.919 540.53 596.862 541.012 596.81C541.946 596.708 543.243 596.653 544.577 596.653C545.911 596.653 547.208 596.709 548.142 596.81C548.624 596.863 548.924 596.919 549.065 596.958C549.151 596.982 549.064 596.969 548.913 596.877C548.865 596.848 548.077 596.381 548.077 595.327H550.077H552.077C552.077 594.161 551.203 593.589 550.995 593.462C550.682 593.271 550.358 593.167 550.144 593.107C549.683 592.978 549.124 592.893 548.575 592.834C547.446 592.711 545.993 592.653 544.577 592.653C543.161 592.653 541.708 592.711 540.579 592.833C540.03 592.893 539.471 592.977 539.011 593.106C538.796 593.166 538.472 593.271 538.16 593.461C537.951 593.589 537.077 594.161 537.077 595.327H539.077ZM539.077 595.327H537.077C537.077 596.493 537.951 597.065 538.159 597.192C538.472 597.383 538.796 597.487 539.011 597.548C539.471 597.677 540.03 597.761 540.579 597.82C541.708 597.943 543.161 598.001 544.577 598.001C545.993 598.001 547.446 597.943 548.575 597.82C549.124 597.761 549.683 597.677 550.144 597.548C550.358 597.488 550.682 597.383 550.995 597.193C551.203 597.066 552.077 596.493 552.077 595.327H550.077H548.077C548.077 594.273 548.865 593.806 548.913 593.777C549.064 593.685 549.151 593.672 549.065 593.696C548.924 593.735 548.624 593.791 548.142 593.844C547.208 593.946 545.911 594.001 544.577 594.001C543.243 594.001 541.946 593.946 541.012 593.844C540.53 593.791 540.23 593.735 540.089 593.696C540.003 593.672 540.091 593.685 540.242 593.777C540.29 593.806 541.077 594.273 541.077 595.327H539.077Z" fill="black" mask="url(#path-111-inside-43_28_275)"/>
<path d="M546.776 577.001C546.637 577.713 546.447 578.423 546.192 579.057C545.52 580.735 544.901 580.878 544.577 580.878C544.254 580.878 543.635 580.735 542.962 579.057C542.708 578.423 542.517 577.713 542.378 577.001H546.776Z" stroke="black" stroke-width="6"/>
<path d="M544.577 582.98V594.653" stroke="black" stroke-width="0.5"/>
<mask id="path-115-inside-44_28_275" fill="white">
<path d="M544.577 575.501V573.501H545.577V575.501L547.077 576.501L544.577 578.501L545.577 576.501L544.577 575.501Z"/>
</mask>
<path d="M544.577 573.501V571.501H542.577V573.501H544.577ZM544.577 575.501H542.577V576.329L543.163 576.915L544.577 575.501ZM545.577 576.501L547.366 577.395L548.011 576.106L546.991 575.086L545.577 576.501ZM544.577 578.501L542.788 577.606L545.827 580.062L544.577 578.501ZM547.077 576.501L548.327 578.062L550.462 576.354L548.187 574.837L547.077 576.501ZM545.577 575.501H543.577V576.571L544.468 577.165L545.577 575.501ZM545.577 573.501H547.577V571.501H545.577V573.501ZM544.577 573.501H542.577V575.501H544.577H546.577V573.501H544.577ZM544.577 575.501L543.163 576.915L544.163 577.915L545.577 576.501L546.991 575.086L545.991 574.086L544.577 575.501ZM545.577 576.501L543.788 575.606L542.788 577.606L544.577 578.501L546.366 579.395L547.366 577.395L545.577 576.501ZM544.577 578.501L545.827 580.062L548.327 578.062L547.077 576.501L545.828 574.939L543.328 576.939L544.577 578.501ZM547.077 576.501L548.187 574.837L546.687 573.837L545.577 575.501L544.468 577.165L545.968 578.165L547.077 576.501ZM545.577 575.501H547.577V573.501H545.577H543.577V575.501H545.577ZM545.577 573.501V571.501H544.577V573.501V575.501H545.577V573.501Z" fill="#F1F6E4" mask="url(#path-115-inside-44_28_275)"/>
<path d="M727.316 457.5V539.553H644.138V457.5H727.316Z" stroke="#6A38F3" stroke-width="144.998"/>
<path d="M571.639 406.357H745.862H761.598M571.639 406.357L571.077 612.052H761.598M571.639 406.357L609.856 385.001H799.815M761.598 612.052V406.357M761.598 612.052L799.815 590.696V385.001M761.598 406.357L799.815 385.001" stroke="#C6E700" stroke-width="1.12402"/>
<mask id="path-119-inside-45_28_275" fill="white">
<path d="M769.466 596.316V564.435L794.195 552.479V583.168L769.466 596.316Z"/>
</mask>
<path d="M769.466 564.435L727.88 478.419L673.925 504.504V564.435H769.466ZM769.466 596.316H673.925V755.319L814.318 680.675L769.466 596.316ZM794.195 583.168L839.047 667.527L889.736 640.577V583.168H794.195ZM794.195 552.479H889.736V400.166L752.608 466.463L794.195 552.479ZM769.466 564.435H673.925V596.316H769.466H865.008V564.435H769.466ZM769.466 596.316L814.318 680.675L839.047 667.527L794.195 583.168L749.342 498.809L724.614 511.957L769.466 596.316ZM794.195 583.168H889.736V552.479H794.195H698.653V583.168H794.195ZM794.195 552.479L752.608 466.463L727.88 478.419L769.466 564.435L811.052 650.451L835.781 638.495L794.195 552.479Z" fill="#F6F3E4" mask="url(#path-119-inside-45_28_275)"/>
<mask id="path-121-inside-46_28_275" fill="white">
<path d="M781.724 577.593L770.59 583.765L776.157 572.425L781.724 577.593Z"/>
</mask>
<path d="M781.724 577.593L770.59 583.765L776.157 572.425L781.724 577.593Z" fill="#C6E700"/>
<path d="M770.59 583.765L719.048 566.892L638.209 731.562L770.59 658.182V583.765ZM781.724 577.593V652.011L914.104 578.631L833.266 503.58L781.724 577.593ZM776.157 572.425L827.699 498.412L776.157 450.559L724.614 555.552L776.157 572.425ZM770.59 583.765V658.182L781.724 652.011V577.593V503.176L770.59 509.347V583.765ZM781.724 577.593L833.266 503.58L827.699 498.412L776.157 572.425L724.614 646.439L730.181 651.607L781.724 577.593ZM776.157 572.425L724.614 555.552L719.048 566.892L770.59 583.765L822.133 600.637L827.699 589.298L776.157 572.425Z" fill="#C6E700" mask="url(#path-121-inside-46_28_275)"/>
<rect width="4.89589" height="8.25379" transform="matrix(0.87462 -0.48481 0 1 774.016 581.866)" fill="#C6E700"/>
<mask id="path-124-inside-47_28_275" fill="white">
<path d="M794.088 570.849L782.954 577.021L788.521 565.681L794.088 570.849Z"/>
</mask>
<path d="M794.088 570.849L782.954 577.021L788.521 565.681L794.088 570.849Z" fill="white"/>
<path d="M782.954 577.021L731.412 560.148L650.574 724.818L782.954 651.438V577.021ZM794.088 570.849V645.267L926.469 571.887L845.63 496.836L794.088 570.849ZM788.521 565.681L840.064 491.668L788.521 443.815L736.979 548.808L788.521 565.681ZM782.954 577.021V651.438L794.088 645.267V570.849V496.432L782.954 502.603V577.021ZM794.088 570.849L845.63 496.836L840.064 491.668L788.521 565.681L736.979 639.695L742.545 644.863L794.088 570.849ZM788.521 565.681L736.979 548.808L731.412 560.148L782.954 577.021L834.497 593.893L840.064 582.554L788.521 565.681Z" fill="white" mask="url(#path-124-inside-47_28_275)"/>
<rect x="0.428204" y="0.252232" width="3.91671" height="7.27461" transform="matrix(0.87462 -0.48481 0 1 786.434 575.329)" fill="white" stroke="white" stroke-width="0.979178"/>
<mask id="path-127-inside-48_28_275" fill="white">
<path d="M498.577 388.722C458.354 348.499 376.484 311.148 340.577 297.501L362.077 360.001C391.577 379.398 444.135 410.527 467.577 421.001C495.197 433.341 600.415 417.848 633.077 408.001V383.001C597.341 382.348 524.23 380.602 498.577 388.722Z"/>
</mask>
<path d="M340.577 297.501L375.395 205.894L179.863 131.577L247.907 329.379L340.577 297.501ZM498.577 388.722L429.281 458.018L471.384 500.122L528.152 482.153L498.577 388.722ZM362.077 360.001L269.407 391.879L280.287 423.508L308.234 441.884L362.077 360.001ZM467.577 421.001L507.553 331.525L467.577 421.001ZM633.077 408.001L661.367 501.828L731.077 480.81V408.001H633.077ZM633.077 383.001H731.077V286.775L634.867 285.017L633.077 383.001ZM340.577 297.501L305.759 389.107C320.06 394.542 345.644 405.575 371.661 419.52C399.261 434.314 419.537 448.275 429.281 458.018L498.577 388.722L567.874 319.425C537.394 288.946 496.624 264.12 464.256 246.771C430.306 228.573 397.002 214.107 375.395 205.894L340.577 297.501ZM362.077 360.001L308.234 441.884C338.721 461.931 396.663 496.654 427.602 510.477L467.577 421.001L507.553 331.525C491.608 324.401 444.434 296.866 415.92 278.117L362.077 360.001ZM467.577 421.001L427.602 510.477C454.917 522.68 485.178 523.426 499.609 523.556C518.908 523.731 539.668 522.285 558.694 520.283C595.266 516.434 636.609 509.294 661.367 501.828L633.077 408.001L604.787 314.173C596.884 316.556 569.287 322.085 538.179 325.359C523.365 326.918 510.601 327.648 501.383 327.564C499.207 327.544 497.477 327.481 496.165 327.402C495.519 327.364 495.021 327.324 494.663 327.291C494.486 327.275 494.352 327.261 494.259 327.25C494.166 327.24 494.121 327.234 494.121 327.234C494.121 327.234 494.175 327.241 494.28 327.257C494.384 327.274 494.55 327.301 494.772 327.341C495.201 327.419 495.936 327.564 496.93 327.807C498.677 328.235 502.53 329.281 507.553 331.525L467.577 421.001ZM633.077 408.001H731.077V383.001H633.077H535.077V408.001H633.077ZM633.077 383.001L634.867 285.017C617.619 284.702 588.353 284.05 560.17 284.589C546.054 284.86 530.938 285.446 516.814 286.686C504.412 287.776 486.139 289.866 469.003 295.291L498.577 388.722L528.152 482.153C523.841 483.517 524.328 482.781 533.965 481.935C541.882 481.239 552.087 480.78 563.922 480.553C587.642 480.099 612.799 480.647 631.287 480.984L633.077 383.001ZM340.577 297.501L247.907 329.379L269.407 391.879L362.077 360.001L454.747 328.122L433.247 265.622L340.577 297.501Z" fill="#C6E700" mask="url(#path-127-inside-48_28_275)"/>
<mask id="path-129-inside-49_28_275" fill="white">
<path d="M701.577 386.468C697.577 381.468 647.057 380.502 632.077 383.001V408.001C654.194 410.162 665.357 409.001 682.077 400.968L701.577 386.468Z"/>
</mask>
<path d="M632.077 383.001L621.547 319.873L568.077 328.792V383.001H632.077ZM701.577 386.468L739.766 437.825L792.972 398.262L751.553 346.487L701.577 386.468ZM632.077 408.001H568.077V466.05L625.851 471.697L632.077 408.001ZM682.077 400.968L709.792 458.656L715.333 455.994L720.266 452.326L682.077 400.968ZM632.077 383.001L642.607 446.128C641.699 446.28 641.917 446.197 643.79 446.062C645.428 445.945 647.651 445.835 650.386 445.763C655.877 445.617 662.368 445.649 668.582 445.879C675.051 446.118 679.885 446.523 682.488 446.878C683.987 447.083 683.102 447.052 680.868 446.43C679.793 446.13 676.778 445.252 672.902 443.416C670.892 442.463 667.912 440.908 664.526 438.553C661.252 436.276 656.363 432.4 651.602 426.449L701.577 386.468L751.553 346.487C742.315 334.941 731.562 329.568 727.702 327.74C722.64 325.341 718.114 323.932 715.245 323.132C709.425 321.509 703.819 320.603 699.786 320.053C691.323 318.898 681.841 318.281 673.307 317.966C657.825 317.394 635.893 317.48 621.547 319.873L632.077 383.001ZM632.077 408.001L625.851 471.697C638.52 472.935 652.625 473.746 667.599 471.741C683.579 469.6 697.097 464.755 709.792 458.656L682.077 400.968L654.362 343.28C652.127 344.354 651.048 344.73 650.715 344.837C650.556 344.888 650.518 344.894 650.566 344.883C650.616 344.871 650.642 344.869 650.603 344.874C650.286 344.916 647.751 345.228 638.303 344.304L632.077 408.001ZM632.077 383.001H568.077V408.001H632.077H696.077V383.001H632.077ZM682.077 400.968L720.266 452.326L739.766 437.825L701.577 386.468L663.388 335.111L643.888 349.611L682.077 400.968Z" fill="#C6E700" mask="url(#path-129-inside-49_28_275)"/>
<path d="M679.077 398.501C682.719 395.281 693.917 391.461 703.577 400.001" stroke="#C6E700" stroke-width="6" stroke-linecap="round"/>
<path d="M682.077 394.984C686.352 391.765 697.737 387.461 709.077 396.001" stroke="#C6E700" stroke-width="6" stroke-linecap="round"/>
<path d="M680.077 390.984C684.352 387.765 695.737 383.461 707.077 392.001" stroke="#C6E700" stroke-width="6" stroke-linecap="round"/>
<path d="M674.741 402.12C691.714 404.896 699.427 406.7 669.577 405.001L674.741 402.12Z" stroke="#C6E700" stroke-width="6" stroke-linecap="round"/>
<mask id="path-135-inside-50_28_275" fill="white">
<path d="M686.077 406.349L687.097 403.001C689.157 403.741 689.814 404.363 689.862 405.934C688.912 406.983 687.989 406.916 686.077 406.349Z"/>
</mask>
<path d="M687.097 403.001L692.511 387.944L676.692 382.257L671.792 398.337L687.097 403.001ZM686.077 406.349L670.772 401.685L666.074 417.103L681.526 421.688L686.077 406.349ZM689.862 405.934L701.722 416.675L706.052 411.894L705.855 405.446L689.862 405.934ZM687.097 403.001L671.792 398.337L670.772 401.685L686.077 406.349L701.382 411.013L702.403 407.665L687.097 403.001ZM686.077 406.349L681.526 421.688C682.355 421.934 685.655 422.989 689.509 422.704C694.913 422.305 699.012 419.666 701.722 416.675L689.862 405.934L678.003 395.193C678.681 394.445 679.87 393.324 681.653 392.381C683.524 391.39 685.437 390.918 687.152 390.791C688.709 390.676 689.862 390.864 690.3 390.947C690.732 391.028 690.927 391.098 690.629 391.01L686.077 406.349ZM689.862 405.934L705.855 405.446C705.759 402.316 704.892 397.351 700.762 393.061C697.559 389.732 693.746 388.388 692.511 387.944L687.097 403.001L681.684 418.057C681.859 418.12 681.488 418.001 680.885 417.68C680.256 417.346 679.008 416.604 677.707 415.252C676.292 413.782 675.227 412.021 674.578 410.146C673.986 408.433 673.889 407.049 673.87 406.422L689.862 405.934Z" fill="#6A38F3" mask="url(#path-135-inside-50_28_275)"/>
<mask id="path-137-inside-51_28_275" fill="white">
<path d="M704.577 400.001L706.077 398.501C705.41 397.667 703.877 396.101 703.077 396.501C702.277 396.901 703.744 399.001 704.577 400.001Z"/>
</mask>
<path d="M706.077 398.501L717.391 409.814L727.517 399.688L718.571 388.505L706.077 398.501ZM704.577 400.001L692.286 410.244L703.502 423.703L715.891 411.314L704.577 400.001ZM706.077 398.501L694.763 387.187L693.263 388.687L704.577 400.001L715.891 411.314L717.391 409.814L706.077 398.501ZM704.577 400.001L716.869 389.758C716.922 389.822 716.939 389.845 716.958 389.873C716.973 389.894 717.011 389.949 717.068 390.039C717.121 390.123 717.224 390.291 717.353 390.536C717.418 390.658 718.341 392.305 718.699 394.834C718.889 396.176 719.089 398.9 717.948 402.1C716.631 405.792 713.917 408.969 710.233 410.811L703.077 396.501L695.922 382.19C692.037 384.132 689.194 387.462 687.808 391.35C686.597 394.745 686.787 397.706 687.015 399.317C687.448 402.383 688.64 404.693 689.076 405.516C690.17 407.58 691.507 409.309 692.286 410.244L704.577 400.001ZM703.077 396.501L710.233 410.811C704.577 413.639 699.57 412.053 697.993 411.44C696.166 410.73 695.032 409.847 694.734 409.613C694.037 409.065 693.732 408.682 693.583 408.496L706.077 398.501L718.571 388.505C717.755 387.486 716.35 385.903 714.52 384.463C713.656 383.783 711.946 382.531 709.586 381.614C707.475 380.794 701.978 379.162 695.922 382.19L703.077 396.501Z" fill="#6A38F3" mask="url(#path-137-inside-51_28_275)"/>
<path d="M711.077 394.738L709.685 396.001L710.603 395.156L711.077 394.738Z" stroke="#6A38F3" stroke-width="16"/>
<path d="M709.077 390.159L708.148 391.001L708.753 390.444L709.077 390.159Z" stroke="#6A38F3" stroke-width="16"/>
</svg>
